STARTFONT 2.1
FONT -FontForge-Source Serif Pro Black-Black-R-Normal--30-290-75-75-P-168-ISO10646-1
SIZE 29 75 75
FONTBOUNDINGBOX 80 40 -9 -9
COMMENT "Generated by fontforge, http://fontforge.sourceforge.net"
COMMENT "(c) 2014 - 2019 Adobe Systems Incorporated (http://www.adobe.com/), with Reserved Font Name `Source'."
STARTPROPERTIES 40
FOUNDRY "FontForge"
FAMILY_NAME "Source Serif Pro Black"
WEIGHT_NAME "Black"
SLANT "R"
SETWIDTH_NAME "Normal"
ADD_STYLE_NAME ""
PIXEL_SIZE 30
POINT_SIZE 290
RESOLUTION_X 75
RESOLUTION_Y 75
SPACING "P"
AVERAGE_WIDTH 168
CHARSET_REGISTRY "ISO10646"
CHARSET_ENCODING "1"
FONTNAME_REGISTRY ""
CHARSET_COLLECTIONS "ISO8859-5 ISO8859-7 ISO10646-1"
FONT_NAME "SourceSerifPro-Black"
FACE_NAME "Source Serif Pro Black"
COPYRIGHT "(c) 2014 - 2019 Adobe Systems Incorporated (http://www.adobe.com/), with Reserved Font Name `Source'."
FONT_VERSION "3.001;hotconv 1.0.111;makeotfexe 2.5.65597"
FONT_ASCENT 24
FONT_DESCENT 6
UNDERLINE_POSITION -2
UNDERLINE_THICKNESS 2
X_HEIGHT 14
CAP_HEIGHT 19
RAW_ASCENT 800
RAW_DESCENT 200
NORM_SPACE 6
RELATIVE_WEIGHT 90
RELATIVE_SETWIDTH 50
SUPERSCRIPT_X 0
SUPERSCRIPT_Y 10
SUPERSCRIPT_SIZE 18
SUBSCRIPT_X 0
SUBSCRIPT_Y 2
SUBSCRIPT_SIZE 18
FIGURE_WIDTH 17
AVG_LOWERCASE_WIDTH 169
AVG_UPPERCASE_WIDTH 202
ENDPROPERTIES
CHARS 1458
STARTCHAR space.dup1
ENCODING 32
SWIDTH 206 0
DWIDTH 6 0
BBX 1 1 0 0
BITMAP
00
ENDCHAR
STARTCHAR exclam
ENCODING 33
SWIDTH 370 0
DWIDTH 11 0
BBX 7 20 2 0
BITMAP
38
7C
FE
FE
FE
FE
7C
7C
7C
38
38
38
00
00
38
7C
FE
FE
7E
7C
ENDCHAR
STARTCHAR quotedbl
ENCODING 34
SWIDTH 484 0
DWIDTH 15 0
BBX 12 11 1 11
BITMAP
70E0
F9F0
FDF0
F9F0
F9F0
79F0
78F0
78E0
70E0
30E0
3060
ENDCHAR
STARTCHAR numbersign
ENCODING 35
SWIDTH 583 0
DWIDTH 17 0
BBX 17 19 0 0
BITMAP
070E00
070E00
070E00
070E00
7FFF80
7FFF80
7FFF80
7FFF80
0E1C00
0E1C00
0E1C00
FFFF00
FFFF00
FFFF00
1C3800
1C3800
1C3800
1C3000
1C7000
ENDCHAR
STARTCHAR dollar
ENCODING 36
SWIDTH 560 0
DWIDTH 17 0
BBX 14 25 2 -3
BITMAP
0300
0300
0300
1FE0
7FF0
F378
F378
F378
F310
FF00
FF80
FFE0
7FF0
1FF8
07F8
07FC
067C
E67C
F678
F678
F6F0
7FC0
0600
0600
0600
ENDCHAR
STARTCHAR percent
ENCODING 37
SWIDTH 880 0
DWIDTH 26 0
BBX 24 21 1 -1
BITMAP
000020
1E0070
338060
7380C0
73C1C0
F3C180
F1C300
F1C700
F3C678
73CCCE
739DCE
3399C7
1E31C7
0071C7
0061C7
00C1C7
01C1C7
0181CE
0300CE
070078
020000
ENDCHAR
STARTCHAR ampersand
ENCODING 38
SWIDTH 721 0
DWIDTH 22 0
BBX 20 20 1 0
BITMAP
03E000
0F7800
1E3800
1E3C00
3E3C00
3E3800
3F7800
1F77F0
1F87F0
0FC1C0
1FE1C0
7FF180
7BF980
F1FF00
F0FE00
F87F00
F87F80
FE7FF0
7FFFF0
3FC7F0
ENDCHAR
STARTCHAR quotesingle
ENCODING 39
SWIDTH 257 0
DWIDTH 8 0
BBX 6 11 1 11
BITMAP
70
F8
FC
F8
F8
78
78
78
70
30
30
ENDCHAR
STARTCHAR parenleft
ENCODING 40
SWIDTH 393 0
DWIDTH 12 0
BBX 9 26 2 -5
BITMAP
0300
0780
0F00
1E00
3C00
3C00
7800
7800
7800
F000
F000
F000
F000
F000
F000
F000
7800
7800
7800
3C00
3C00
1E00
0E00
0700
0380
0100
ENDCHAR
STARTCHAR parenright
ENCODING 41
SWIDTH 393 0
DWIDTH 12 0
BBX 9 26 1 -5
BITMAP
E000
F000
7800
3C00
3C00
1E00
1E00
0F00
0F00
0F00
0780
0780
0780
0780
0780
0F00
0F00
0F00
0F00
1E00
1C00
3C00
7800
7000
E000
4000
ENDCHAR
STARTCHAR asterisk
ENCODING 42
SWIDTH 427 0
DWIDTH 13 0
BBX 12 12 0 10
BITMAP
0700
0700
0700
6720
FEF0
FFF0
7FE0
0F80
1DC0
3DE0
39E0
18C0
ENDCHAR
STARTCHAR plus
ENCODING 43
SWIDTH 550 0
DWIDTH 17 0
BBX 15 15 1 2
BITMAP
0380
0380
0380
0380
0380
0380
FFFE
FFFE
FFFE
0380
0380
0380
0380
0380
0380
ENDCHAR
STARTCHAR comma
ENCODING 44
SWIDTH 300 0
DWIDTH 9 0
BBX 6 11 1 -6
BITMAP
7C
7C
7C
7C
7C
1C
1C
38
70
E0
80
ENDCHAR
STARTCHAR hyphen.dup2
ENCODING 45
SWIDTH 350 0
DWIDTH 11 0
BBX 8 3 1 6
BITMAP
FF
FF
FF
ENDCHAR
STARTCHAR period
ENCODING 46
SWIDTH 300 0
DWIDTH 9 0
BBX 5 5 2 0
BITMAP
F8
F8
F8
F8
F8
ENDCHAR
STARTCHAR slash
ENCODING 47
SWIDTH 410 0
DWIDTH 12 0
BBX 12 26 0 -5
BITMAP
00F0
00E0
00E0
01E0
01E0
01C0
03C0
03C0
0380
0780
0780
0700
0F00
0F00
0E00
0E00
1E00
1E00
1C00
3C00
3C00
3800
7800
7800
7000
F000
ENDCHAR
STARTCHAR zero
ENCODING 48
SWIDTH 560 0
DWIDTH 17 0
BBX 15 19 1 0
BITMAP
0FC0
1EF0
3C78
7C78
7C7C
F87C
F87E
F83E
F83E
F83E
F83E
F83E
F87E
F87C
787C
7C7C
3C78
1EF0
0FE0
ENDCHAR
STARTCHAR one
ENCODING 49
SWIDTH 560 0
DWIDTH 17 0
BBX 13 19 2 0
BITMAP
03C0
3FC0
7F80
4F80
0F80
0F80
0F80
0F80
0F80
0F80
0F80
0F80
0F80
0F80
0F80
0F80
0F80
FFF8
FFF8
ENDCHAR
STARTCHAR two
ENCODING 50
SWIDTH 560 0
DWIDTH 17 0
BBX 15 19 1 0
BITMAP
0FF0
3BF8
78FC
78FC
F87C
707C
00FC
00FC
00F8
01F0
03E0
07C0
0F00
1E00
3800
7FFE
7FFE
7FFE
7FFE
ENDCHAR
STARTCHAR three
ENCODING 51
SWIDTH 560 0
DWIDTH 17 0
BBX 15 19 1 0
BITMAP
0FE0
3FF8
3CFC
787C
787C
307C
007C
00F8
07F0
07E0
01F8
00FC
007E
707E
F07E
F87E
78FC
79F8
3FF0
ENDCHAR
STARTCHAR four
ENCODING 52
SWIDTH 560 0
DWIDTH 17 0
BBX 15 19 1 0
BITMAP
00F0
01F0
03F0
03F0
07F0
0FF0
0DF0
19F0
39F0
31F0
61F0
E1F0
FFFE
FFFE
FFFE
FFFE
01F0
01F0
01F0
ENDCHAR
STARTCHAR five
ENCODING 53
SWIDTH 560 0
DWIDTH 17 0
BBX 15 19 1 0
BITMAP
1FFC
1FFC
1FFC
1FFC
1800
3800
3800
3000
3FF0
3FFC
00FC
007E
007E
707E
F07E
F87E
78FC
79F8
1FF0
ENDCHAR
STARTCHAR six
ENCODING 54
SWIDTH 560 0
DWIDTH 17 0
BBX 15 19 1 0
BITMAP
0078
01FC
07E0
0F80
1F00
3E00
7E00
7CF0
FFF8
FEFC
FC7E
F87E
F87E
F87E
FC7E
7C7C
7C7C
3EF8
1FF0
ENDCHAR
STARTCHAR seven
ENCODING 55
SWIDTH 560 0
DWIDTH 17 0
BBX 14 19 2 0
BITMAP
FFFC
FFFC
FFFC
FFF8
0038
0070
0070
00F0
01E0
01E0
03C0
03C0
0780
0F80
0F00
1F00
3F00
3E00
7E00
ENDCHAR
STARTCHAR eight
ENCODING 56
SWIDTH 560 0
DWIDTH 17 0
BBX 15 19 1 0
BITMAP
0FF0
3EF8
787C
783C
783C
7C7C
7E78
7FF0
3FE0
3FF0
0FF8
3FFC
78FC
787E
F87E
F83C
787C
7C78
3FF0
ENDCHAR
STARTCHAR nine
ENCODING 57
SWIDTH 560 0
DWIDTH 17 0
BBX 15 20 1 -1
BITMAP
0FE0
3EF8
7C7C
FC7C
F87E
F87E
F87E
FC7E
FC7E
7E7E
3FFE
1F7E
007C
00FC
01F8
03F0
07E0
1F80
3E00
2000
ENDCHAR
STARTCHAR colon
ENCODING 58
SWIDTH 300 0
DWIDTH 9 0
BBX 5 15 2 0
BITMAP
F8
F8
F8
F8
F8
00
00
00
00
00
F8
F8
F8
F8
F8
ENDCHAR
STARTCHAR semicolon
ENCODING 59
SWIDTH 300 0
DWIDTH 9 0
BBX 6 21 1 -6
BITMAP
7C
7C
7C
7C
7C
00
00
00
00
00
7C
7C
7C
7C
7C
1C
1C
38
70
E0
80
ENDCHAR
STARTCHAR less
ENCODING 60
SWIDTH 550 0
DWIDTH 17 0
BBX 14 15 1 2
BITMAP
0018
007C
01FC
07F8
1FC0
7F00
FC00
F000
FE00
3F80
0FE0
03F8
00FC
003C
0008
ENDCHAR
STARTCHAR equal
ENCODING 61
SWIDTH 550 0
DWIDTH 17 0
BBX 15 9 1 5
BITMAP
FFFE
FFFE
FFFE
0000
0000
0000
FFFE
FFFE
FFFE
ENDCHAR
STARTCHAR greater
ENCODING 62
SWIDTH 550 0
DWIDTH 17 0
BBX 15 15 1 2
BITMAP
6000
7800
FE00
3F80
0FE0
03F8
00FE
003E
00FE
03F8
0FE0
7F80
FE00
7800
6000
ENDCHAR
STARTCHAR question
ENCODING 63
SWIDTH 462 0
DWIDTH 14 0
BBX 10 20 2 0
BITMAP
7800
FE00
FF00
FF80
3FC0
00C0
01C0
1FC0
7FC0
7F80
7F00
3800
3000
0000
3800
7C00
FC00
FE00
FC00
7C00
ENDCHAR
STARTCHAR at
ENCODING 64
SWIDTH 913 0
DWIDTH 27 0
BBX 24 25 2 -5
BITMAP
000400
00FFE0
03C0F0
07001C
1C000C
180806
307EC6
70FFC7
61E3C3
E3E3C3
E3C7C3
C3C7C7
C7C787
C7C786
C7C78E
C7CF8C
C7FFFC
E3F3F8
E1E1E0
700000
780000
3C0000
1FFF00
07FE00
004000
ENDCHAR
STARTCHAR A
ENCODING 65
SWIDTH 680 0
DWIDTH 20 0
BBX 20 20 0 0
BITMAP
007000
00F800
00F800
00F800
01FC00
01FC00
017C00
037E00
037E00
023E00
063F00
063F00
041F00
0FFF80
0FFF80
180F80
180FC0
180FC0
FE3FF0
FE3FF0
ENDCHAR
STARTCHAR B
ENCODING 66
SWIDTH 660 0
DWIDTH 20 0
BBX 18 20 1 0
BITMAP
FFF000
FFFE00
3F3F00
3F1F80
3F1F80
3F1F80
3F1F80
3F1F00
3F3E00
3FF000
3FFF00
3F1F80
3F0FC0
3F0FC0
3F0FC0
3F0FC0
3F0FC0
3F1F80
FFFF00
FFFC00
ENDCHAR
STARTCHAR C
ENCODING 67
SWIDTH 618 0
DWIDTH 19 0
BBX 17 21 1 -1
BITMAP
03FE00
0FFF80
1F8780
3F0380
7E0380
7E0380
FC0000
FC0000
FC0000
FC0000
FC0000
FC0000
FC0000
FC0000
FC0380
7E0380
7E0380
3F0380
1FC780
07FF00
00E000
ENDCHAR
STARTCHAR D
ENCODING 68
SWIDTH 703 0
DWIDTH 21 0
BBX 19 20 1 0
BITMAP
FF8000
FFFC00
3F3F00
3F1F80
3F0FC0
3F0FC0
3F07E0
3F07E0
3F07E0
3F07E0
3F07E0
3F07E0
3F07E0
3F07E0
3F07C0
3F0FC0
3F0F80
3F1F00
FFFE00
FFF000
ENDCHAR
STARTCHAR E
ENCODING 69
SWIDTH 591 0
DWIDTH 18 0
BBX 16 20 1 0
BITMAP
FFFE
FFFE
3F0E
3F0E
3F06
3F07
3F00
3F18
3F18
3FF8
3FF8
3F18
3F18
3F00
3F00
3F07
3F07
3F07
FFFF
FFFF
ENDCHAR
STARTCHAR F
ENCODING 70
SWIDTH 580 0
DWIDTH 17 0
BBX 16 20 1 0
BITMAP
FFFF
FFFF
3F0F
3F07
3F07
3F07
3F00
3F18
3F18
3FF8
3FF8
3F18
3F18
3F00
3F00
3F00
3F00
3F00
FFE0
FFE0
ENDCHAR
STARTCHAR G
ENCODING 71
SWIDTH 672 0
DWIDTH 20 0
BBX 19 21 1 -1
BITMAP
03FE00
0FFF80
1F8780
3F0380
7E0380
7E0380
FC0000
FC0000
FC0000
FC0000
FC7FE0
FC7FE0
FC0F80
FC0F80
7E0F80
7E0F80
3E0F80
3F0F80
1FCF80
07FF00
006000
ENDCHAR
STARTCHAR H
ENCODING 72
SWIDTH 756 0
DWIDTH 23 0
BBX 21 20 1 0
BITMAP
FFDFF8
FFDFF8
3F07E0
3F07E0
3F07E0
3F07E0
3F07E0
3F07E0
3F07E0
3FFFE0
3FFFE0
3F07E0
3F07E0
3F07E0
3F07E0
3F07E0
3F07E0
3F07E0
FFDFF8
FFDFF8
ENDCHAR
STARTCHAR I
ENCODING 73
SWIDTH 395 0
DWIDTH 12 0
BBX 10 20 1 0
BITMAP
FFC0
FFC0
3F00
3F00
3F00
3F00
3F00
3F00
3F00
3F00
3F00
3F00
3F00
3F00
3F00
3F00
3F00
3F00
FFC0
FFC0
ENDCHAR
STARTCHAR J
ENCODING 74
SWIDTH 404 0
DWIDTH 12 0
BBX 14 25 -3 -5
BITMAP
0FFC
0FFC
03F0
03F0
03F0
03F0
03F0
03F0
03F0
03F0
03F0
03F0
03F0
03F0
03F0
03F0
03F0
03F0
03F0
03E0
03E0
73E0
FBC0
FF80
7E00
ENDCHAR
STARTCHAR K
ENCODING 75
SWIDTH 708 0
DWIDTH 21 0
BBX 20 20 1 0
BITMAP
FFCFE0
FFCFE0
3F0780
3F0600
3F0E00
3F1C00
3F1800
3F3800
3F7800
3FFC00
3FFE00
3FFE00
3F7F00
3F3F00
3F3F80
3F1F80
3F1FC0
3F0FC0
FF9FF0
FF9FF0
ENDCHAR
STARTCHAR L
ENCODING 76
SWIDTH 574 0
DWIDTH 17 0
BBX 16 20 1 0
BITMAP
FFC0
FFC0
3F00
3F00
3F00
3F00
3F00
3F00
3F00
3F00
3F00
3F00
3F00
3F00
3F07
3F07
3F07
3F07
FFFF
FFFF
ENDCHAR
STARTCHAR M
ENCODING 77
SWIDTH 893 0
DWIDTH 27 0
BBX 26 20 0 0
BITMAP
7FC03FC0
7FC07FC0
1FC07F00
1FE07F00
1FE0FF00
1FE0FF00
1BF0FF00
1BF1BF00
1BF1BF00
19F9BF00
19FB3F00
19FB3F00
18FF3F00
18FE3F00
187E3F00
187E3F00
187C3F00
183C3F00
FF3CFFC0
FF38FFC0
ENDCHAR
STARTCHAR N
ENCODING 78
SWIDTH 725 0
DWIDTH 22 0
BBX 20 20 1 0
BITMAP
FE0FF0
FF0FF0
3F83C0
3FC180
3FC180
3FE180
37F180
37F980
33F980
31FD80
30FF80
30FF80
307F80
303F80
303F80
301F80
300F80
300780
FF0780
FF0380
ENDCHAR
STARTCHAR O
ENCODING 79
SWIDTH 700 0
DWIDTH 21 0
BBX 19 21 1 -1
BITMAP
03F800
0FFE00
1F1F00
3E0F80
7E0FC0
7C07C0
FC07E0
FC07E0
FC07E0
FC07E0
FC07E0
FC07E0
FC07E0
FC07E0
7C07C0
7C0FC0
7E0FC0
3E0F80
1F1F00
07FC00
00E000
ENDCHAR
STARTCHAR P
ENCODING 80
SWIDTH 622 0
DWIDTH 19 0
BBX 17 20 1 0
BITMAP
FF8000
FFFC00
3F7F00
3F1F80
3F0F80
3F0F80
3F0F80
3F0F80
3F1F80
3F1F00
3F3F00
3FFC00
3FC000
3F0000
3F0000
3F0000
3F0000
3F0000
FFE000
FFE000
ENDCHAR
STARTCHAR Q
ENCODING 81
SWIDTH 700 0
DWIDTH 21 0
BBX 19 26 1 -6
BITMAP
03F800
0FFE00
1F1F00
3E0F80
7E0FC0
7C07C0
FC07E0
FC07E0
FC07E0
FC07E0
FC07E0
FC07E0
FC07E0
FC07E0
FC07C0
7C0FC0
7E0FC0
3E0F80
1F1F00
07FC00
01F000
01F000
01F800
00FE80
007FC0
003F80
ENDCHAR
STARTCHAR R
ENCODING 82
SWIDTH 696 0
DWIDTH 21 0
BBX 20 20 1 0
BITMAP
FFF000
FFFE00
3F3F80
3F1F80
3F0F80
3F0FC0
3F0F80
3F0F80
3F1F00
3FFC00
3FFE00
3F3F00
3F1F80
3F1F80
3F1F80
3F1F80
3F1FC0
3F1FC0
FFCFF0
FFC7F0
ENDCHAR
STARTCHAR S
ENCODING 83
SWIDTH 553 0
DWIDTH 17 0
BBX 15 21 1 -1
BITMAP
0FF0
3FFC
7C3C
7C3C
FC3C
FC1C
FE00
FF80
7FE0
7FF0
3FF8
0FFC
03FE
00FE
E07E
E07E
F07C
F07C
F8F8
7FF0
0300
ENDCHAR
STARTCHAR T
ENCODING 84
SWIDTH 646 0
DWIDTH 19 0
BBX 18 20 1 0
BITMAP
FFFFC0
FFFFC0
E3F1C0
E3F1C0
E3F1C0
E3F1C0
03F000
03F000
03F000
03F000
03F000
03F000
03F000
03F000
03F000
03F000
03F000
03F000
1FFC00
1FFC00
ENDCHAR
STARTCHAR U
ENCODING 85
SWIDTH 732 0
DWIDTH 22 0
BBX 20 21 1 -1
BITMAP
FFC7F0
FFC7F0
3F00C0
3F00C0
3F00C0
3F00C0
3F00C0
3F00C0
3F00C0
3F00C0
3F00C0
3F00C0
3F00C0
3F00C0
3F01C0
3F0180
3F8380
1FEF00
0FFF00
07FC00
006000
ENDCHAR
STARTCHAR V
ENCODING 86
SWIDTH 656 0
DWIDTH 20 0
BBX 20 20 0 0
BITMAP
FFC7F0
FFC7F0
3F00C0
3F0180
3F8180
1F8180
1F8300
1FC300
0FC300
0FC600
07E600
07E400
07EC00
03FC00
03F800
03F800
01F800
01F000
01F000
00F000
ENDCHAR
STARTCHAR W
ENCODING 87
SWIDTH 989 0
DWIDTH 30 0
BBX 30 20 0 0
BITMAP
FFCFF8FC
FFCFF8FC
3F03E070
3F03E060
3F07F060
1F87F060
1F87F0C0
1F85F0C0
0F8DF8C0
0FCDF980
0FCCF980
0FD8F980
07D8FD00
07F8FF00
07F07F00
03F07E00
03F07E00
03E03E00
01E03C00
01E03C00
ENDCHAR
STARTCHAR X
ENCODING 88
SWIDTH 657 0
DWIDTH 20 0
BBX 20 20 0 0
BITMAP
FFCFC0
FFCFC0
3F8300
1F8700
1FC600
0FCC00
0FFC00
07F800
03F000
03F800
01F800
01FC00
03FC00
07FE00
067F00
0C3F00
1C3F80
181F80
FC7FF0
FC7FF0
ENDCHAR
STARTCHAR Y
ENCODING 89
SWIDTH 621 0
DWIDTH 19 0
BBX 19 20 0 0
BITMAP
FFC7E0
FFC7E0
3F0380
3F8300
1F8300
1FC600
0FC600
0FEC00
07EC00
07F800
03F800
03F000
03F000
03F000
03F000
03F000
03F000
03F000
0FFE00
0FFE00
ENDCHAR
STARTCHAR Z
ENCODING 90
SWIDTH 568 0
DWIDTH 17 0
BBX 15 20 1 0
BITMAP
FFFE
FFFE
E0FE
E0FC
E1FC
E1F8
03F8
03F0
07F0
07E0
0FE0
1FC0
1F80
3F80
3F06
7F06
7E0E
FE0E
FFFE
FFFE
ENDCHAR
STARTCHAR bracketleft
ENCODING 91
SWIDTH 360 0
DWIDTH 11 0
BBX 8 26 3 -5
BITMAP
FF
FC
F0
F0
F0
F0
F0
F0
F0
F0
F0
F0
F0
F0
F0
F0
F0
F0
F0
F0
F0
F0
F0
F0
FF
FF
ENDCHAR
STARTCHAR backslash
ENCODING 92
SWIDTH 410 0
DWIDTH 12 0
BBX 12 26 0 -5
BITMAP
F000
7000
7800
7800
3800
3C00
3C00
1C00
1E00
1E00
0E00
0F00
0F00
0700
0700
0780
0780
0380
03C0
03C0
01C0
01E0
01E0
00E0
00F0
00F0
ENDCHAR
STARTCHAR bracketright
ENCODING 93
SWIDTH 360 0
DWIDTH 11 0
BBX 8 26 0 -5
BITMAP
FF
3F
1F
1F
1F
0F
0F
0F
0F
0F
0F
0F
0F
0F
0F
0F
0F
0F
0F
0F
1F
1F
1F
1F
FF
FF
ENDCHAR
STARTCHAR asciicircum
ENCODING 94
SWIDTH 550 0
DWIDTH 17 0
BBX 14 10 1 5
BITMAP
0780
07C0
0FE0
1EE0
1CF0
3C78
7838
703C
F01C
2010
ENDCHAR
STARTCHAR underscore
ENCODING 95
SWIDTH 550 0
DWIDTH 17 0
BBX 14 3 1 -3
BITMAP
FFFC
FFFC
FFFC
ENDCHAR
STARTCHAR grave
ENCODING 96
SWIDTH 400 0
DWIDTH 12 0
BBX 7 7 2 17
BITMAP
20
70
F8
78
3C
1E
0E
ENDCHAR
STARTCHAR a
ENCODING 97
SWIDTH 540 0
DWIDTH 16 0
BBX 15 15 1 0
BITMAP
1FE0
3FF0
79F8
F8F8
F8F8
70F8
03F8
1EF8
7CF8
F8F8
F8F8
F8F8
FDFA
FFFE
7E7C
ENDCHAR
STARTCHAR b
ENCODING 98
SWIDTH 623 0
DWIDTH 19 0
BBX 17 22 1 0
BITMAP
020000
7E0000
FE0000
7E0000
7E0000
7E0000
7E0000
7EFC00
7FFE00
7FFF00
7E3F00
7E1F80
7E1F80
7E1F80
7E1F80
7E1F80
7E1F80
7E1F80
7E3F00
7F7F00
FFFE00
FDFC00
ENDCHAR
STARTCHAR c
ENCODING 99
SWIDTH 523 0
DWIDTH 16 0
BBX 14 15 1 0
BITMAP
07E0
1FF8
3E78
7C7C
FC7C
FC38
FC00
FC00
FC00
FC00
FC00
FE08
7FFC
3FF8
1FE0
ENDCHAR
STARTCHAR d
ENCODING 100
SWIDTH 605 0
DWIDTH 18 0
BBX 16 22 1 0
BITMAP
0002
007E
00FE
003E
003E
003E
003E
0FBE
3FFE
7FFE
7E3E
FC3E
FC3E
FC3E
FC3E
FC3E
FC3E
FC3E
FE3E
7FFE
7FFF
3FBF
ENDCHAR
STARTCHAR e
ENCODING 101
SWIDTH 526 0
DWIDTH 16 0
BBX 14 15 1 0
BITMAP
07E0
1FF0
3C78
7C7C
FC7C
FC7C
FFFC
FFFC
FC00
FC00
FC00
FE08
7FFC
3FF8
1FF0
ENDCHAR
STARTCHAR f
ENCODING 102
SWIDTH 365 0
DWIDTH 11 0
BBX 13 22 1 0
BITMAP
01F0
07F8
1FF8
1E78
3E30
3E00
7E00
7FC0
FFC0
FFC0
7E00
7E00
7E00
7E00
7E00
7E00
7E00
7E00
7E00
7E00
FF80
FF80
ENDCHAR
STARTCHAR g
ENCODING 103
SWIDTH 553 0
DWIDTH 17 0
BBX 16 22 0 -7
BITMAP
0FE3
3EFF
7C7F
7C7C
7C7C
7C7C
7C7C
3E78
1FF0
3000
3000
7FF0
7FFE
7FFE
7FFF
3FFF
601F
E00F
F01E
787C
7FF8
0F80
ENDCHAR
STARTCHAR h
ENCODING 104
SWIDTH 624 0
DWIDTH 19 0
BBX 17 22 1 0
BITMAP
020000
7E0000
FE0000
7E0000
7E0000
7E0000
7E0000
7E7C00
7EFE00
7FFE00
7F3F00
7E3F00
7E3F00
7E3F00
7E3F00
7E3F00
7E3F00
7E3F00
7E3F00
7E3F00
FF7F80
FF7F80
ENDCHAR
STARTCHAR i
ENCODING 105
SWIDTH 324 0
DWIDTH 10 0
BBX 8 22 1 0
BITMAP
3C
7E
7E
7E
3C
00
00
0E
7E
FE
7E
7E
7E
7E
7E
7E
7E
7E
7E
7E
FF
FF
ENDCHAR
STARTCHAR j
ENCODING 106
SWIDTH 320 0
DWIDTH 10 0
BBX 12 29 -4 -7
BITMAP
01E0
03E0
03F0
03E0
01E0
0000
0000
0070
03F0
0FF0
03F0
03F0
03F0
03F0
03F0
03F0
03F0
03F0
03F0
03F0
03F0
03F0
03F0
03F0
33E0
FBE0
FFC0
7F80
3E00
ENDCHAR
STARTCHAR k
ENCODING 107
SWIDTH 619 0
DWIDTH 19 0
BBX 18 22 1 0
BITMAP
020000
7E0000
FE0000
7E0000
7E0000
7E0000
7E0000
7E7F80
7E7F80
7E1C00
7E3800
7E7000
7EF000
7FF800
7FF800
7EFC00
7EFC00
7E7E00
7E7E00
7E3E00
FF3FC0
FF3FC0
ENDCHAR
STARTCHAR l
ENCODING 108
SWIDTH 334 0
DWIDTH 10 0
BBX 8 22 1 0
BITMAP
02
7E
FE
7E
7E
7E
7E
7E
7E
7E
7E
7E
7E
7E
7E
7E
7E
7E
7E
7E
FF
FF
ENDCHAR
STARTCHAR m
ENCODING 109
SWIDTH 910 0
DWIDTH 27 0
BBX 27 15 0 0
BITMAP
073E1F00
3FFF7F80
FFFFFF80
3F1F9F80
3F1F8F80
3F1F8FC0
3F1F8FC0
3F1F8FC0
3F1F8FC0
3F1F8FC0
3F1F8FC0
3F1F8FC0
3F1F8FC0
7FBFDFE0
7FBFDFE0
ENDCHAR
STARTCHAR n
ENCODING 110
SWIDTH 620 0
DWIDTH 19 0
BBX 18 15 0 0
BITMAP
073E00
3FFF00
FFFF00
3F1F80
3F1F80
3F1F80
3F1F80
3F1F80
3F1F80
3F1F80
3F1F80
3F1F80
3F1F80
7FBFC0
7FBFC0
ENDCHAR
STARTCHAR o
ENCODING 111
SWIDTH 572 0
DWIDTH 17 0
BBX 16 15 1 0
BITMAP
0FE0
1FF8
7C7C
7C7C
FC7E
FC7E
FC7E
FC7F
FC7E
FC7E
FC7E
FC7E
7C7C
3EF8
1FF0
ENDCHAR
STARTCHAR p
ENCODING 112
SWIDTH 623 0
DWIDTH 19 0
BBX 17 22 1 -7
BITMAP
0EFC00
7FFE00
FFFF00
7E3F00
7E1F80
7E1F80
7E1F80
7E1F80
7E1F80
7E1F80
7E1F80
7E3F00
7F7F00
7FFE00
7FFC00
7E0000
7E0000
7E0000
7E0000
7E0000
FF0000
FF0000
ENDCHAR
STARTCHAR q
ENCODING 113
SWIDTH 594 0
DWIDTH 18 0
BBX 17 22 1 -7
BITMAP
0F8600
3FDE00
7FFE00
7E3E00
FC3E00
FC3E00
FC3E00
FC3E00
FC3E00
FC3E00
FC3E00
FE3E00
7FFE00
7FFE00
3FBE00
003E00
003E00
003E00
003E00
003E00
00FF80
00FF80
ENDCHAR
STARTCHAR r
ENCODING 114
SWIDTH 483 0
DWIDTH 14 0
BBX 15 15 0 0
BITMAP
073C
3F7C
FFFE
3FBC
3F9C
3F00
3F00
3F00
3F00
3F00
3F00
3F00
3F00
7FC0
7FC0
ENDCHAR
STARTCHAR s
ENCODING 115
SWIDTH 463 0
DWIDTH 14 0
BBX 12 15 1 0
BITMAP
1FC0
7FE0
78E0
F0E0
F8E0
FF80
FFE0
FFF0
7FF0
1FF0
E3F0
E1F0
E0F0
F3E0
7FC0
ENDCHAR
STARTCHAR t
ENCODING 116
SWIDTH 372 0
DWIDTH 11 0
BBX 11 19 0 0
BITMAP
0F00
0F00
1F00
1F00
3FE0
FFE0
FFE0
3F00
3F00
3F00
3F00
3F00
3F00
3F00
3F00
3F00
3FA0
1FE0
1FC0
ENDCHAR
STARTCHAR u
ENCODING 117
SWIDTH 617 0
DWIDTH 19 0
BBX 17 15 1 0
BITMAP
1E0700
FE7F00
FE7F00
7E3F00
7E3F00
7E3F00
7E3F00
7E3F00
7E3F00
7E3F00
7E3F00
7E3F00
7FFF00
3FFF80
3F3F80
ENDCHAR
STARTCHAR v
ENCODING 118
SWIDTH 536 0
DWIDTH 16 0
BBX 16 15 0 0
BITMAP
FFBF
FFBF
7E0C
3F1C
3F18
1F18
1FB0
1FB0
0FB0
0FE0
07E0
07E0
07C0
03C0
0380
ENDCHAR
STARTCHAR w
ENCODING 119
SWIDTH 800 0
DWIDTH 24 0
BBX 24 15 0 0
BITMAP
FF7FBF
FF7FBF
7E1F0C
7E3F1C
3E3F18
3F3F98
3F6FB8
1F6FB0
1F6FF0
0FC7E0
0FC7E0
0FC3E0
0783C0
0783C0
0701C0
ENDCHAR
STARTCHAR x
ENCODING 120
SWIDTH 563 0
DWIDTH 17 0
BBX 17 15 0 0
BITMAP
FF9F00
FF9F00
3F8C00
1F9800
1FD800
0FF000
07E000
07F000
03F000
07F800
0DFC00
0DFC00
18FE00
FDFF80
FDFF80
ENDCHAR
STARTCHAR y
ENCODING 121
SWIDTH 543 0
DWIDTH 16 0
BBX 16 22 0 -7
BITMAP
FF9F
FF9F
7E0C
3F0C
3F18
1F18
1F98
0FB0
0FB0
0FE0
07E0
07E0
03C0
03C0
01C0
0180
0180
3100
FB00
FE00
FE00
7800
ENDCHAR
STARTCHAR z
ENCODING 122
SWIDTH 468 0
DWIDTH 14 0
BBX 14 15 0 0
BITMAP
7FFC
7FFC
71F8
73F0
73F0
07E0
07E0
0FC0
0FC0
1F80
3F9C
3F1C
7E3C
7E3C
FFF8
ENDCHAR
STARTCHAR braceleft
ENCODING 123
SWIDTH 334 0
DWIDTH 10 0
BBX 8 26 1 -5
BITMAP
1F
3E
7C
7C
7C
3C
3C
1C
1E
1C
1C
78
F0
F8
1C
1C
1E
1C
3C
3C
3C
7C
7C
3C
1F
07
ENDCHAR
STARTCHAR bar
ENCODING 124
SWIDTH 280 0
DWIDTH 8 0
BBX 4 31 2 -8
BITMAP
F0
F0
F0
F0
F0
F0
F0
F0
F0
F0
F0
F0
F0
F0
F0
F0
F0
F0
F0
F0
F0
F0
F0
F0
F0
F0
F0
F0
F0
F0
F0
ENDCHAR
STARTCHAR braceright
ENCODING 125
SWIDTH 334 0
DWIDTH 10 0
BBX 8 26 1 -5
BITMAP
F8
7C
3E
3E
3E
3C
3C
38
38
38
38
1E
0F
1F
38
38
38
38
3C
3C
3C
3E
3E
3C
F8
E0
ENDCHAR
STARTCHAR asciitilde
ENCODING 126
SWIDTH 550 0
DWIDTH 17 0
BBX 14 7 1 7
BITMAP
0800
3E0C
7F0C
FFDC
E3FC
E1F8
2070
ENDCHAR
STARTCHAR space
ENCODING 160
SWIDTH 206 0
DWIDTH 6 0
BBX 1 1 0 0
BITMAP
00
ENDCHAR
STARTCHAR exclamdown
ENCODING 161
SWIDTH 370 0
DWIDTH 11 0
BBX 7 20 2 -5
BITMAP
38
7C
FE
FE
7C
7C
00
00
00
38
38
3C
7C
7C
7C
FE
FE
FE
FE
7C
ENDCHAR
STARTCHAR cent
ENCODING 162
SWIDTH 560 0
DWIDTH 17 0
BBX 15 21 1 -1
BITMAP
00C0
00C0
00C0
07F0
1FFC
3EDE
7CDE
7CDE
F8CE
F8C0
F8C0
F8C0
FCC0
FCC0
7EC4
7FCE
3FFC
0FF8
01C0
00C0
00C0
ENDCHAR
STARTCHAR sterling
ENCODING 163
SWIDTH 560 0
DWIDTH 17 0
BBX 14 19 1 0
BITMAP
07F0
1FB8
3E3C
3C3C
7C3C
7C1C
7C00
3E00
3E00
7FF0
7FF0
1E00
1E00
1C00
3800
7FFC
FFFC
FFFC
FFFC
ENDCHAR
STARTCHAR currency
ENCODING 164
SWIDTH 560 0
DWIDTH 17 0
BBX 15 15 1 2
BITMAP
E00E
E01E
F7DC
3FF8
1C70
3838
3838
3838
3838
3870
1FF0
7FF8
F79E
E00E
C00E
ENDCHAR
STARTCHAR yen
ENCODING 165
SWIDTH 560 0
DWIDTH 17 0
BBX 17 19 0 0
BITMAP
FF9F80
FF9F80
3E0600
3F0E00
1F0C00
1F1C00
0F9800
0FB800
07F000
3FFE00
3FFE00
03E000
03E000
3FFE00
3FFE00
03E000
03E000
1FFC00
1FFC00
ENDCHAR
STARTCHAR brokenbar
ENCODING 166
SWIDTH 280 0
DWIDTH 8 0
BBX 4 31 2 -8
BITMAP
F0
F0
F0
F0
F0
F0
F0
F0
F0
F0
F0
F0
F0
00
00
00
00
F0
F0
F0
F0
F0
F0
F0
F0
F0
F0
F0
F0
F0
F0
ENDCHAR
STARTCHAR section
ENCODING 167
SWIDTH 549 0
DWIDTH 16 0
BBX 14 23 1 -3
BITMAP
0FE0
1FF8
387C
787C
783C
7E10
7F80
3FF0
3FF8
67FC
E0FC
F03C
FC1C
7F9C
7FF8
3FF0
0FF8
01F8
7078
7878
7878
7DF0
1FE0
ENDCHAR
STARTCHAR dieresis
ENCODING 168
SWIDTH 400 0
DWIDTH 12 0
BBX 12 5 0 17
BITMAP
6060
F0F0
F9F0
F9F0
70E0
ENDCHAR
STARTCHAR copyright
ENCODING 169
SWIDTH 740 0
DWIDTH 22 0
BBX 20 21 1 -1
BITMAP
03FC00
0FFF00
1C0380
3801C0
70FCE0
63EC60
E78430
C78430
C70030
CF0030
CF0030
C70030
C78030
C78630
63C670
61FC60
3000C0
1C01C0
0F0700
07FE00
00E000
ENDCHAR
STARTCHAR ordfeminine
ENCODING 170
SWIDTH 357 0
DWIDTH 11 0
BBX 10 10 1 12
BITMAP
3E00
E700
E700
C700
1F00
7700
E700
E700
FF40
F380
ENDCHAR
STARTCHAR guillemotleft
ENCODING 171
SWIDTH 578 0
DWIDTH 17 0
BBX 15 13 1 1
BITMAP
0306
071C
1E3C
3C78
78F0
F3E0
F3C0
F3E0
78F0
3C78
0E3C
071C
0306
ENDCHAR
STARTCHAR logicalnot
ENCODING 172
SWIDTH 550 0
DWIDTH 17 0
BBX 15 8 1 4
BITMAP
FFFE
FFFE
FFFE
001E
001E
001E
001E
001E
ENDCHAR
STARTCHAR hyphen.dup3
ENCODING 173
SWIDTH 350 0
DWIDTH 11 0
BBX 8 3 1 6
BITMAP
FF
FF
FF
ENDCHAR
STARTCHAR registered
ENCODING 174
SWIDTH 474 0
DWIDTH 14 0
BBX 12 12 1 9
BITMAP
1FC0
70E0
7230
CDB0
CD90
8E10
CD90
CDB0
D1B0
6060
3FC0
0F00
ENDCHAR
STARTCHAR macron
ENCODING 175
SWIDTH 400 0
DWIDTH 12 0
BBX 10 3 1 17
BITMAP
FFC0
FFC0
FFC0
ENDCHAR
STARTCHAR degree
ENCODING 176
SWIDTH 328 0
DWIDTH 10 0
BBX 8 8 1 12
BITMAP
3C
7E
C3
C3
C3
C3
7E
3C
ENDCHAR
STARTCHAR plusminus
ENCODING 177
SWIDTH 550 0
DWIDTH 17 0
BBX 15 17 1 0
BITMAP
0380
0380
0380
0380
0380
FFFE
FFFE
FFFE
0380
0380
0380
0380
0380
0000
FFFE
FFFE
FFFE
ENDCHAR
STARTCHAR two.sups
ENCODING 178
SWIDTH 374 0
DWIDTH 11 0
BBX 9 12 1 12
BITMAP
3F00
6700
E780
E780
0780
0700
0E00
1C00
3000
7F80
FF80
FF80
ENDCHAR
STARTCHAR three.sups
ENCODING 179
SWIDTH 374 0
DWIDTH 11 0
BBX 9 12 1 12
BITMAP
3E00
6700
6780
4780
0700
1E00
0F00
0780
C780
E780
E780
7F00
ENDCHAR
STARTCHAR acute
ENCODING 180
SWIDTH 400 0
DWIDTH 12 0
BBX 7 7 3 17
BITMAP
08
1C
3E
3C
78
F0
E0
ENDCHAR
STARTCHAR mu.dup4
ENCODING 181
SWIDTH 596 0
DWIDTH 18 0
BBX 17 21 1 -6
BITMAP
1C1E00
7C7E00
7C7E00
7C7E00
7C7E00
7C7E00
7C3C00
7C3C00
7C3C00
7C3C00
7C3C00
7E7C00
7FFF80
7FFF80
7F9F00
780000
7C0000
7C0000
7C0000
7C0000
E00000
ENDCHAR
STARTCHAR paragraph
ENCODING 182
SWIDTH 651 0
DWIDTH 20 0
BBX 18 23 1 -3
BITMAP
003FC0
0FFFC0
3F1F00
7F1F00
7F1F00
FF1F00
FF1F00
FF1F00
FF1F00
FF1F00
FF1F00
FF1F00
FF1F00
7F1F00
3F1F00
1F1F00
031F00
001F00
001F00
001F00
001F00
001F00
001F00
ENDCHAR
STARTCHAR periodcentered
ENCODING 183
SWIDTH 300 0
DWIDTH 9 0
BBX 5 5 2 8
BITMAP
F8
F8
F8
F8
F8
ENDCHAR
STARTCHAR cedilla
ENCODING 184
SWIDTH 400 0
DWIDTH 12 0
BBX 7 7 2 -7
BITMAP
30
30
3C
0E
0E
FE
78
ENDCHAR
STARTCHAR one.sups
ENCODING 185
SWIDTH 374 0
DWIDTH 11 0
BBX 8 12 2 12
BITMAP
1C
FC
3C
3C
3C
3C
3C
3C
3C
3C
7E
FF
ENDCHAR
STARTCHAR ordmasculine
ENCODING 186
SWIDTH 381 0
DWIDTH 11 0
BBX 10 10 1 12
BITMAP
1E00
7380
E380
E3C0
E3C0
E3C0
E3C0
E380
7380
3F00
ENDCHAR
STARTCHAR guillemotright
ENCODING 187
SWIDTH 578 0
DWIDTH 17 0
BBX 16 13 1 1
BITMAP
E1C0
70E0
3870
1E78
1F3E
0F9F
078F
0F9F
1F3C
1C78
38F0
70E0
E180
ENDCHAR
STARTCHAR onequarter
ENCODING 188
SWIDTH 880 0
DWIDTH 26 0
BBX 22 21 2 -1
BITMAP
000040
1C0060
FC00E0
3C00C0
3C0180
3C0380
3C0300
3C0600
3C0E70
3C0C70
3C18F0
7C39F0
FF3370
006270
00E470
00CFFC
018FFC
038070
030070
060070
060000
ENDCHAR
STARTCHAR onehalf
ENCODING 189
SWIDTH 880 0
DWIDTH 26 0
BBX 24 21 1 -1
BITMAP
000020
1C0070
7C0060
1C00C0
1C01C0
1C0180
1C0300
1C0700
1C067C
1C0DCE
1C1DCF
3E198F
FF300E
00701E
00601C
00C030
01C060
0180FF
0301FF
0701FF
020000
ENDCHAR
STARTCHAR threequarters
ENCODING 190
SWIDTH 880 0
DWIDTH 26 0
BBX 22 21 2 -1
BITMAP
000040
3E0060
6700E0
6780C0
478180
070380
1E0300
0F0600
078E38
C38C78
E798F8
E7B9F8
7F3178
006278
00E678
00C7FC
0187FC
038078
030078
060078
060000
ENDCHAR
STARTCHAR questiondown
ENCODING 191
SWIDTH 462 0
DWIDTH 14 0
BBX 10 20 2 -5
BITMAP
0F00
0F80
1FC0
1FC0
0F80
0700
0000
0300
0700
1F00
7F00
FF80
FF00
F000
C000
FE00
7F80
3FC0
1FC0
0780
ENDCHAR
STARTCHAR Agrave
ENCODING 192
SWIDTH 680 0
DWIDTH 20 0
BBX 20 26 0 0
BITMAP
070000
0F8000
07E000
03F000
007000
000000
007000
00F800
00F800
00F800
01FC00
01FC00
017C00
037E00
037E00
023E00
063F00
063F00
041F00
0FFF80
0FFF80
180F80
180FC0
180FC0
FE3FF0
FE3FF0
ENDCHAR
STARTCHAR Aacute
ENCODING 193
SWIDTH 680 0
DWIDTH 20 0
BBX 20 26 0 0
BITMAP
000F00
001F00
003E00
007C00
00E000
000000
007000
00F800
00F800
00F800
01FC00
01FC00
017C00
037E00
037E00
023E00
063F00
063F00
041F00
0FFF80
0FFF80
180F80
180FC0
180FC0
FE3FF0
FE3FF0
ENDCHAR
STARTCHAR Acircumflex
ENCODING 194
SWIDTH 680 0
DWIDTH 20 0
BBX 20 26 0 0
BITMAP
00F000
01F800
03FC00
07DE00
0F0700
040100
007000
00F800
00F800
00F800
01FC00
01FC00
017C00
037E00
037E00
023E00
063F00
063F00
041F00
0FFF80
0FFF80
180F80
180FC0
180FC0
FE3FF0
FE3FF0
ENDCHAR
STARTCHAR Atilde
ENCODING 195
SWIDTH 680 0
DWIDTH 20 0
BBX 20 26 0 0
BITMAP
01C200
03E700
07FE00
07FE00
063C00
000000
007000
00F800
00F800
00F800
01FC00
01FC00
017C00
037E00
037E00
023E00
063F00
063F00
041F00
0FFF80
0FFF80
180F80
180FC0
180FC0
FE3FF0
FE3FF0
ENDCHAR
STARTCHAR Adieresis
ENCODING 196
SWIDTH 680 0
DWIDTH 20 0
BBX 20 26 0 0
BITMAP
020200
0F8F00
0F8F80
0F8F80
070700
000000
007000
00F800
00F800
00F800
01FC00
01FC00
017C00
037E00
037E00
023E00
063F00
063F00
041F00
0FFF80
0FFF80
180F80
180FC0
180FC0
FE3FF0
FE3FF0
ENDCHAR
STARTCHAR Aring
ENCODING 197
SWIDTH 680 0
DWIDTH 20 0
BBX 20 27 0 0
BITMAP
007000
00F800
018C00
018C00
01D800
00F800
000000
007000
00F800
00F800
00F800
01FC00
01FC00
017C00
037E00
037E00
023E00
063F00
063F00
041F00
0FFF80
0FFF80
180F80
180FC0
180FC0
FE3FF0
FE3FF0
ENDCHAR
STARTCHAR AE
ENCODING 198
SWIDTH 880 0
DWIDTH 26 0
BBX 26 20 0 0
BITMAP
03FFFF80
03FFFF80
007FC380
006FC380
00CFC380
00CFC380
01CFC000
018FC600
038FCE00
030FFE00
030FFE00
07FFCE00
07FFC600
0C0FC000
0C0FC000
180FC1C0
180FC1C0
380FC1C0
FE3FFFC0
FE3FFFC0
ENDCHAR
STARTCHAR Ccedilla
ENCODING 199
SWIDTH 618 0
DWIDTH 19 0
BBX 17 27 1 -7
BITMAP
03FE00
0FFF80
1F8780
3F0380
7E0380
7E0380
FC0000
FC0000
FC0000
FC0000
FC0000
FC0000
FC0000
FC0000
FC0380
7E0380
7E0380
3F0380
1FC780
07FF00
00E000
006000
007800
003C00
003C00
01F800
01F000
ENDCHAR
STARTCHAR Egrave
ENCODING 200
SWIDTH 591 0
DWIDTH 18 0
BBX 16 26 1 0
BITMAP
1C00
3E00
1F80
0FC0
01C0
0000
FFFE
FFFE
3F0E
3F0E
3F06
3F07
3F00
3F18
3F18
3FF8
3FF8
3F18
3F18
3F00
3F00
3F07
3F07
3F07
FFFF
FFFF
ENDCHAR
STARTCHAR Eacute
ENCODING 201
SWIDTH 591 0
DWIDTH 18 0
BBX 16 26 1 0
BITMAP
0038
007C
01F8
03E0
0380
0000
FFFE
FFFE
3F0E
3F0E
3F06
3F07
3F00
3F18
3F18
3FF8
3FF8
3F18
3F18
3F00
3F00
3F07
3F07
3F07
FFFF
FFFF
ENDCHAR
STARTCHAR Ecircumflex
ENCODING 202
SWIDTH 591 0
DWIDTH 18 0
BBX 16 26 1 0
BITMAP
03E0
07F0
0FF0
1F78
1C1C
1004
FFFE
FFFE
3F0E
3F0E
3F06
3F07
3F00
3F18
3F18
3FF8
3FF8
3F18
3F18
3F00
3F00
3F07
3F07
3F07
FFFF
FFFF
ENDCHAR
STARTCHAR Edieresis
ENCODING 203
SWIDTH 591 0
DWIDTH 18 0
BBX 16 26 1 0
BITMAP
0808
3C3C
3E3C
3E3C
1C3C
0000
FFFE
FFFE
3F0E
3F0E
3F06
3F07
3F00
3F18
3F18
3FF8
3FF8
3F18
3F18
3F00
3F00
3F07
3F07
3F07
FFFF
FFFF
ENDCHAR
STARTCHAR Igrave
ENCODING 204
SWIDTH 395 0
DWIDTH 12 0
BBX 10 26 1 0
BITMAP
E000
F800
FC00
7E00
0E00
0000
FFC0
FFC0
3F00
3F00
3F00
3F00
3F00
3F00
3F00
3F00
3F00
3F00
3F00
3F00
3F00
3F00
3F00
3F00
FFC0
FFC0
ENDCHAR
STARTCHAR Iacute
ENCODING 205
SWIDTH 395 0
DWIDTH 12 0
BBX 10 26 1 0
BITMAP
03C0
07C0
0FC0
1F00
1C00
0000
FFC0
FFC0
3F00
3F00
3F00
3F00
3F00
3F00
3F00
3F00
3F00
3F00
3F00
3F00
3F00
3F00
3F00
3F00
FFC0
FFC0
ENDCHAR
STARTCHAR Icircumflex
ENCODING 206
SWIDTH 395 0
DWIDTH 12 0
BBX 12 26 0 0
BITMAP
0F00
1F80
3FC0
79E0
E070
4020
7FE0
7FE0
1F80
1F80
1F80
1F80
1F80
1F80
1F80
1F80
1F80
1F80
1F80
1F80
1F80
1F80
1F80
1F80
7FE0
7FE0
ENDCHAR
STARTCHAR Idieresis
ENCODING 207
SWIDTH 395 0
DWIDTH 12 0
BBX 10 26 1 0
BITMAP
4100
F3C0
F3C0
F3C0
E380
0000
FFC0
FFC0
3F00
3F00
3F00
3F00
3F00
3F00
3F00
3F00
3F00
3F00
3F00
3F00
3F00
3F00
3F00
3F00
FFC0
FFC0
ENDCHAR
STARTCHAR Eth
ENCODING 208
SWIDTH 703 0
DWIDTH 21 0
BBX 19 20 1 0
BITMAP
FF8000
FFFC00
3F3F00
3F1F80
3F0FC0
3F0FC0
3F07E0
3F07E0
3F07E0
FFE7E0
FFE7E0
3F07E0
3F07E0
3F07E0
3F07C0
3F0FC0
3F0F80
3F1F00
FFFE00
FFF000
ENDCHAR
STARTCHAR Ntilde
ENCODING 209
SWIDTH 725 0
DWIDTH 22 0
BBX 20 26 1 0
BITMAP
018200
03E600
07FE00
07FE00
0C3C00
000000
FE0FF0
FF0FF0
3F83C0
3FC180
3FC180
3FE180
37F180
37F980
33F980
31FD80
30FF80
30FF80
307F80
303F80
303F80
301F80
300F80
300780
FF0780
FF0380
ENDCHAR
STARTCHAR Ograve
ENCODING 210
SWIDTH 700 0
DWIDTH 21 0
BBX 19 27 1 -1
BITMAP
0F0000
0F8000
07C000
03E000
007000
000000
03F800
0FFE00
1F1F00
3E0F80
7E0FC0
7C07C0
FC07E0
FC07E0
FC07E0
FC07E0
FC07E0
FC07E0
FC07E0
FC07E0
7C07C0
7C0FC0
7E0FC0
3E0F80
1F1F00
07FC00
00E000
ENDCHAR
STARTCHAR Oacute
ENCODING 211
SWIDTH 700 0
DWIDTH 21 0
BBX 19 27 1 -1
BITMAP
001E00
003E00
007C00
00F800
01C000
000000
03F800
0FFE00
1F1F00
3E0F80
7E0FC0
7C07C0
FC07E0
FC07E0
FC07E0
FC07E0
FC07E0
FC07E0
FC07E0
FC07E0
7C07C0
7C0FC0
7E0FC0
3E0F80
1F1F00
07FC00
00E000
ENDCHAR
STARTCHAR Ocircumflex
ENCODING 212
SWIDTH 700 0
DWIDTH 21 0
BBX 19 27 1 -1
BITMAP
01F000
03F800
07FC00
07BC00
0E0E00
080200
03F800
0FFE00
1F1F00
3E0F80
7E0FC0
7C07C0
FC07E0
FC07E0
FC07E0
FC07E0
FC07E0
FC07E0
FC07E0
FC07E0
7C07C0
7C0FC0
7E0FC0
3E0F80
1F1F00
07FC00
00E000
ENDCHAR
STARTCHAR Otilde
ENCODING 213
SWIDTH 700 0
DWIDTH 21 0
BBX 19 27 1 -1
BITMAP
018400
07EE00
07FE00
0FFC00
0C7800
000000
03F800
0FFE00
1F1F00
3E0F80
7E0FC0
7C07C0
FC07E0
FC07E0
FC07E0
FC07E0
FC07E0
FC07E0
FC07E0
FC07E0
7C07C0
7C0FC0
7E0FC0
3E0F80
1F1F00
07FC00
00E000
ENDCHAR
STARTCHAR Odieresis
ENCODING 214
SWIDTH 700 0
DWIDTH 21 0
BBX 19 27 1 -1
BITMAP
040400
0F1E00
1F1F00
1F1F00
0E0E00
000000
03F800
0FFE00
1F1F00
3E0F80
7E0FC0
7C07C0
FC07E0
FC07E0
FC07E0
FC07E0
FC07E0
FC07E0
FC07E0
FC07E0
7C07C0
7C0FC0
7E0FC0
3E0F80
1F1F00
07FC00
00E000
ENDCHAR
STARTCHAR multiply
ENCODING 215
SWIDTH 550 0
DWIDTH 17 0
BBX 14 15 1 2
BITMAP
2008
7018
F83C
7C78
3EF0
1FE0
0FC0
07C0
0FE0
1FF0
3CF8
787C
F03C
6018
2008
ENDCHAR
STARTCHAR Oslash
ENCODING 216
SWIDTH 700 0
DWIDTH 21 0
BBX 19 22 1 -1
BITMAP
000080
03F8E0
0FFFC0
1F0F80
3E0F80
7C07C0
7C0FC0
FC1FE0
FC3FE0
FC77E0
FC77E0
FCE7E0
FDC7E0
FF87E0
FF07E0
7F07C0
7E07C0
7E0FC0
3E0F80
7F1F00
F7FC00
606000
ENDCHAR
STARTCHAR Ugrave
ENCODING 217
SWIDTH 732 0
DWIDTH 22 0
BBX 20 27 1 -1
BITMAP
03C000
03E000
03F000
00F800
003C00
000000
FFC7F0
FFC7F0
3F00C0
3F00C0
3F00C0
3F00C0
3F00C0
3F00C0
3F00C0
3F00C0
3F00C0
3F00C0
3F00C0
3F00C0
3F01C0
3F0180
3F8380
1FEF00
0FFF00
07FC00
006000
ENDCHAR
STARTCHAR Uacute
ENCODING 218
SWIDTH 732 0
DWIDTH 22 0
BBX 20 27 1 -1
BITMAP
000F00
001F00
003F00
007C00
007000
000000
FFC7F0
FFC7F0
3F00C0
3F00C0
3F00C0
3F00C0
3F00C0
3F00C0
3F00C0
3F00C0
3F00C0
3F00C0
3F00C0
3F00C0
3F01C0
3F0180
3F8380
1FEF00
0FFF00
07FC00
006000
ENDCHAR
STARTCHAR Ucircumflex
ENCODING 219
SWIDTH 732 0
DWIDTH 22 0
BBX 20 27 1 -1
BITMAP
007C00
00FE00
01FF00
01EF00
038380
020080
FFC7F0
FFC7F0
3F00C0
3F00C0
3F00C0
3F00C0
3F00C0
3F00C0
3F00C0
3F00C0
3F00C0
3F00C0
3F00C0
3F00C0
3F01C0
3F0180
3F8380
1FEF00
0FFF00
07FC00
006000
ENDCHAR
STARTCHAR Udieresis
ENCODING 220
SWIDTH 732 0
DWIDTH 22 0
BBX 20 27 1 -1
BITMAP
010100
078780
07C7C0
07C7C0
038380
000000
FFC7F0
FFC7F0
3F00C0
3F00C0
3F00C0
3F00C0
3F00C0
3F00C0
3F00C0
3F00C0
3F00C0
3F00C0
3F00C0
3F00C0
3F01C0
3F0180
3F8380
1FEF00
0FFF00
07FC00
006000
ENDCHAR
STARTCHAR Yacute
ENCODING 221
SWIDTH 621 0
DWIDTH 19 0
BBX 19 26 0 0
BITMAP
000700
000F80
003F00
007E00
007000
000000
FFC7E0
FFC7E0
3F0380
3F8300
1F8300
1FC600
0FC600
0FEC00
07EC00
07F800
03F800
03F000
03F000
03F000
03F000
03F000
03F000
03F000
0FFE00
0FFE00
ENDCHAR
STARTCHAR Thorn
ENCODING 222
SWIDTH 626 0
DWIDTH 19 0
BBX 17 20 1 0
BITMAP
FFC000
FFC000
3F0000
3F0000
3FF800
3FFE00
3F3F00
3F1F80
3F0F80
3F0F80
3F0F80
3F0F80
3F1F80
3F3F00
3FFE00
3FF800
3F0000
3F0000
FFC000
FFC000
ENDCHAR
STARTCHAR germandbls
ENCODING 223
SWIDTH 687 0
DWIDTH 21 0
BBX 19 22 1 0
BITMAP
01FC00
07FF00
1F0F80
1F07C0
3E07C0
3E07C0
7E0780
7E0F00
7E1C00
7E3800
7E7800
7EFC00
7EFF00
7E7FC0
7E7FE0
7E3FE0
7E0FE0
7E03E0
7EE1E0
7EE1E0
FEF7C0
FEFF80
ENDCHAR
STARTCHAR agrave
ENCODING 224
SWIDTH 540 0
DWIDTH 16 0
BBX 15 24 1 0
BITMAP
1000
3C00
3E00
3E00
1F00
0700
0380
0000
0000
1FE0
3FF0
79F8
F8F8
F8F8
70F8
03F8
1EF8
7CF8
F8F8
F8F8
F8F8
FDFA
FFFE
7E7C
ENDCHAR
STARTCHAR aacute
ENCODING 225
SWIDTH 540 0
DWIDTH 16 0
BBX 15 24 1 0
BITMAP
0040
00F0
01F0
01E0
03C0
0380
0700
0000
0000
1FE0
3FF0
79F8
F8F8
F8F8
70F8
03F8
1EF8
7CF8
F8F8
F8F8
F8F8
FDFA
FFFE
7E7C
ENDCHAR
STARTCHAR acircumflex
ENCODING 226
SWIDTH 540 0
DWIDTH 16 0
BBX 15 23 1 0
BITMAP
0380
07C0
0FC0
0FE0
1CF0
3838
1010
0000
1FE0
3FF0
79F8
F8F8
F8F8
70F8
03F8
1EF8
7CF8
F8F8
F8F8
F8F8
FDFA
FFFE
7E7C
ENDCHAR
STARTCHAR atilde
ENCODING 227
SWIDTH 540 0
DWIDTH 16 0
BBX 15 22 1 0
BITMAP
0E18
1FF0
3FF0
3FF0
21E0
0000
0000
1FE0
3FF0
79F8
F8F8
F8F8
70F8
03F8
1EF8
7CF8
F8F8
F8F8
F8F8
FDFA
FFFE
7E7C
ENDCHAR
STARTCHAR adieresis
ENCODING 228
SWIDTH 540 0
DWIDTH 16 0
BBX 15 22 1 0
BITMAP
3030
7C78
7CF8
7C78
3870
0000
0000
1FE0
3FF0
79F8
F8F8
F8F8
70F8
03F8
1EF8
7CF8
F8F8
F8F8
F8F8
FDFA
FFFE
7E7C
ENDCHAR
STARTCHAR aring
ENCODING 229
SWIDTH 540 0
DWIDTH 16 0
BBX 15 24 1 0
BITMAP
0780
0FC0
1CE0
1860
1860
0CE0
0FC0
0000
0000
1FE0
3FF0
79F8
F8F8
F8F8
70F8
03F8
1EF8
7CF8
F8F8
F8F8
F8F8
FDFA
FFFE
7E7C
ENDCHAR
STARTCHAR ae
ENCODING 230
SWIDTH 792 0
DWIDTH 24 0
BBX 22 15 1 0
BITMAP
1FE7E0
3FFFF0
79FC78
F9FC7C
F8FC7C
70FC7C
03FFFC
1EFFFC
7CFC00
F8FC00
F8FC00
F8FE08
FCFFFC
FFBFF8
7F1FF0
ENDCHAR
STARTCHAR ccedilla
ENCODING 231
SWIDTH 523 0
DWIDTH 16 0
BBX 14 22 1 -7
BITMAP
07E0
1FF8
3E78
7C7C
FC7C
FC38
FC00
FC00
FC00
FC00
FC00
FE08
7FFC
3FF8
1FE0
0300
0300
03C0
00E0
00E0
0FC0
0780
ENDCHAR
STARTCHAR egrave
ENCODING 232
SWIDTH 526 0
DWIDTH 16 0
BBX 14 24 1 0
BITMAP
0800
1E00
1E00
1F00
0F00
0780
01C0
0000
0000
07E0
1FF0
3C78
7C7C
FC7C
FC7C
FFFC
FFFC
FC00
FC00
FC00
FE08
7FFC
3FF8
1FF0
ENDCHAR
STARTCHAR eacute
ENCODING 233
SWIDTH 526 0
DWIDTH 16 0
BBX 14 24 1 0
BITMAP
0020
00F0
00F0
01F0
01E0
03C0
0700
0000
0000
07E0
1FF0
3C78
7C7C
FC7C
FC7C
FFFC
FFFC
FC00
FC00
FC00
FE08
7FFC
3FF8
1FF0
ENDCHAR
STARTCHAR ecircumflex
ENCODING 234
SWIDTH 526 0
DWIDTH 16 0
BBX 14 23 1 0
BITMAP
0380
07C0
07C0
0FE0
1C70
3838
1010
0000
07E0
1FF0
3C78
7C7C
FC7C
FC7C
FFFC
FFFC
FC00
FC00
FC00
FE08
7FFC
3FF8
1FF0
ENDCHAR
STARTCHAR edieresis
ENCODING 235
SWIDTH 526 0
DWIDTH 16 0
BBX 14 22 1 0
BITMAP
1838
3C7C
7C7C
7C7C
3838
0000
0000
07E0
1FF0
3C78
7C7C
FC7C
FC7C
FFFC
FFFC
FC00
FC00
FC00
FE08
7FFC
3FF8
1FF0
ENDCHAR
STARTCHAR igrave
ENCODING 236
SWIDTH 324 0
DWIDTH 10 0
BBX 9 24 0 0
BITMAP
2000
F000
F800
7800
7C00
1C00
0E00
0000
0000
0700
3F00
7F00
3F00
3F00
3F00
3F00
3F00
3F00
3F00
3F00
3F00
3F00
7F80
7F80
ENDCHAR
STARTCHAR iacute
ENCODING 237
SWIDTH 324 0
DWIDTH 10 0
BBX 9 24 1 0
BITMAP
0100
0780
0780
0F80
1F00
1E00
3800
0000
0000
0E00
7E00
FE00
7E00
7E00
7E00
7E00
7E00
7E00
7E00
7E00
7E00
7E00
FF00
FF00
ENDCHAR
STARTCHAR icircumflex
ENCODING 238
SWIDTH 324 0
DWIDTH 10 0
BBX 11 23 0 0
BITMAP
0C00
1E00
3F00
7F80
73C0
E0E0
4040
0000
0700
3F00
7F00
3F00
3F00
3F00
3F00
3F00
3F00
3F00
3F00
3F00
3F00
7F80
7F80
ENDCHAR
STARTCHAR idieresis
ENCODING 239
SWIDTH 324 0
DWIDTH 10 0
BBX 12 22 -1 0
BITMAP
30C0
79E0
FDF0
79E0
78E0
0000
0000
0380
1F80
3F80
1F80
1F80
1F80
1F80
1F80
1F80
1F80
1F80
1F80
1F80
3FC0
3FC0
ENDCHAR
STARTCHAR eth
ENCODING 240
SWIDTH 558 0
DWIDTH 17 0
BBX 15 22 1 0
BITMAP
1008
3E3C
1FF8
07C0
1FE0
3DF0
30F8
03F8
1FFC
3EFC
7C7E
FC7E
FC7E
FC7E
FC7E
FC7E
FC7E
FC7C
FC7C
7C78
3EF8
1FE0
ENDCHAR
STARTCHAR ntilde
ENCODING 241
SWIDTH 620 0
DWIDTH 19 0
BBX 18 22 0 0
BITMAP
038600
07EE00
0FFC00
0FFC00
083800
000000
000000
073E00
3FFF00
FFFF00
3F1F80
3F1F80
3F1F80
3F1F80
3F1F80
3F1F80
3F1F80
3F1F80
3F1F80
3F1F80
7FBFC0
7FBFC0
ENDCHAR
STARTCHAR ograve
ENCODING 242
SWIDTH 572 0
DWIDTH 17 0
BBX 16 24 1 0
BITMAP
0800
1C00
1E00
1F00
0F00
0780
0180
0000
0000
0FE0
1FF8
7C7C
7C7C
FC7E
FC7E
FC7E
FC7F
FC7E
FC7E
FC7E
FC7E
7C7C
3EF8
1FF0
ENDCHAR
STARTCHAR oacute
ENCODING 243
SWIDTH 572 0
DWIDTH 17 0
BBX 16 24 1 0
BITMAP
0020
0078
00F8
00F0
01F0
01C0
0380
0000
0000
0FE0
1FF8
7C7C
7C7C
FC7E
FC7E
FC7E
FC7F
FC7E
FC7E
FC7E
FC7E
7C7C
3EF8
1FF0
ENDCHAR
STARTCHAR ocircumflex
ENCODING 244
SWIDTH 572 0
DWIDTH 17 0
BBX 16 23 1 0
BITMAP
0380
07C0
07E0
0FE0
1C70
3838
1010
0000
0FE0
1FF8
7C7C
7C7C
FC7E
FC7E
FC7E
FC7F
FC7E
FC7E
FC7E
FC7E
7C7C
3EF8
1FF0
ENDCHAR
STARTCHAR otilde
ENCODING 245
SWIDTH 572 0
DWIDTH 17 0
BBX 16 22 1 0
BITMAP
0E18
1FF8
3FF8
3BF0
30E0
0000
0000
0FE0
1FF8
7C7C
7C7C
FC7E
FC7E
FC7E
FC7F
FC7E
FC7E
FC7E
FC7E
7C7C
3EF8
1FF0
ENDCHAR
STARTCHAR odieresis
ENCODING 246
SWIDTH 572 0
DWIDTH 17 0
BBX 16 22 1 0
BITMAP
1838
3C7C
7C7C
7C7C
3838
0000
0000
0FE0
1FF8
7C7C
7C7C
FC7E
FC7E
FC7E
FC7F
FC7E
FC7E
FC7E
FC7E
7C7C
3EF8
1FF0
ENDCHAR
STARTCHAR divide
ENCODING 247
SWIDTH 550 0
DWIDTH 17 0
BBX 15 15 1 2
BITMAP
0380
07C0
0780
0380
0000
0000
FFFE
FFFE
FFFE
0000
0000
0780
07C0
0780
0380
ENDCHAR
STARTCHAR oslash
ENCODING 248
SWIDTH 572 0
DWIDTH 17 0
BBX 16 17 1 -1
BITMAP
0004
0FEE
1FFC
7C7C
7C7C
FC7E
F8FE
F9FE
FBBF
FB3E
FE3E
FE3E
FC7E
7C7C
3EF8
7FF0
6000
ENDCHAR
STARTCHAR ugrave
ENCODING 249
SWIDTH 617 0
DWIDTH 19 0
BBX 17 24 1 0
BITMAP
040000
0E0000
0F0000
0F8000
078000
03C000
00C000
000000
000000
1E0700
FE7F00
FE7F00
7E3F00
7E3F00
7E3F00
7E3F00
7E3F00
7E3F00
7E3F00
7E3F00
7E3F00
7FFF00
3FFF80
3F3F80
ENDCHAR
STARTCHAR uacute
ENCODING 250
SWIDTH 617 0
DWIDTH 19 0
BBX 17 24 1 0
BITMAP
002000
007000
00F800
00F000
01E000
03C000
038000
000000
000000
1E0700
FE7F00
FE7F00
7E3F00
7E3F00
7E3F00
7E3F00
7E3F00
7E3F00
7E3F00
7E3F00
7E3F00
7FFF00
3FFF80
3F3F80
ENDCHAR
STARTCHAR ucircumflex
ENCODING 251
SWIDTH 617 0
DWIDTH 19 0
BBX 17 23 1 0
BITMAP
01C000
03E000
03E000
07F000
0E3800
1C1C00
080800
000000
1E0700
FE7F00
FE7F00
7E3F00
7E3F00
7E3F00
7E3F00
7E3F00
7E3F00
7E3F00
7E3F00
7E3F00
7FFF00
3FFF80
3F3F80
ENDCHAR
STARTCHAR udieresis
ENCODING 252
SWIDTH 617 0
DWIDTH 19 0
BBX 17 22 1 0
BITMAP
0C1800
3E3E00
3E3E00
3E3E00
1C1C00
000000
000000
1E0700
FE7F00
FE7F00
7E3F00
7E3F00
7E3F00
7E3F00
7E3F00
7E3F00
7E3F00
7E3F00
7E3F00
7FFF00
3FFF80
3F3F80
ENDCHAR
STARTCHAR yacute
ENCODING 253
SWIDTH 543 0
DWIDTH 16 0
BBX 16 31 0 -7
BITMAP
0004
001E
003E
003E
007C
0070
00E0
0000
0000
FF9F
FF9F
7E0C
3F0C
3F18
1F18
1F98
0FB0
0FB0
0FE0
07E0
07E0
03C0
03C0
01C0
0180
0180
3100
FB00
FE00
FE00
7800
ENDCHAR
STARTCHAR thorn
ENCODING 254
SWIDTH 623 0
DWIDTH 19 0
BBX 17 29 1 -7
BITMAP
020000
7E0000
FE0000
7E0000
7E0000
7E0000
7E0000
7EFC00
7FFE00
7FFF00
7E3F00
7E1F80
7E1F80
7E1F80
7E1F80
7E1F80
7E1F80
7E1F80
7E3F00
7F7F00
7FFE00
7FFC00
7E0000
7E0000
7E0000
7E0000
7E0000
FF0000
FF0000
ENDCHAR
STARTCHAR ydieresis
ENCODING 255
SWIDTH 543 0
DWIDTH 16 0
BBX 16 29 0 -7
BITMAP
0606
0F1F
0F9F
0F1F
070E
0000
0000
FF9F
FF9F
7E0C
3F0C
3F18
1F18
1F98
0FB0
0FB0
0FE0
07E0
07E0
03C0
03C0
01C0
0180
0180
3100
FB00
FE00
FE00
7800
ENDCHAR
STARTCHAR Amacron
ENCODING 256
SWIDTH 680 0
DWIDTH 20 0
BBX 20 25 0 0
BITMAP
07FE00
07FE00
07FE00
000000
000000
007000
00F800
00F800
00F800
01FC00
01FC00
017C00
037E00
037E00
023E00
063F00
063F00
041F00
0FFF80
0FFF80
180F80
180FC0
180FC0
FE3FF0
FE3FF0
ENDCHAR
STARTCHAR amacron
ENCODING 257
SWIDTH 540 0
DWIDTH 16 0
BBX 15 20 1 0
BITMAP
3FF0
3FF0
3FF0
0000
0000
1FE0
3FF0
79F8
F8F8
F8F8
70F8
03F8
1EF8
7CF8
F8F8
F8F8
F8F8
FDFA
FFFE
7E7C
ENDCHAR
STARTCHAR Abreve
ENCODING 258
SWIDTH 680 0
DWIDTH 20 0
BBX 20 26 0 0
BITMAP
020200
070700
03FE00
03FC00
00F800
000000
007000
00F800
00F800
00F800
01FC00
01FC00
017C00
037E00
037E00
023E00
063F00
063F00
041F00
0FFF80
0FFF80
180F80
180FC0
180FC0
FE3FF0
FE3FF0
ENDCHAR
STARTCHAR abreve
ENCODING 259
SWIDTH 540 0
DWIDTH 16 0
BBX 15 22 1 0
BITMAP
3030
3870
1FF0
1FE0
0FC0
0000
0000
1FE0
3FF0
79F8
F8F8
F8F8
70F8
03F8
1EF8
7CF8
F8F8
F8F8
F8F8
FDFA
FFFE
7E7C
ENDCHAR
STARTCHAR Aogonek
ENCODING 260
SWIDTH 680 0
DWIDTH 20 0
BBX 20 27 0 -7
BITMAP
007000
00F800
00F800
00F800
01FC00
01FC00
017C00
037E00
037E00
023E00
063F00
063F00
041F00
0FFF80
0FFF80
180F80
180FC0
180FC0
FE3FF0
FE3FF0
000180
000700
000700
000F80
0007F0
0007F0
0003C0
ENDCHAR
STARTCHAR aogonek
ENCODING 261
SWIDTH 540 0
DWIDTH 16 0
BBX 16 22 1 -7
BITMAP
1FE0
3FF0
79F8
F9F8
F8F8
70F8
03F8
1EF8
7CF8
F8F8
F8F8
F8F8
FDFA
FFFE
7E7C
0018
0030
0070
0078
007F
007F
003C
ENDCHAR
STARTCHAR Cacute
ENCODING 262
SWIDTH 618 0
DWIDTH 19 0
BBX 17 27 1 -1
BITMAP
000F00
001F00
003F00
007C00
00F000
000000
03FE00
0FFF80
1F8780
3F0380
7E0380
7E0380
FC0000
FC0000
FC0000
FC0000
FC0000
FC0000
FC0000
FC0000
FC0380
7E0380
7E0380
3F0380
1FC780
07FF00
00E000
ENDCHAR
STARTCHAR cacute
ENCODING 263
SWIDTH 523 0
DWIDTH 16 0
BBX 14 24 1 0
BITMAP
0020
00F0
00F0
01F0
03E0
0380
0700
0000
0000
07E0
1FF8
3E78
7C7C
FC7C
FC38
FC00
FC00
FC00
FC00
FC00
FE08
7FFC
3FF8
1FE0
ENDCHAR
STARTCHAR Ccircumflex
ENCODING 264
SWIDTH 618 0
DWIDTH 19 0
BBX 17 27 1 -1
BITMAP
00F000
01F800
03FC00
079E00
0E0700
040200
03FE00
0FFF80
1F8780
3F0380
7E0380
7E0380
FC0000
FC0000
FC0000
FC0000
FC0000
FC0000
FC0000
FC0000
FC0380
7E0380
7E0380
3F0380
1FC780
07FF00
00E000
ENDCHAR
STARTCHAR ccircumflex
ENCODING 265
SWIDTH 523 0
DWIDTH 16 0
BBX 14 23 1 0
BITMAP
0180
03C0
07E0
0FF0
0E78
1C18
1008
0000
07E0
1FF8
3E78
7C7C
FC7C
FC38
FC00
FC00
FC00
FC00
FC00
FE08
7FFC
3FF8
1FE0
ENDCHAR
STARTCHAR Cdotaccent
ENCODING 266
SWIDTH 618 0
DWIDTH 19 0
BBX 17 27 1 -1
BITMAP
00F000
00F800
01F800
00F800
00F000
000000
03FE00
0FFF80
1F8780
3F0380
7E0380
7E0380
FC0000
FC0000
FC0000
FC0000
FC0000
FC0000
FC0000
FC0000
FC0380
7E0380
7E0380
3F0380
1FC780
07FF00
00E000
ENDCHAR
STARTCHAR cdotaccent
ENCODING 267
SWIDTH 523 0
DWIDTH 16 0
BBX 14 22 1 0
BITMAP
01C0
03E0
03E0
03E0
01C0
0000
0000
07E0
1FF8
3E78
7C7C
FC7C
FC38
FC00
FC00
FC00
FC00
FC00
FE08
7FFC
3FF8
1FE0
ENDCHAR
STARTCHAR Ccaron
ENCODING 268
SWIDTH 618 0
DWIDTH 19 0
BBX 17 28 1 -1
BITMAP
020200
070700
03DE00
01FC00
00F800
00F000
000000
03FE00
0FFF80
1F8780
3F0380
7E0380
7E0380
FC0000
FC0000
FC0000
FC0000
FC0000
FC0000
FC0000
FC0000
FC0380
7E0380
7E0380
3F0380
1FC780
07FF00
00E000
ENDCHAR
STARTCHAR ccaron
ENCODING 269
SWIDTH 523 0
DWIDTH 16 0
BBX 14 23 1 0
BITMAP
1818
1E38
0FF0
07E0
03E0
03C0
0000
0000
07E0
1FF8
3E78
7C7C
FC7C
FC38
FC00
FC00
FC00
FC00
FC00
FE08
7FFC
3FF8
1FE0
ENDCHAR
STARTCHAR Dcaron
ENCODING 270
SWIDTH 703 0
DWIDTH 21 0
BBX 19 27 1 0
BITMAP
080400
1E1C00
0F3800
07F800
03F000
01E000
000000
FF8000
FFFC00
3F3F00
3F1F80
3F0FC0
3F0FC0
3F07E0
3F07E0
3F07E0
3F07E0
3F07E0
3F07E0
3F07E0
3F07E0
3F07C0
3F0FC0
3F0F80
3F1F00
FFFE00
FFF000
ENDCHAR
STARTCHAR dcaron
ENCODING 271
SWIDTH 615 0
DWIDTH 18 0
BBX 20 22 1 0
BITMAP
000270
007E70
00FE70
003E70
003E70
003E60
003E60
0FBE00
3FFE00
7FFE00
7E3E00
FC3E00
FC3E00
FC3E00
FC3E00
FC3E00
FC3E00
FC3E00
FE3E00
7FFE00
7FFF00
3FBF00
ENDCHAR
STARTCHAR Dcroat
ENCODING 272
SWIDTH 703 0
DWIDTH 21 0
BBX 19 20 1 0
BITMAP
FF8000
FFFC00
3F3F00
3F1F80
3F0FC0
3F0FC0
3F07E0
3F07E0
3F07E0
FFE7E0
FFE7E0
3F07E0
3F07E0
3F07E0
3F07C0
3F0FC0
3F0F80
3F1F00
FFFE00
FFF000
ENDCHAR
STARTCHAR dcroat
ENCODING 273
SWIDTH 605 0
DWIDTH 18 0
BBX 17 22 1 0
BITMAP
000200
007E00
00FE00
003E00
07FF80
07FF80
003E00
023E00
1FFE00
3FFE00
7F7E00
FC3E00
FC3E00
FC3E00
FC3E00
FC3E00
FC3E00
FC3E00
FE3E00
7FFE00
7FFF00
3FBF00
ENDCHAR
STARTCHAR Emacron
ENCODING 274
SWIDTH 591 0
DWIDTH 18 0
BBX 16 25 1 0
BITMAP
1FF8
1FF8
1FF8
0000
0000
FFFE
FFFE
3F0E
3F0E
3F06
3F07
3F00
3F18
3F18
3FF8
3FF8
3F18
3F18
3F00
3F00
3F07
3F07
3F07
FFFF
FFFF
ENDCHAR
STARTCHAR emacron
ENCODING 275
SWIDTH 526 0
DWIDTH 16 0
BBX 14 20 1 0
BITMAP
3FF8
3FF8
3FF8
0000
0000
07E0
1FF0
3C78
7C7C
FC7C
FC7C
FFFC
FFFC
FC00
FC00
FC00
FE08
7FFC
3FF8
1FF0
ENDCHAR
STARTCHAR Ebreve
ENCODING 276
SWIDTH 591 0
DWIDTH 18 0
BBX 16 26 1 0
BITMAP
0810
1C18
0FF8
0FF0
07E0
0000
FFFE
FFFE
3F0E
3F0E
3F06
3F07
3F00
3F18
3F18
3FF8
3FF8
3F18
3F18
3F00
3F00
3F07
3F07
3F07
FFFF
FFFF
ENDCHAR
STARTCHAR ebreve
ENCODING 277
SWIDTH 526 0
DWIDTH 16 0
BBX 14 22 1 0
BITMAP
3030
3870
1FF0
1FE0
07C0
0000
0000
07E0
1FF0
3C78
7C7C
FC7C
FC7C
FFFC
FFFC
FC00
FC00
FC00
FE08
7FFC
3FF8
1FF0
ENDCHAR
STARTCHAR Edotaccent
ENCODING 278
SWIDTH 591 0
DWIDTH 18 0
BBX 16 26 1 0
BITMAP
01C0
03E0
03E0
03E0
01C0
0000
FFFE
FFFE
3F0E
3F0E
3F06
3F07
3F00
3F18
3F18
3FF8
3FF8
3F18
3F18
3F00
3F00
3F07
3F07
3F07
FFFF
FFFF
ENDCHAR
STARTCHAR edotaccent
ENCODING 279
SWIDTH 526 0
DWIDTH 16 0
BBX 14 22 1 0
BITMAP
0380
07C0
07E0
07C0
03C0
0000
0000
07E0
1FF0
3C78
7C7C
FC7C
FC7C
FFFC
FFFC
FC00
FC00
FC00
FE08
7FFC
3FF8
1FF0
ENDCHAR
STARTCHAR Eogonek
ENCODING 280
SWIDTH 591 0
DWIDTH 18 0
BBX 17 27 1 -7
BITMAP
FFFE00
FFFE00
3F0E00
3F0E00
3F0600
3F0700
3F0000
3F1800
3F1800
3FF800
3FF800
3F1800
3F1800
3F0000
3F0000
3F0700
3F0700
3F0700
FFFF00
FFFF00
001800
003800
007800
007800
007F80
003F80
001E00
ENDCHAR
STARTCHAR eogonek
ENCODING 281
SWIDTH 526 0
DWIDTH 16 0
BBX 14 22 1 -7
BITMAP
07E0
1FF0
3C78
7C7C
FC7C
FC7C
FFFC
FFFC
FC00
FC00
FC00
7E08
7FFC
3FF8
1FF0
00C0
01C0
03C0
03C0
03FC
03FC
00E0
ENDCHAR
STARTCHAR Ecaron
ENCODING 282
SWIDTH 591 0
DWIDTH 18 0
BBX 16 27 1 0
BITMAP
1008
1C1C
0E78
07F0
07E0
03C0
0000
FFFE
FFFE
3F0E
3F0E
3F06
3F07
3F00
3F18
3F18
3FF8
3FF8
3F18
3F18
3F00
3F00
3F07
3F07
3F07
FFFF
FFFF
ENDCHAR
STARTCHAR ecaron
ENCODING 283
SWIDTH 526 0
DWIDTH 16 0
BBX 14 23 1 0
BITMAP
3838
1C70
0EE0
0FE0
07C0
0380
0000
0000
07E0
1FF0
3C78
7C7C
FC7C
FC7C
FFFC
FFFC
FC00
FC00
FC00
FE08
7FFC
3FF8
1FF0
ENDCHAR
STARTCHAR Gcircumflex
ENCODING 284
SWIDTH 672 0
DWIDTH 20 0
BBX 19 27 1 -1
BITMAP
00F000
01F800
03FC00
079E00
0E0700
040200
03FE00
0FFF80
1F8780
3F0380
7E0380
7E0380
FC0000
FC0000
FC0000
FC0000
FC7FE0
FC7FE0
FC0F80
FC0F80
7E0F80
7E0F80
3E0F80
3F0F80
1FCF80
07FF00
006000
ENDCHAR
STARTCHAR gcircumflex
ENCODING 285
SWIDTH 553 0
DWIDTH 17 0
BBX 16 30 0 -7
BITMAP
0380
03C0
07E0
0FE0
1E70
3838
1010
0000
0FE3
3EFF
7C7F
7C7C
7C7C
7C7C
7C7C
3E78
1FF0
3000
3000
7FF0
7FFE
7FFE
7FFF
3FFF
601F
E00F
F01E
787C
7FF8
0F80
ENDCHAR
STARTCHAR Gbreve
ENCODING 286
SWIDTH 672 0
DWIDTH 20 0
BBX 19 27 1 -1
BITMAP
020200
070600
03FE00
03FC00
00F800
000000
03FE00
0FFF80
1F8780
3F0380
7E0380
7E0380
FC0000
FC0000
FC0000
FC0000
FC7FE0
FC7FE0
FC0F80
FC0F80
7E0F80
7E0F80
3E0F80
3F0F80
1FCF80
07FF00
006000
ENDCHAR
STARTCHAR gbreve
ENCODING 287
SWIDTH 553 0
DWIDTH 17 0
BBX 16 29 0 -7
BITMAP
1818
1C38
1FF0
0FF0
07C0
0000
0000
0FE3
3EFF
7C7F
7C7C
7C7C
7C7C
7C7C
3E78
1FF0
3000
3000
7FF0
7FFE
7FFE
7FFF
3FFF
601F
E00F
F01E
787C
7FF8
0F80
ENDCHAR
STARTCHAR Gdotaccent
ENCODING 288
SWIDTH 672 0
DWIDTH 20 0
BBX 19 27 1 -1
BITMAP
00F000
00F800
00F800
00F800
007000
000000
03FE00
0FFF80
1F8780
3F0380
7E0380
7E0380
FC0000
FC0000
FC0000
FC0000
FC7FE0
FC7FE0
FC0F80
FC0F80
7E0F80
7E0F80
3E0F80
3F0F80
1FCF80
07FF00
006000
ENDCHAR
STARTCHAR gdotaccent
ENCODING 289
SWIDTH 553 0
DWIDTH 17 0
BBX 16 29 0 -7
BITMAP
0380
07C0
07C0
07C0
03C0
0000
0000
0FE3
3EFF
7C7F
7C7C
7C7C
7C7C
7C7C
3E78
1FF0
3000
3000
7FF0
7FFE
7FFE
7FFF
3FFF
601F
E00F
F01E
787C
7FF8
0F80
ENDCHAR
STARTCHAR uni0122
ENCODING 290
SWIDTH 672 0
DWIDTH 20 0
BBX 19 28 1 -8
BITMAP
03FE00
0FFF80
1F8780
3F0380
7E0380
7E0380
FC0000
FC0000
FC0000
FC0000
FC7FE0
FC7FE0
FC0F80
FC0F80
7E0F80
7E0F80
3E0F80
3F0F80
1FCF80
07FF00
006000
000000
007800
007C00
007C00
003800
007000
00E000
ENDCHAR
STARTCHAR uni0123
ENCODING 291
SWIDTH 553 0
DWIDTH 17 0
BBX 16 31 0 -7
BITMAP
0040
01C0
0380
07C0
07C0
07C0
0380
0000
0000
0FE3
3EFF
7C7F
7C7C
7C7C
7C7C
7C7C
3E78
1FF0
3000
3000
7FF0
7FFE
7FFE
7FFF
3FFF
601F
E00F
F01E
787C
7FF8
0F80
ENDCHAR
STARTCHAR Hcircumflex
ENCODING 292
SWIDTH 756 0
DWIDTH 23 0
BBX 21 26 1 0
BITMAP
00F000
01F800
03FC00
07DE00
0F0700
040100
FFDFF8
FFDFF8
3F07E0
3F07E0
3F07E0
3F07E0
3F07E0
3F07E0
3F07E0
3FFFE0
3FFFE0
3F07E0
3F07E0
3F07E0
3F07E0
3F07E0
3F07E0
3F07E0
FFDFF8
FFDFF8
ENDCHAR
STARTCHAR hcircumflex
ENCODING 293
SWIDTH 624 0
DWIDTH 19 0
BBX 17 28 1 0
BITMAP
03E000
07F000
0FF000
1F7800
1C1C00
100400
020000
7E0000
FE0000
7E0000
7E0000
7E0000
7E0000
7E7C00
7EFE00
7FFE00
7F3F00
7E3F00
7E3F00
7E3F00
7E3F00
7E3F00
7E3F00
7E3F00
7E3F00
7E3F00
FF7F80
FF7F80
ENDCHAR
STARTCHAR Hbar
ENCODING 294
SWIDTH 756 0
DWIDTH 23 0
BBX 21 20 1 0
BITMAP
FFDFF8
FFDFF8
3F07E0
3F07E0
3F07E0
FFFFF8
FFFFF8
3F07E0
3F07E0
3F07E0
3FFFE0
3FFFE0
3F07E0
3F07E0
3F07E0
3F07E0
3F07E0
3F07E0
FFDFF8
FFDFF8
ENDCHAR
STARTCHAR hbar
ENCODING 295
SWIDTH 624 0
DWIDTH 19 0
BBX 17 22 1 0
BITMAP
020000
7E0000
FE0000
7E0000
7E0000
FFE000
7E0000
7E0000
7EFC00
7FFE00
7FFF00
7E3F00
7E3F00
7E3F00
7E3F00
7E3F00
7E3F00
7E3F00
7E3F00
7E3F00
FF7F80
FF7F80
ENDCHAR
STARTCHAR Itilde
ENCODING 296
SWIDTH 395 0
DWIDTH 12 0
BBX 11 26 0 0
BITMAP
1820
3E60
7FE0
7FE0
C3C0
0000
7FE0
7FE0
1F80
1F80
1F80
1F80
1F80
1F80
1F80
1F80
1F80
1F80
1F80
1F80
1F80
1F80
1F80
1F80
7FE0
7FE0
ENDCHAR
STARTCHAR itilde
ENCODING 297
SWIDTH 324 0
DWIDTH 10 0
BBX 11 22 -1 0
BITMAP
3C20
7FE0
7FE0
EFC0
4380
0000
0000
0380
1F80
3F80
1F80
1F80
1F80
1F80
1F80
1F80
1F80
1F80
1F80
1F80
3FC0
3FC0
ENDCHAR
STARTCHAR Imacron
ENCODING 298
SWIDTH 395 0
DWIDTH 12 0
BBX 10 25 1 0
BITMAP
FFC0
FFC0
FFC0
0000
0000
FFC0
FFC0
3F00
3F00
3F00
3F00
3F00
3F00
3F00
3F00
3F00
3F00
3F00
3F00
3F00
3F00
3F00
3F00
FFC0
FFC0
ENDCHAR
STARTCHAR imacron
ENCODING 299
SWIDTH 324 0
DWIDTH 10 0
BBX 10 20 0 0
BITMAP
FFC0
FFC0
FFC0
0000
0000
0700
3F00
7F00
3F00
3F00
3F00
3F00
3F00
3F00
3F00
3F00
3F00
3F00
7F80
7F80
ENDCHAR
STARTCHAR Iogonek
ENCODING 302
SWIDTH 395 0
DWIDTH 12 0
BBX 11 27 1 -7
BITMAP
FFC0
FFC0
3F00
3F00
3F00
3F00
3F00
3F00
3F00
3F00
3F00
3F00
3F00
3F00
3F00
3F00
3F00
3F00
FFC0
FFC0
0600
0E00
1E00
1E00
1FE0
0FE0
0780
ENDCHAR
STARTCHAR iogonek
ENCODING 303
SWIDTH 324 0
DWIDTH 10 0
BBX 9 29 1 -7
BITMAP
3C00
7E00
7E00
7E00
3C00
0000
0000
0E00
7E00
FE00
7E00
7E00
7E00
7E00
7E00
7E00
7E00
7E00
7E00
7E00
FF00
FF00
1800
3800
7800
7800
7F80
3F80
1E00
ENDCHAR
STARTCHAR Idotaccent
ENCODING 304
SWIDTH 395 0
DWIDTH 12 0
BBX 10 26 1 0
BITMAP
1E00
3F00
3F00
3F00
1E00
0000
FFC0
FFC0
3F00
3F00
3F00
3F00
3F00
3F00
3F00
3F00
3F00
3F00
3F00
3F00
3F00
3F00
3F00
3F00
FFC0
FFC0
ENDCHAR
STARTCHAR dotlessi
ENCODING 305
SWIDTH 324 0
DWIDTH 10 0
BBX 8 15 1 0
BITMAP
0E
7E
FE
7E
7E
7E
7E
7E
7E
7E
7E
7E
7E
FF
FF
ENDCHAR
STARTCHAR Jcircumflex
ENCODING 308
SWIDTH 404 0
DWIDTH 12 0
BBX 15 31 -3 -5
BITMAP
01E0
03F0
07F8
0F3C
1C0E
0804
0FFC
0FFC
03F0
03F0
03F0
03F0
03F0
03F0
03F0
03F0
03F0
03F0
03F0
03F0
03F0
03F0
03F0
03F0
03F0
03E0
03E0
73E0
FBC0
FF80
7E00
ENDCHAR
STARTCHAR jcircumflex
ENCODING 309
SWIDTH 320 0
DWIDTH 10 0
BBX 14 30 -4 -7
BITMAP
00C0
01E0
03F0
07F8
0F38
1C1C
0808
0000
0070
03F0
0FF0
03F0
03F0
03F0
03F0
03F0
03F0
03F0
03F0
03F0
03F0
03F0
03F0
03F0
03F0
33E0
FBE0
FFC0
7F80
3E00
ENDCHAR
STARTCHAR uni0136
ENCODING 310
SWIDTH 708 0
DWIDTH 21 0
BBX 20 28 1 -8
BITMAP
FFCFE0
FFCFE0
3F0780
3F0600
3F0E00
3F1C00
3F1800
3F3800
3F7800
3FFC00
3FFE00
3FFE00
3F7F00
3F3F00
3F3F80
3F1F80
3F1FC0
3F0FC0
FF9FF0
FF9FF0
000000
000000
00F000
00F800
00F800
007000
00E000
01C000
ENDCHAR
STARTCHAR uni0137
ENCODING 311
SWIDTH 619 0
DWIDTH 19 0
BBX 18 30 1 -8
BITMAP
020000
7E0000
FE0000
7E0000
7E0000
7E0000
7E0000
7E7F80
7E7F80
7E1C00
7E3800
7E7000
7EF000
7FF800
7FF800
7EFC00
7EFC00
7E7E00
7E7E00
7E3E00
FF3FC0
FF3FC0
000000
000000
01E000
03E000
01E000
01E000
01C000
038000
ENDCHAR
STARTCHAR kgreenlandic
ENCODING 312
SWIDTH 615 0
DWIDTH 18 0
BBX 18 15 0 0
BITMAP
071FC0
3F1FC0
FF0E00
3F1800
3F3800
3F7800
3FFC00
3FFC00
3F7C00
3F7E00
3F3E00
3F3F00
3F3F00
7F9FC0
7F9FC0
ENDCHAR
STARTCHAR Lacute
ENCODING 313
SWIDTH 574 0
DWIDTH 17 0
BBX 16 26 1 0
BITMAP
00F0
01F0
03F0
07C0
0700
0000
FFC0
FFC0
3F00
3F00
3F00
3F00
3F00
3F00
3F00
3F00
3F00
3F00
3F00
3F00
3F07
3F07
3F07
3F07
FFFF
FFFF
ENDCHAR
STARTCHAR lacute
ENCODING 314
SWIDTH 334 0
DWIDTH 10 0
BBX 10 27 1 0
BITMAP
03C0
07C0
0FC0
1F00
3C00
0200
7E00
FE00
7E00
7E00
7E00
7E00
7E00
7E00
7E00
7E00
7E00
7E00
7E00
7E00
7E00
7E00
7E00
7E00
7E00
FF00
FF00
ENDCHAR
STARTCHAR uni013B
ENCODING 315
SWIDTH 574 0
DWIDTH 17 0
BBX 16 28 1 -8
BITMAP
FFC0
FFC0
3F00
3F00
3F00
3F00
3F00
3F00
3F00
3F00
3F00
3F00
3F00
3F00
3F07
3F07
3F07
3F07
FFFF
FFFF
0000
0000
03C0
03E0
03C0
01C0
0380
0700
ENDCHAR
STARTCHAR uni013C
ENCODING 316
SWIDTH 334 0
DWIDTH 10 0
BBX 8 30 1 -8
BITMAP
02
7E
FE
7E
7E
7E
7E
7E
7E
7E
7E
7E
7E
7E
7E
7E
7E
7E
7E
7E
FF
FF
00
00
3C
7C
3C
3C
38
70
ENDCHAR
STARTCHAR Lcaron
ENCODING 317
SWIDTH 574 0
DWIDTH 17 0
BBX 16 21 1 0
BITMAP
0007
FFC7
FFC7
3F06
3F0E
3F0C
3F00
3F00
3F00
3F00
3F00
3F00
3F00
3F00
3F00
3F07
3F07
3F07
3F07
FFFF
FFFF
ENDCHAR
STARTCHAR lcaron
ENCODING 318
SWIDTH 334 0
DWIDTH 10 0
BBX 12 22 1 0
BITMAP
0270
7E70
FE70
7E70
7EE0
7EE0
7EC0
7E00
7E00
7E00
7E00
7E00
7E00
7E00
7E00
7E00
7E00
7E00
7E00
7E00
FF00
FF00
ENDCHAR
STARTCHAR Ldot
ENCODING 319
SWIDTH 574 0
DWIDTH 17 0
BBX 16 20 1 0
BITMAP
FFC0
FFC0
3F00
3F00
3F00
3F1F
3F1F
3F1F
3F1F
3F1F
3F00
3F00
3F00
3F00
3F07
3F07
3F07
3F07
FFFF
FFFF
ENDCHAR
STARTCHAR ldot
ENCODING 320
SWIDTH 432 0
DWIDTH 13 0
BBX 13 22 1 0
BITMAP
0200
7E00
FE00
7E00
7E00
7E00
7E00
7E00
7EF8
7EF8
7EF8
7EF8
7EF8
7E00
7E00
7E00
7E00
7E00
7E00
7E00
FF00
FF00
ENDCHAR
STARTCHAR Lslash
ENCODING 321
SWIDTH 574 0
DWIDTH 17 0
BBX 16 20 1 0
BITMAP
FFC0
FFC0
3F00
3F00
3F00
3F00
3F20
3FE0
3FE0
3F80
3F00
FF00
FF00
BF00
3F07
3F07
3F07
3F07
FFFF
FFFF
ENDCHAR
STARTCHAR lslash
ENCODING 322
SWIDTH 334 0
DWIDTH 10 0
BBX 10 22 0 0
BITMAP
0100
3F00
7F00
3F00
3F00
3F00
3F00
3F40
3FC0
3FC0
3F80
3F00
FF00
FF00
BF00
3F00
3F00
3F00
3F00
3F00
7F80
7F80
ENDCHAR
STARTCHAR Nacute
ENCODING 323
SWIDTH 725 0
DWIDTH 22 0
BBX 20 26 1 0
BITMAP
001E00
003E00
007E00
00F800
01E000
000000
FE0FF0
FF0FF0
3F83C0
3FC180
3FC180
3FE180
37F180
37F980
33F980
31FD80
30FF80
30FF80
307F80
303F80
303F80
301F80
300F80
300780
FF0780
FF0380
ENDCHAR
STARTCHAR nacute
ENCODING 324
SWIDTH 620 0
DWIDTH 19 0
BBX 18 24 0 0
BITMAP
000400
000E00
001E00
003E00
003C00
007800
006000
000000
000000
073E00
3FFF00
FFFF00
3F1F80
3F1F80
3F1F80
3F1F80
3F1F80
3F1F80
3F1F80
3F1F80
3F1F80
3F1F80
7FBFC0
7FBFC0
ENDCHAR
STARTCHAR uni0145
ENCODING 325
SWIDTH 725 0
DWIDTH 22 0
BBX 20 28 1 -8
BITMAP
FE0FF0
FF0FF0
3F83C0
3FC180
3FC180
3FE180
37F180
37F980
33F980
31FD80
30FF80
30FF80
307F80
303F80
303F80
301F80
300F80
300780
FF0780
FF0380
000000
000000
00F800
00F800
00F800
007000
007000
00C000
ENDCHAR
STARTCHAR uni0146
ENCODING 326
SWIDTH 620 0
DWIDTH 19 0
BBX 18 23 0 -8
BITMAP
073E00
3FFF00
FFFF00
3F1F80
3F1F80
3F1F80
3F1F80
3F1F80
3F1F80
3F1F80
3F1F80
3F1F80
3F1F80
7FBFC0
7FBFC0
000000
000000
01E000
01F000
01F000
00E000
00C000
038000
ENDCHAR
STARTCHAR Ncaron
ENCODING 327
SWIDTH 725 0
DWIDTH 22 0
BBX 20 27 1 0
BITMAP
040200
0E0E00
079C00
03FC00
01F800
00F000
000000
FE0FF0
FF0FF0
3F83C0
3FC180
3FC180
3FE180
37F180
37F980
33F980
31FD80
30FF80
30FF80
307F80
303F80
303F80
301F80
300F80
300780
FF0780
FF0380
ENDCHAR
STARTCHAR ncaron
ENCODING 328
SWIDTH 620 0
DWIDTH 19 0
BBX 18 23 0 0
BITMAP
060600
071E00
03FC00
01F800
01F000
00F000
000000
000000
073E00
3FFF00
FFFF00
3F1F80
3F1F80
3F1F80
3F1F80
3F1F80
3F1F80
3F1F80
3F1F80
3F1F80
3F1F80
7FBFC0
7FBFC0
ENDCHAR
STARTCHAR napostrophe
ENCODING 329
SWIDTH 820 0
DWIDTH 25 0
BBX 23 22 1 0
BITMAP
700000
F80000
F80000
F80000
F80000
380000
300000
6039F0
C1FFF8
07FFF8
01F8FC
01F8FC
01F8FC
01F8FC
01F8FC
01F8FC
01F8FC
01F8FC
01F8FC
01F8FC
03FDFE
03FDFE
ENDCHAR
STARTCHAR Omacron
ENCODING 332
SWIDTH 700 0
DWIDTH 21 0
BBX 19 26 1 -1
BITMAP
07FC00
07FC00
07FC00
000000
000000
03F800
0FFE00
1F1F00
3E0F80
7E0FC0
7C07C0
FC07E0
FC07E0
FC07E0
FC07E0
FC07E0
FC07E0
FC07E0
FC07E0
7C07C0
7C0FC0
7E0FC0
3E0F80
1F1F00
07FC00
00E000
ENDCHAR
STARTCHAR omacron
ENCODING 333
SWIDTH 572 0
DWIDTH 17 0
BBX 16 20 1 0
BITMAP
3FF8
3FF8
3FF8
0000
0000
0FE0
1FF8
7C7C
7C7C
FC7E
FC7E
FC7E
FC7F
FC7E
FC7E
FC7E
FC7E
7C7C
3EF8
1FF0
ENDCHAR
STARTCHAR uni014E
ENCODING 334
SWIDTH 700 0
DWIDTH 21 0
BBX 19 27 1 -1
BITMAP
040400
0E0E00
07FC00
07FC00
01F000
000000
03F800
0FFE00
1F1F00
3E0F80
7E0FC0
7C07C0
FC07E0
FC07E0
FC07E0
FC07E0
FC07E0
FC07E0
FC07E0
FC07E0
7C07C0
7C0FC0
7E0FC0
3E0F80
1F1F00
07FC00
00E000
ENDCHAR
STARTCHAR uni014F
ENCODING 335
SWIDTH 572 0
DWIDTH 17 0
BBX 16 22 1 0
BITMAP
1818
1830
1FF0
0FE0
07C0
0000
0000
0FE0
1FF8
7C7C
7C7C
FC7E
FC7E
FC7E
FC7F
FC7E
FC7E
FC7E
FC7E
7C7C
3EF8
1FF0
ENDCHAR
STARTCHAR Ohungarumlaut
ENCODING 336
SWIDTH 700 0
DWIDTH 21 0
BBX 19 28 1 -1
BITMAP
00C600
01EF00
01CE00
039C00
039800
033800
000000
03F800
0FFE00
1F1F00
3E0F80
7E0FC0
7C07C0
FC07E0
FC07E0
FC07E0
FC07E0
FC07E0
FC07E0
FC07E0
FC07E0
7C07C0
7C0FC0
7E0FC0
3E0F80
1F1F00
07FC00
00E000
ENDCHAR
STARTCHAR ohungarumlaut
ENCODING 337
SWIDTH 572 0
DWIDTH 17 0
BBX 16 24 1 0
BITMAP
019C
03DC
03BC
07B8
0738
0670
0660
0000
0000
0FE0
1FF8
7C7C
7C7C
FC7E
FC7E
FC7E
FC7F
FC7E
FC7E
FC7E
FC7E
7C7C
3EF8
1FF0
ENDCHAR
STARTCHAR OE
ENCODING 338
SWIDTH 927 0
DWIDTH 28 0
BBX 26 21 1 -1
BITMAP
03FFFF80
0FFFFF80
1F8FC380
3F0FC3C0
7E0FC1C0
7E0FC1C0
FC0FC000
FC0FC600
FC0FC600
FC0FFE00
FC0FFE00
FC0FC600
FC0FC600
FC0FC000
7E0FC000
7E0FC1C0
3E0FC1C0
3F0FC1C0
1FCFFFC0
07FFFFC0
00700000
ENDCHAR
STARTCHAR oe
ENCODING 339
SWIDTH 854 0
DWIDTH 26 0
BBX 24 15 1 0
BITMAP
0FE1F8
1FF7FC
7C7F3E
7C7F1E
FC7F1F
FC7F1F
FC7FFF
FC7FFF
FC7F00
FC7F00
FC7F00
FC7F82
7C7FFF
3EFFFE
1FE3F8
ENDCHAR
STARTCHAR Racute
ENCODING 340
SWIDTH 696 0
DWIDTH 21 0
BBX 20 26 1 0
BITMAP
001C00
003E00
00FC00
01F000
01C000
000000
FFF000
FFFE00
3F3F80
3F1F80
3F0F80
3F0FC0
3F0F80
3F0F80
3F1F00
3FFC00
3FFE00
3F3F00
3F1F80
3F1F80
3F1F80
3F1F80
3F1FC0
3F1FC0
FFCFF0
FFC7F0
ENDCHAR
STARTCHAR racute
ENCODING 341
SWIDTH 483 0
DWIDTH 14 0
BBX 15 24 0 0
BITMAP
0010
0038
007C
0078
00F0
01E0
01C0
0000
0000
073C
3F7C
FFFE
3FBC
3F9C
3F00
3F00
3F00
3F00
3F00
3F00
3F00
3F00
7FC0
7FC0
ENDCHAR
STARTCHAR uni0156
ENCODING 342
SWIDTH 696 0
DWIDTH 21 0
BBX 20 28 1 -8
BITMAP
FFF000
FFFE00
3F3F80
3F1F80
3F0F80
3F0FC0
3F0F80
3F0F80
3F1F00
3FFC00
3FFE00
3F3F00
3F1F80
3F1F80
3F1F80
3F1F80
3F1FC0
3F1FC0
FFCFF0
FFC7F0
000000
000000
00F000
01F000
00F000
00F000
00E000
01C000
ENDCHAR
STARTCHAR uni0157
ENCODING 343
SWIDTH 483 0
DWIDTH 14 0
BBX 15 23 0 -8
BITMAP
073C
3F7C
FFFE
3FBC
3F9C
3F00
3F00
3F00
3F00
3F00
3F00
3F00
3F00
7FC0
7FC0
0000
0000
1E00
3E00
1E00
1E00
1C00
3800
ENDCHAR
STARTCHAR Rcaron
ENCODING 344
SWIDTH 696 0
DWIDTH 21 0
BBX 20 27 1 0
BITMAP
080400
0E0E00
073C00
07F800
03F000
01E000
000000
FFF000
FFFE00
3F3F80
3F1F80
3F0F80
3F0FC0
3F0F80
3F0F80
3F1F00
3FFC00
3FFE00
3F3F00
3F1F80
3F1F80
3F1F80
3F1F80
3F1FC0
3F1FC0
FFCFF0
FFC7F0
ENDCHAR
STARTCHAR rcaron
ENCODING 345
SWIDTH 483 0
DWIDTH 14 0
BBX 15 23 0 0
BITMAP
1818
0E38
0FF0
07E0
03E0
03C0
0000
0000
073C
3F7C
FFFE
3FBC
3F9C
3F00
3F00
3F00
3F00
3F00
3F00
3F00
3F00
7FC0
7FC0
ENDCHAR
STARTCHAR Sacute
ENCODING 346
SWIDTH 553 0
DWIDTH 17 0
BBX 15 27 1 -1
BITMAP
0038
007C
01F8
03F0
0380
0000
0FF0
3FFC
7C3C
7C3C
FC3C
FC1C
FE00
FF80
7FE0
7FF0
3FF8
0FFC
03FE
00FE
E07E
E07E
F07C
F07C
F8F8
7FF0
0300
ENDCHAR
STARTCHAR sacute
ENCODING 347
SWIDTH 463 0
DWIDTH 14 0
BBX 12 24 1 0
BITMAP
0040
00F0
01F0
01E0
03E0
0380
0700
0000
0000
1FC0
7FE0
78E0
F0E0
F8E0
FF80
FFE0
FFF0
7FF0
1FF0
E3F0
E1F0
E0F0
F3E0
7FC0
ENDCHAR
STARTCHAR Scircumflex
ENCODING 348
SWIDTH 553 0
DWIDTH 17 0
BBX 15 27 1 -1
BITMAP
03C0
07E0
0FF0
1EF8
383C
2008
0FF0
3FFC
7C3C
7C3C
FC3C
FC1C
FE00
FF80
7FE0
7FF0
3FF8
0FFC
03FE
00FE
E07E
E07E
F07C
F07C
F8F8
7FF0
0300
ENDCHAR
STARTCHAR scircumflex
ENCODING 349
SWIDTH 463 0
DWIDTH 14 0
BBX 12 23 1 0
BITMAP
0700
0F80
1F80
1FC0
39E0
7070
2020
0000
1FC0
7FE0
78E0
F0E0
F8E0
FF80
FFE0
FFF0
7FF0
1FF0
E3F0
E1F0
E0F0
F3E0
7FC0
ENDCHAR
STARTCHAR uni015E
ENCODING 350
SWIDTH 553 0
DWIDTH 17 0
BBX 15 27 1 -7
BITMAP
0FF0
3FFC
7C3C
7C3C
FC3C
FC1C
FE00
FF80
7FE0
7FF0
3FF8
0FFC
03FE
00FE
E07E
E07E
F07C
F07C
F8F8
7FF0
0300
0380
03E0
00E0
00E0
07E0
0780
ENDCHAR
STARTCHAR uni015F
ENCODING 351
SWIDTH 463 0
DWIDTH 14 0
BBX 12 22 1 -7
BITMAP
1FC0
7FE0
78E0
F0E0
F8E0
FF80
FFE0
FFF0
7FF0
1FF0
E3F0
E1F0
E0F0
F3E0
7FC0
0600
0600
0780
03C0
03C0
1F80
1F00
ENDCHAR
STARTCHAR Scaron
ENCODING 352
SWIDTH 553 0
DWIDTH 17 0
BBX 15 28 1 -1
BITMAP
1008
1C1C
0E78
07F0
07E0
03C0
0000
0FF0
3FFC
7C3C
7C3C
FC3C
FC1C
FE00
FF80
7FE0
7FF0
3FF8
0FFC
03FE
00FE
E07E
E07E
F07C
F07C
F8F8
7FF0
0300
ENDCHAR
STARTCHAR scaron
ENCODING 353
SWIDTH 463 0
DWIDTH 14 0
BBX 12 23 1 0
BITMAP
7060
38E0
3FC0
1F80
0F80
0F00
0000
0000
1FC0
7FE0
78E0
F0E0
F8E0
FF80
FFE0
FFF0
7FF0
1FF0
E3F0
E1F0
E0F0
F3E0
7FC0
ENDCHAR
STARTCHAR uni0162
ENCODING 354
SWIDTH 646 0
DWIDTH 19 0
BBX 18 27 1 -7
BITMAP
FFFFC0
FFFFC0
E3F1C0
E3F1C0
E3F1C0
E3F1C0
03F000
03F000
03F000
03F000
03F000
03F000
03F000
03F000
03F000
03F000
03F000
03F000
1FFC00
1FFC00
00C000
00C000
01F000
007000
007800
03F000
03C000
ENDCHAR
STARTCHAR uni0163
ENCODING 355
SWIDTH 372 0
DWIDTH 11 0
BBX 11 26 0 -7
BITMAP
0F00
0F00
1F00
1F00
3FE0
FFE0
FFE0
3F00
3F00
3F00
3F00
3F00
3F00
3F00
3F00
3F00
3FA0
1FE0
1FC0
0600
0600
0780
01C0
01C0
1FC0
0F00
ENDCHAR
STARTCHAR Tcaron
ENCODING 356
SWIDTH 646 0
DWIDTH 19 0
BBX 18 27 1 0
BITMAP
080400
1C1C00
0F7800
07F000
03E000
01E000
000000
FFFFC0
FFFFC0
E3F1C0
E3F1C0
E3F1C0
E3F1C0
03F000
03F000
03F000
03F000
03F000
03F000
03F000
03F000
03F000
03F000
03F000
03F000
1FFC00
1FFC00
ENDCHAR
STARTCHAR tcaron
ENCODING 357
SWIDTH 372 0
DWIDTH 11 0
BBX 13 22 0 0
BITMAP
0078
0078
0078
0F70
0F70
1F60
1F00
3FE0
FFE0
FFE0
3F00
3F00
3F00
3F00
3F00
3F00
3F00
3F00
3F00
3FA0
1FE0
1FC0
ENDCHAR
STARTCHAR Utilde
ENCODING 360
SWIDTH 732 0
DWIDTH 22 0
BBX 20 27 1 -1
BITMAP
006100
01FB80
01FF80
03FF00
031E00
000000
FFC7F0
FFC7F0
3F00C0
3F00C0
3F00C0
3F00C0
3F00C0
3F00C0
3F00C0
3F00C0
3F00C0
3F00C0
3F00C0
3F00C0
3F01C0
3F0180
3F8380
1FEF00
0FFF00
07FC00
006000
ENDCHAR
STARTCHAR utilde
ENCODING 361
SWIDTH 617 0
DWIDTH 19 0
BBX 17 22 1 0
BITMAP
070C00
0FFC00
1FFC00
1FF800
187000
000000
000000
1E0700
FE7F00
FE7F00
7E3F00
7E3F00
7E3F00
7E3F00
7E3F00
7E3F00
7E3F00
7E3F00
7E3F00
7FFF00
3FFF80
3F3F80
ENDCHAR
STARTCHAR Umacron
ENCODING 362
SWIDTH 732 0
DWIDTH 22 0
BBX 20 26 1 -1
BITMAP
03FF00
03FF00
03FF00
000000
000000
FFC7F0
FFC7F0
3F00C0
3F00C0
3F00C0
3F00C0
3F00C0
3F00C0
3F00C0
3F00C0
3F00C0
3F00C0
3F00C0
3F00C0
3F01C0
3F0180
3F8380
1FEF00
0FFF00
07FC00
006000
ENDCHAR
STARTCHAR umacron
ENCODING 363
SWIDTH 617 0
DWIDTH 19 0
BBX 17 20 1 0
BITMAP
1FFC00
1FFC00
1FFC00
000000
000000
1E0700
FE7F00
FE7F00
7E3F00
7E3F00
7E3F00
7E3F00
7E3F00
7E3F00
7E3F00
7E3F00
7E3F00
7FFF00
3FFF80
3F3F80
ENDCHAR
STARTCHAR Ubreve
ENCODING 364
SWIDTH 732 0
DWIDTH 22 0
BBX 20 27 1 -1
BITMAP
010100
038380
01FF00
01FE00
007C00
000000
FFC7F0
FFC7F0
3F00C0
3F00C0
3F00C0
3F00C0
3F00C0
3F00C0
3F00C0
3F00C0
3F00C0
3F00C0
3F00C0
3F00C0
3F01C0
3F0180
3F8380
1FEF00
0FFF00
07FC00
006000
ENDCHAR
STARTCHAR ubreve
ENCODING 365
SWIDTH 617 0
DWIDTH 19 0
BBX 17 22 1 0
BITMAP
0C0C00
0C1800
0FF800
07F000
03E000
000000
000000
1E0700
FE7F00
FE7F00
7E3F00
7E3F00
7E3F00
7E3F00
7E3F00
7E3F00
7E3F00
7E3F00
7E3F00
7FFF00
3FFF80
3F3F80
ENDCHAR
STARTCHAR Uring
ENCODING 366
SWIDTH 732 0
DWIDTH 22 0
BBX 20 28 1 -1
BITMAP
003800
007C00
00C600
00C600
006E00
007C00
000000
FFC7F0
FFC7F0
3F00C0
3F00C0
3F00C0
3F00C0
3F00C0
3F00C0
3F00C0
3F00C0
3F00C0
3F00C0
3F00C0
3F00C0
3F01C0
3F0180
3F8380
1FEF00
0FFF00
07FC00
006000
ENDCHAR
STARTCHAR uring
ENCODING 367
SWIDTH 617 0
DWIDTH 19 0
BBX 17 24 1 0
BITMAP
01C000
07F000
063000
063000
063000
077000
03E000
000000
000000
1E0700
FE7F00
FE7F00
7E3F00
7E3F00
7E3F00
7E3F00
7E3F00
7E3F00
7E3F00
7E3F00
7E3F00
7FFF00
3FFF80
3F3F80
ENDCHAR
STARTCHAR Uhungarumlaut
ENCODING 368
SWIDTH 732 0
DWIDTH 22 0
BBX 20 28 1 -1
BITMAP
003980
007BC0
007380
007380
00E700
00C600
000000
FFC7F0
FFC7F0
3F00C0
3F00C0
3F00C0
3F00C0
3F00C0
3F00C0
3F00C0
3F00C0
3F00C0
3F00C0
3F00C0
3F00C0
3F01C0
3F0180
3F8380
1FEF00
0FFF00
07FC00
006000
ENDCHAR
STARTCHAR uhungarumlaut
ENCODING 369
SWIDTH 617 0
DWIDTH 19 0
BBX 17 24 1 0
BITMAP
00CE00
01DE00
03DE00
03DC00
03B800
033800
063000
000000
000000
1E0700
FE7F00
FE7F00
7E3F00
7E3F00
7E3F00
7E3F00
7E3F00
7E3F00
7E3F00
7E3F00
7E3F00
7FFF00
3FFF80
3F3F80
ENDCHAR
STARTCHAR Uogonek
ENCODING 370
SWIDTH 732 0
DWIDTH 22 0
BBX 20 27 1 -7
BITMAP
FFC7F0
FFC7F0
3F00C0
3F00C0
3F00C0
3F00C0
3F00C0
3F00C0
3F00C0
3F00C0
3F00C0
3F00C0
3F00C0
3F00C0
3F01C0
3F0180
3F8380
1FEF00
0FFF00
07FC00
007800
003000
007000
007800
007F00
007F80
003C00
ENDCHAR
STARTCHAR uogonek
ENCODING 371
SWIDTH 617 0
DWIDTH 19 0
BBX 18 22 1 -7
BITMAP
1E0700
FE7F00
FE7F00
7E3F00
7E3F00
7E3F00
7E3F00
7E3F00
7E3F00
7E3F00
7E3F00
7E3F00
7FFF00
3FFF80
3F3F80
000C00
001C00
003800
003C00
003F80
003FC0
000E00
ENDCHAR
STARTCHAR Wcircumflex
ENCODING 372
SWIDTH 989 0
DWIDTH 30 0
BBX 30 26 0 0
BITMAP
0003E000
0007E000
000FF000
001F7800
003C1C00
00100400
FFCFF8FC
FFCFF8FC
3F03E070
3F03E060
3F07F060
1F87F060
1F87F0C0
1F85F0C0
0F8DF8C0
0FCDF980
0FCCF980
0FD8F980
07D8FD00
07F8FF00
07F07F00
03F07E00
03F07E00
03E03E00
01E03C00
01E03C00
ENDCHAR
STARTCHAR wcircumflex
ENCODING 373
SWIDTH 800 0
DWIDTH 24 0
BBX 24 23 0 0
BITMAP
000E00
001E00
003F00
003F80
0073C0
00E0E0
004040
000000
FF7FBF
FF7FBF
7E1F0C
7E3F1C
3E3F18
3F3F98
3F6FB8
1F6FB0
1F6FF0
0FC7E0
0FC7E0
0FC3E0
0783C0
0783C0
0701C0
ENDCHAR
STARTCHAR Ycircumflex
ENCODING 374
SWIDTH 621 0
DWIDTH 19 0
BBX 19 26 0 0
BITMAP
007800
00FC00
01FE00
03CF00
070380
020100
FFC7E0
FFC7E0
3F0380
3F8300
1F8300
1FC600
0FC600
0FEC00
07EC00
07F800
03F800
03F000
03F000
03F000
03F000
03F000
03F000
03F000
0FFE00
0FFE00
ENDCHAR
STARTCHAR ycircumflex
ENCODING 375
SWIDTH 543 0
DWIDTH 16 0
BBX 16 30 0 -7
BITMAP
00E0
00F0
01F8
03F8
079C
0E0E
0404
0000
FF9F
FF9F
7E0C
3F0C
3F18
1F18
1F98
0FB0
0FB0
0FE0
07E0
07E0
03C0
03C0
01C0
0180
0180
3100
FB00
FE00
FE00
7800
ENDCHAR
STARTCHAR Ydieresis
ENCODING 376
SWIDTH 621 0
DWIDTH 19 0
BBX 19 26 0 0
BITMAP
010100
078780
07C7C0
07C780
038380
000000
FFC7E0
FFC7E0
3F0380
3F8300
1F8300
1FC600
0FC600
0FEC00
07EC00
07F800
03F800
03F000
03F000
03F000
03F000
03F000
03F000
03F000
0FFE00
0FFE00
ENDCHAR
STARTCHAR Zacute
ENCODING 377
SWIDTH 568 0
DWIDTH 17 0
BBX 15 26 1 0
BITMAP
003C
007C
00FC
01F0
01C0
0000
FFFE
FFFE
E0FE
E0FC
E1FC
E1F8
03F8
03F0
07F0
07E0
0FE0
1FC0
1F80
3F80
3F06
7F06
7E0E
FE0E
FFFE
FFFE
ENDCHAR
STARTCHAR zacute
ENCODING 378
SWIDTH 468 0
DWIDTH 14 0
BBX 14 24 0 0
BITMAP
0010
0078
0078
00F8
00F0
01E0
0380
0000
0000
7FFC
7FFC
71F8
73F0
73F0
07E0
07E0
0FC0
0FC0
1F80
3F9C
3F1C
7E3C
7E3C
FFF8
ENDCHAR
STARTCHAR Zdotaccent
ENCODING 379
SWIDTH 568 0
DWIDTH 17 0
BBX 15 26 1 0
BITMAP
01C0
03E0
03E0
03E0
01C0
0000
FFFE
FFFE
E0FE
E0FC
E1FC
E1F8
03F8
03F0
07F0
07E0
0FE0
1FC0
1F80
3F80
3F06
7F06
7E0E
FE0E
FFFE
FFFE
ENDCHAR
STARTCHAR zdotaccent
ENCODING 380
SWIDTH 468 0
DWIDTH 14 0
BBX 14 22 0 0
BITMAP
03C0
07C0
07E0
07E0
03C0
0000
0000
7FFC
7FFC
71F8
73F0
73F0
07E0
07E0
0FC0
0FC0
1F80
3F9C
3F1C
7E3C
7E3C
FFF8
ENDCHAR
STARTCHAR Zcaron
ENCODING 381
SWIDTH 568 0
DWIDTH 17 0
BBX 15 27 1 0
BITMAP
0808
1C1C
0F78
07F0
03E0
01C0
0000
FFFE
FFFE
E0FE
E0FC
E1FC
E1F8
03F8
03F0
07F0
07E0
0FE0
1FC0
1F80
3F80
3F06
7F06
7E0E
FE0E
FFFE
FFFE
ENDCHAR
STARTCHAR zcaron
ENCODING 382
SWIDTH 468 0
DWIDTH 14 0
BBX 14 23 0 0
BITMAP
1C18
0E38
0FF0
07E0
03E0
03C0
0000
0000
7FFC
7FFC
71F8
73F0
73F0
07E0
07E0
0FC0
0FC0
1F80
3F9C
3F1C
7E3C
7E3C
FFF8
ENDCHAR
STARTCHAR longs
ENCODING 383
SWIDTH 365 0
DWIDTH 11 0
BBX 13 22 1 0
BITMAP
01E0
07F8
0FF8
1E78
3E30
3E00
7E00
7E00
7E00
7E00
7E00
7E00
7E00
7E00
7E00
7E00
7E00
7E00
7E00
7E00
FF80
FF80
ENDCHAR
STARTCHAR uni018F
ENCODING 399
SWIDTH 666 0
DWIDTH 20 0
BBX 18 21 1 -1
BITMAP
07F000
1FFC00
387E00
203F00
001F80
001F80
000FC0
000FC0
000FC0
FFFFC0
FFFFC0
FC0FC0
FC0FC0
FC0FC0
FC0F80
FC0F80
7C1F80
3E1F00
1F3E00
0FF800
00C000
ENDCHAR
STARTCHAR uni0192
ENCODING 402
SWIDTH 560 0
DWIDTH 17 0
BBX 17 22 0 -3
BITMAP
003E00
00F700
00F780
01F700
01E000
03E000
03E000
1FFC00
1FFC00
03E000
03E000
03E000
03E000
03E000
03E000
03C000
03C000
47C000
F7C000
F78000
7F0000
3E0000
ENDCHAR
STARTCHAR Ohorn
ENCODING 416
SWIDTH 700 0
DWIDTH 21 0
BBX 19 25 1 -1
BITMAP
0000E0
0001E0
0000E0
0000E0
03F8E0
0FFEC0
1F1F80
3E0F80
7E0FC0
7C07C0
FC07E0
FC07E0
FC07E0
FC07E0
FC07E0
FC07E0
FC07E0
FC07E0
7C07C0
7C0FC0
7E0FC0
3E0F80
1F1F00
07FC00
00E000
ENDCHAR
STARTCHAR ohorn
ENCODING 417
SWIDTH 572 0
DWIDTH 17 0
BBX 16 19 1 0
BITMAP
0007
000F
0007
0007
0FE7
1FFE
7C7C
7C7C
FC7E
FC7E
FC7E
FC7F
FC7E
FC7E
FC7E
FC7E
7C7C
3EF8
1FF0
ENDCHAR
STARTCHAR Uhorn
ENCODING 431
SWIDTH 732 0
DWIDTH 22 0
BBX 22 26 1 -1
BITMAP
000018
00003C
00003C
00001C
00001C
FFC7F8
FFC7F0
3F00C0
3F00C0
3F00C0
3F00C0
3F00C0
3F00C0
3F00C0
3F00C0
3F00C0
3F00C0
3F00C0
3F00C0
3F01C0
3F0180
3F8380
1FEF00
0FFF00
07FC00
006000
ENDCHAR
STARTCHAR uhorn
ENCODING 432
SWIDTH 617 0
DWIDTH 19 0
BBX 20 19 1 0
BITMAP
000070
0000F0
0000F0
000070
1E0760
FE7FE0
FE7FC0
7E3F00
7E3F00
7E3F00
7E3F00
7E3F00
7E3F00
7E3F00
7E3F00
7E3F00
7FFF00
3FFF80
3F3F80
ENDCHAR
STARTCHAR uni01CD
ENCODING 461
SWIDTH 680 0
DWIDTH 20 0
BBX 20 27 0 0
BITMAP
020200
070700
03DE00
01FC00
00F800
00F000
000000
007000
00F800
00F800
00F800
01FC00
01FC00
017C00
037E00
037E00
023E00
063F00
063F00
041F00
0FFF80
0FFF80
180F80
180FC0
180FC0
FE3FF0
FE3FF0
ENDCHAR
STARTCHAR uni01CE
ENCODING 462
SWIDTH 540 0
DWIDTH 16 0
BBX 15 23 1 0
BITMAP
3030
1C70
1FE0
0FC0
07C0
0780
0000
0000
1FE0
3FF0
79F8
F8F8
F8F8
70F8
03F8
1EF8
7CF8
F8F8
F8F8
F8F8
FDFA
FFFE
7E7C
ENDCHAR
STARTCHAR uni01CF
ENCODING 463
SWIDTH 395 0
DWIDTH 12 0
BBX 11 27 0 0
BITMAP
4020
F0E0
79C0
3FC0
1F80
0F00
0000
7FE0
7FE0
1F80
1F80
1F80
1F80
1F80
1F80
1F80
1F80
1F80
1F80
1F80
1F80
1F80
1F80
1F80
1F80
7FE0
7FE0
ENDCHAR
STARTCHAR uni01D0
ENCODING 464
SWIDTH 324 0
DWIDTH 10 0
BBX 10 23 0 0
BITMAP
C0C0
71C0
7F80
3F00
1F00
1E00
0000
0000
0700
3F00
7F00
3F00
3F00
3F00
3F00
3F00
3F00
3F00
3F00
3F00
3F00
7F80
7F80
ENDCHAR
STARTCHAR uni01D1
ENCODING 465
SWIDTH 700 0
DWIDTH 21 0
BBX 19 28 1 -1
BITMAP
040400
0E0E00
07BC00
03F800
01F000
00E000
000000
03F800
0FFE00
1F1F00
3E0F80
7E0FC0
7C07C0
FC07E0
FC07E0
FC07E0
FC07E0
FC07E0
FC07E0
FC07E0
FC07E0
7C07C0
7C0FC0
7E0FC0
3E0F80
1F1F00
07FC00
00E000
ENDCHAR
STARTCHAR uni01D2
ENCODING 466
SWIDTH 572 0
DWIDTH 17 0
BBX 16 23 1 0
BITMAP
3838
1C70
0EE0
0FE0
07C0
0380
0000
0000
0FE0
1FF8
7C7C
7C7C
FC7E
FC7E
FC7E
FC7F
FC7E
FC7E
FC7E
FC7E
7C7C
3EF8
1FF0
ENDCHAR
STARTCHAR uni01D3
ENCODING 467
SWIDTH 732 0
DWIDTH 22 0
BBX 20 28 1 -1
BITMAP
010080
038380
01E700
00FE00
007E00
003C00
000000
FFC7F0
FFC7F0
3F00C0
3F00C0
3F00C0
3F00C0
3F00C0
3F00C0
3F00C0
3F00C0
3F00C0
3F00C0
3F00C0
3F00C0
3F01C0
3F0180
3F8380
1FEF00
0FFF00
07FC00
006000
ENDCHAR
STARTCHAR uni01D4
ENCODING 468
SWIDTH 617 0
DWIDTH 19 0
BBX 17 23 1 0
BITMAP
1C1800
0E3800
0F7000
07F000
03E000
01C000
000000
000000
1E0700
FE7F00
FE7F00
7E3F00
7E3F00
7E3F00
7E3F00
7E3F00
7E3F00
7E3F00
7E3F00
7E3F00
7FFF00
3FFF80
3F3F80
ENDCHAR
STARTCHAR uni01D5
ENCODING 469
SWIDTH 732 0
DWIDTH 22 0
BBX 20 31 1 -1
BITMAP
03FF00
03FF00
03FF00
000000
010100
07C780
07C7C0
07C7C0
038380
000000
FFC7F0
FFC7F0
3F00C0
3F00C0
3F00C0
3F00C0
3F00C0
3F00C0
3F00C0
3F00C0
3F00C0
3F00C0
3F00C0
3F00C0
3F01C0
3F0180
3F8380
1FEF00
0FFF00
07FC00
006000
ENDCHAR
STARTCHAR uni01D6
ENCODING 470
SWIDTH 617 0
DWIDTH 19 0
BBX 17 25 1 0
BITMAP
1FFC00
1FFC00
1FFC00
000000
0C1C00
1E3E00
3E3E00
3E3E00
1C1C00
000000
1E0700
FE7F00
FE7F00
7E3F00
7E3F00
7E3F00
7E3F00
7E3F00
7E3F00
7E3F00
7E3F00
7E3F00
7FFF00
3FFF80
3F3F80
ENDCHAR
STARTCHAR uni01D7
ENCODING 471
SWIDTH 732 0
DWIDTH 22 0
BBX 20 31 1 -1
BITMAP
000F00
000F00
001E00
003C00
011100
07C780
07C7C0
07C7C0
038380
000000
FFC7F0
FFC7F0
3F00C0
3F00C0
3F00C0
3F00C0
3F00C0
3F00C0
3F00C0
3F00C0
3F00C0
3F00C0
3F00C0
3F00C0
3F01C0
3F0180
3F8380
1FEF00
0FFF00
07FC00
006000
ENDCHAR
STARTCHAR uni01D8
ENCODING 472
SWIDTH 617 0
DWIDTH 19 0
BBX 17 27 1 0
BITMAP
003000
007800
00F000
00F000
00E000
018000
0C1800
1E3C00
1E3E00
1E3C00
0C1800
000000
1E0700
FE7F00
FE7F00
7E3F00
7E3F00
7E3F00
7E3F00
7E3F00
7E3F00
7E3F00
7E3F00
7E3F00
7FFF00
3FFF80
3F3F80
ENDCHAR
STARTCHAR uni01D9
ENCODING 473
SWIDTH 732 0
DWIDTH 22 0
BBX 20 32 1 -1
BITMAP
010100
038380
01EF00
00FE00
007C00
017900
07C780
07C7C0
07C7C0
038380
000000
FFC7F0
FFC7F0
3F00C0
3F00C0
3F00C0
3F00C0
3F00C0
3F00C0
3F00C0
3F00C0
3F00C0
3F00C0
3F00C0
3F00C0
3F01C0
3F0180
3F8380
1FEF00
0FFF00
07FC00
006000
ENDCHAR
STARTCHAR uni01DA
ENCODING 474
SWIDTH 617 0
DWIDTH 19 0
BBX 17 27 1 0
BITMAP
080800
1C1C00
0F7800
07F000
03E000
01C000
0C1C00
1E3E00
3E3E00
3E3E00
1C1C00
000000
1E0700
FE7F00
FE7F00
7E3F00
7E3F00
7E3F00
7E3F00
7E3F00
7E3F00
7E3F00
7E3F00
7E3F00
7FFF00
3FFF80
3F3F80
ENDCHAR
STARTCHAR uni01DB
ENCODING 475
SWIDTH 732 0
DWIDTH 22 0
BBX 20 31 1 -1
BITMAP
01C000
01E000
01F000
007800
011100
078780
07C7C0
07C7C0
038380
000000
FFC7F0
FFC7F0
3F00C0
3F00C0
3F00C0
3F00C0
3F00C0
3F00C0
3F00C0
3F00C0
3F00C0
3F00C0
3F00C0
3F00C0
3F01C0
3F0180
3F8380
1FEF00
0FFF00
07FC00
006000
ENDCHAR
STARTCHAR uni01DC
ENCODING 476
SWIDTH 617 0
DWIDTH 19 0
BBX 17 27 1 0
BITMAP
060000
070000
078000
078000
01C000
00C000
0C1800
1E3C00
1E3E00
1E3C00
0C1800
000000
1E0700
FE7F00
FE7F00
7E3F00
7E3F00
7E3F00
7E3F00
7E3F00
7E3F00
7E3F00
7E3F00
7E3F00
7FFF00
3FFF80
3F3F80
ENDCHAR
STARTCHAR Gcaron
ENCODING 486
SWIDTH 672 0
DWIDTH 20 0
BBX 19 28 1 -1
BITMAP
020200
070700
03DE00
01FC00
00F800
007000
000000
03FE00
0FFF80
1F8780
3F0380
7E0380
7E0380
FC0000
FC0000
FC0000
FC0000
FC7FE0
FC7FE0
FC0F80
FC0F80
7E0F80
7E0F80
3E0F80
3F0F80
1FCF80
07FF00
006000
ENDCHAR
STARTCHAR gcaron
ENCODING 487
SWIDTH 553 0
DWIDTH 17 0
BBX 16 30 0 -7
BITMAP
3838
1C70
0EF0
0FE0
07C0
0380
0000
0000
0FE3
3EFF
7C7F
7C7C
7C7C
7C7C
7C7C
3E78
1FF0
3000
3000
7FF0
7FFE
7FFE
7FFF
3FFF
601F
E00F
F01E
787C
7FF8
0F80
ENDCHAR
STARTCHAR uni01F8
ENCODING 504
SWIDTH 725 0
DWIDTH 22 0
BBX 20 26 1 0
BITMAP
070000
0F8000
07E000
03F000
007000
000000
FE0FF0
FF0FF0
3F83C0
3FC180
3FC180
3FE180
37F180
37F980
33F980
31FD80
30FF80
30FF80
307F80
303F80
303F80
301F80
300F80
300780
FF0780
FF0380
ENDCHAR
STARTCHAR uni01F9
ENCODING 505
SWIDTH 620 0
DWIDTH 19 0
BBX 18 24 0 0
BITMAP
040000
0F0000
0F0000
0F8000
07C000
01C000
00E000
000000
000000
073E00
3FFF00
FFFF00
3F1F80
3F1F80
3F1F80
3F1F80
3F1F80
3F1F80
3F1F80
3F1F80
3F1F80
3F1F80
7FBFC0
7FBFC0
ENDCHAR
STARTCHAR uni0218
ENCODING 536
SWIDTH 553 0
DWIDTH 17 0
BBX 15 28 1 -8
BITMAP
0FF0
3FFC
7C3C
7C3C
FC3C
FC1C
FE00
FF80
7FE0
7FF0
3FF8
0FFC
03FE
00FE
E07E
E07E
F07C
F07C
F8F8
7FF0
0300
0000
0780
07C0
07C0
0380
0300
0E00
ENDCHAR
STARTCHAR uni0219
ENCODING 537
SWIDTH 463 0
DWIDTH 14 0
BBX 12 23 1 -8
BITMAP
1FC0
7FE0
78E0
F0E0
F8E0
FF80
FFE0
FFF0
7FF0
1FF0
E3F0
E1F0
E0F0
F3E0
7FC0
0000
0000
0F00
0F80
0F80
0700
0E00
1C00
ENDCHAR
STARTCHAR uni021A
ENCODING 538
SWIDTH 646 0
DWIDTH 19 0
BBX 18 28 1 -8
BITMAP
FFFFC0
FFFFC0
E3F1C0
E3F1C0
E3F1C0
E3F1C0
03F000
03F000
03F000
03F000
03F000
03F000
03F000
03F000
03F000
03F000
03F000
03F000
1FFC00
1FFC00
000000
000000
01E000
01F000
01F000
00E000
00C000
038000
ENDCHAR
STARTCHAR uni021B
ENCODING 539
SWIDTH 372 0
DWIDTH 11 0
BBX 11 27 0 -8
BITMAP
0F00
0F00
1F00
1F00
3FE0
FFE0
FFE0
3F00
3F00
3F00
3F00
3F00
3F00
3F00
3F00
3F00
3FA0
1FE0
1FC0
0000
0000
0F80
0F80
0F80
0700
0700
0C00
ENDCHAR
STARTCHAR uni0237
ENCODING 567
SWIDTH 320 0
DWIDTH 10 0
BBX 12 22 -4 -7
BITMAP
0070
03F0
0FF0
03F0
03F0
03F0
03F0
03F0
03F0
03F0
03F0
03F0
03F0
03F0
03F0
03F0
03F0
33E0
FBE0
FFC0
7F80
3E00
ENDCHAR
STARTCHAR uni0251
ENCODING 593
SWIDTH 594 0
DWIDTH 18 0
BBX 18 15 1 0
BITMAP
0F8600
1FDE00
3FFE00
7E3E00
7C3E00
FC3E00
FC3E00
FC3E00
FC3E00
FC3E00
FC3E00
FC3E00
7FFEC0
7FFF80
3F9F80
ENDCHAR
STARTCHAR uni0259
ENCODING 601
SWIDTH 526 0
DWIDTH 16 0
BBX 14 15 1 0
BITMAP
1FC0
3FE0
7FF8
E3F8
41FC
00FC
00FC
FFFC
FFFC
F8FC
F8FC
F8F8
78F8
7DF0
1FE0
ENDCHAR
STARTCHAR uni0261
ENCODING 609
SWIDTH 592 0
DWIDTH 18 0
BBX 15 22 1 -7
BITMAP
0F86
3FDE
3FFE
7E3E
FC3E
FC3E
FC3E
FC3E
FC3E
FC3E
FC3E
7E3E
7FFE
3FFE
1F3E
003E
703E
F83E
F87C
78FC
3FF8
0FC0
ENDCHAR
STARTCHAR h.sups
ENCODING 688
SWIDTH 412 0
DWIDTH 12 0
BBX 12 14 0 12
BITMAP
7800
F800
3800
3800
3BC0
3FE0
38E0
38E0
38E0
38E0
38E0
38E0
38E0
7DF0
ENDCHAR
STARTCHAR j.sups
ENCODING 690
SWIDTH 200 0
DWIDTH 6 0
BBX 7 20 -2 7
BITMAP
04
1E
0E
04
00
06
3E
0E
0E
0E
0E
0E
0E
0E
0E
0E
0E
FC
F8
20
ENDCHAR
STARTCHAR r.sups
ENCODING 691
SWIDTH 315 0
DWIDTH 9 0
BBX 9 10 0 12
BITMAP
1B80
FF80
3F80
3800
3800
3800
3800
3800
3800
7E00
ENDCHAR
STARTCHAR w.sups
ENCODING 695
SWIDTH 533 0
DWIDTH 16 0
BBX 16 10 0 12
BITMAP
FBEF
71C6
71C4
39E4
3BEC
3AE8
1E78
1C78
1C30
0C30
ENDCHAR
STARTCHAR y.sups
ENCODING 696
SWIDTH 353 0
DWIDTH 11 0
BBX 11 14 0 8
BITMAP
FDE0
7880
7880
3980
3900
1D00
1E00
1E00
0E00
0C00
0400
0800
E800
F000
ENDCHAR
STARTCHAR quoteleft.dup5
ENCODING 699
SWIDTH 218 0
DWIDTH 7 0
BBX 5 9 1 13
BITMAP
18
38
60
E0
E0
F8
F8
F8
F0
ENDCHAR
STARTCHAR quoteright.dup6
ENCODING 700
SWIDTH 218 0
DWIDTH 7 0
BBX 5 9 1 13
BITMAP
70
F8
F8
F8
F8
38
30
60
C0
ENDCHAR
STARTCHAR uni02BE
ENCODING 702
SWIDTH 180 0
DWIDTH 5 0
BBX 4 8 1 16
BITMAP
80
E0
60
70
70
70
E0
80
ENDCHAR
STARTCHAR uni02BF
ENCODING 703
SWIDTH 180 0
DWIDTH 5 0
BBX 4 8 1 16
BITMAP
10
70
E0
C0
C0
C0
F0
30
ENDCHAR
STARTCHAR circumflex
ENCODING 710
SWIDTH 376 0
DWIDTH 11 0
BBX 11 7 0 16
BITMAP
0E00
0F00
1F80
3F80
79C0
E0E0
4040
ENDCHAR
STARTCHAR caron
ENCODING 711
SWIDTH 400 0
DWIDTH 12 0
BBX 10 6 1 17
BITMAP
C0C0
E3C0
7F80
3F00
1E00
1E00
ENDCHAR
STARTCHAR uni02C8
ENCODING 712
SWIDTH 160 0
DWIDTH 5 0
BBX 4 7 0 16
BITMAP
F0
F0
F0
F0
F0
70
70
ENDCHAR
STARTCHAR uni02C9
ENCODING 713
SWIDTH 342 0
DWIDTH 10 0
BBX 10 3 1 17
BITMAP
FFC0
FFC0
FFC0
ENDCHAR
STARTCHAR uni02CA
ENCODING 714
SWIDTH 224 0
DWIDTH 7 0
BBX 7 7 0 17
BITMAP
08
1E
3E
3C
78
70
E0
ENDCHAR
STARTCHAR uni02CB
ENCODING 715
SWIDTH 224 0
DWIDTH 7 0
BBX 7 7 0 17
BITMAP
40
F0
F0
F8
7C
1C
0E
ENDCHAR
STARTCHAR uni02CC
ENCODING 716
SWIDTH 160 0
DWIDTH 5 0
BBX 4 6 0 -8
BITMAP
70
F0
F0
F0
F0
F0
ENDCHAR
STARTCHAR breve
ENCODING 728
SWIDTH 400 0
DWIDTH 12 0
BBX 10 5 1 17
BITMAP
C0C0
E1C0
7F80
7F80
3F00
ENDCHAR
STARTCHAR dotaccent
ENCODING 729
SWIDTH 400 0
DWIDTH 12 0
BBX 6 5 3 17
BITMAP
78
FC
FC
FC
78
ENDCHAR
STARTCHAR ring
ENCODING 730
SWIDTH 400 0
DWIDTH 12 0
BBX 8 7 2 17
BITMAP
3C
7E
E7
C3
C3
66
7E
ENDCHAR
STARTCHAR ogonek
ENCODING 731
SWIDTH 400 0
DWIDTH 12 0
BBX 8 7 2 -7
BITMAP
38
70
F0
F0
FF
7F
3C
ENDCHAR
STARTCHAR tilde
ENCODING 732
SWIDTH 400 0
DWIDTH 12 0
BBX 11 5 1 17
BITMAP
3860
7FC0
FFC0
FFC0
8700
ENDCHAR
STARTCHAR hungarumlaut
ENCODING 733
SWIDTH 400 0
DWIDTH 12 0
BBX 10 7 2 17
BITMAP
3980
3BC0
7BC0
7380
7700
E600
C600
ENDCHAR
STARTCHAR l.sups
ENCODING 737
SWIDTH 207 0
DWIDTH 6 0
BBX 6 14 0 12
BITMAP
78
F8
38
38
38
38
38
38
38
38
38
38
38
7C
ENDCHAR
STARTCHAR s.sups
ENCODING 738
SWIDTH 301 0
DWIDTH 9 0
BBX 9 10 0 12
BITMAP
3E00
7300
6300
7800
7E00
3F00
0F80
4380
C300
7E00
ENDCHAR
STARTCHAR x.sups
ENCODING 739
SWIDTH 375 0
DWIDTH 11 0
BBX 11 10 0 12
BITMAP
FDE0
7880
3D80
1D00
1E00
0F00
1F00
1780
23C0
F7E0
ENDCHAR
STARTCHAR uni0300
ENCODING 768
SWIDTH 0 0
DWIDTH 0 0
BBX 7 7 -5 17
BITMAP
20
70
F8
78
3C
1E
0E
ENDCHAR
STARTCHAR uni0301
ENCODING 769
SWIDTH 0 0
DWIDTH 0 0
BBX 6 7 -2 17
BITMAP
08
1C
3C
7C
78
F0
C0
ENDCHAR
STARTCHAR uni0302
ENCODING 770
SWIDTH 0 0
DWIDTH 0 0
BBX 10 7 -5 16
BITMAP
0C00
1E00
3F00
7F80
F380
E1C0
8040
ENDCHAR
STARTCHAR uni0303
ENCODING 771
SWIDTH 0 0
DWIDTH 0 0
BBX 10 5 -5 17
BITMAP
3840
FFC0
FFC0
FF80
8700
ENDCHAR
STARTCHAR uni0304
ENCODING 772
SWIDTH 0 0
DWIDTH 0 0
BBX 10 3 -5 17
BITMAP
FFC0
FFC0
FFC0
ENDCHAR
STARTCHAR uni0306
ENCODING 774
SWIDTH 0 0
DWIDTH 0 0
BBX 10 5 -5 17
BITMAP
C0C0
E1C0
7F80
7F80
3F00
ENDCHAR
STARTCHAR uni0307
ENCODING 775
SWIDTH 0 0
DWIDTH 0 0
BBX 6 5 -3 17
BITMAP
78
FC
FC
FC
78
ENDCHAR
STARTCHAR uni0308
ENCODING 776
SWIDTH 0 0
DWIDTH 0 0
BBX 12 5 -6 17
BITMAP
6060
F0F0
F9F0
F9F0
70E0
ENDCHAR
STARTCHAR uni0309
ENCODING 777
SWIDTH 0 0
DWIDTH 0 0
BBX 5 7 -2 17
BITMAP
C0
F0
F8
F8
38
F0
60
ENDCHAR
STARTCHAR uni030A
ENCODING 778
SWIDTH 0 0
DWIDTH 0 0
BBX 8 7 -4 17
BITMAP
3C
7E
E7
C3
C3
66
7E
ENDCHAR
STARTCHAR uni030B
ENCODING 779
SWIDTH 0 0
DWIDTH 0 0
BBX 9 7 -3 17
BITMAP
3180
7B80
7F80
7780
E700
EE00
CC00
ENDCHAR
STARTCHAR uni030C
ENCODING 780
SWIDTH 0 0
DWIDTH 0 0
BBX 10 6 -5 17
BITMAP
C0C0
E3C0
7F80
3F00
1E00
1E00
ENDCHAR
STARTCHAR uni031B
ENCODING 795
SWIDTH 0 0
DWIDTH 0 0
BBX 6 8 -1 11
BITMAP
1C
3C
3C
1C
1C
18
F0
80
ENDCHAR
STARTCHAR uni0323
ENCODING 803
SWIDTH 0 0
DWIDTH 0 0
BBX 6 5 -3 -7
BITMAP
78
FC
FC
FC
78
ENDCHAR
STARTCHAR uni0324
ENCODING 804
SWIDTH 0 0
DWIDTH 0 0
BBX 12 5 -6 -7
BITMAP
6060
F0F0
F9F0
F9F0
70E0
ENDCHAR
STARTCHAR uni0326
ENCODING 806
SWIDTH 0 0
DWIDTH 0 0
BBX 5 6 -3 -8
BITMAP
78
F8
78
78
70
E0
ENDCHAR
STARTCHAR uni0327
ENCODING 807
SWIDTH 0 0
DWIDTH 0 0
BBX 7 7 -3 -7
BITMAP
30
30
3C
1E
1E
FC
78
ENDCHAR
STARTCHAR uni0328
ENCODING 808
SWIDTH 0 0
DWIDTH 0 0
BBX 8 7 -4 -7
BITMAP
38
60
E0
F0
FE
FF
38
ENDCHAR
STARTCHAR uni0329
ENCODING 809
SWIDTH 0 0
DWIDTH 0 0
BBX 4 6 -2 -8
BITMAP
F0
F0
F0
F0
F0
F0
ENDCHAR
STARTCHAR uni032E
ENCODING 814
SWIDTH 0 0
DWIDTH 0 0
BBX 10 5 -5 -7
BITMAP
C0C0
E1C0
7F80
7F80
3F00
ENDCHAR
STARTCHAR uni0331
ENCODING 817
SWIDTH 0 0
DWIDTH 0 0
BBX 10 3 -5 -7
BITMAP
FFC0
FFC0
FFC0
ENDCHAR
STARTCHAR uni0374
ENCODING 884
SWIDTH 259 0
DWIDTH 8 0
BBX 6 11 1 11
BITMAP
38
78
7C
7C
78
78
70
70
F0
E0
E0
ENDCHAR
STARTCHAR uni0375
ENCODING 885
SWIDTH 259 0
DWIDTH 8 0
BBX 6 11 1 -4
BITMAP
18
1C
3C
38
38
78
78
78
F8
F8
70
ENDCHAR
STARTCHAR uni037E
ENCODING 894
SWIDTH 320 0
DWIDTH 10 0
BBX 7 21 1 -6
BITMAP
3C
7E
7E
7E
3C
00
00
00
00
00
3C
7E
7E
7E
3E
1C
1C
38
70
E0
80
ENDCHAR
STARTCHAR tonos
ENCODING 900
SWIDTH 400 0
DWIDTH 12 0
BBX 5 8 4 16
BITMAP
10
38
78
78
70
70
E0
C0
ENDCHAR
STARTCHAR dieresistonos
ENCODING 901
SWIDTH 400 0
DWIDTH 12 0
BBX 12 8 0 16
BITMAP
0700
0700
0F00
EF70
EE70
EE70
0E00
0400
ENDCHAR
STARTCHAR Alphatonos
ENCODING 902
SWIDTH 680 0
DWIDTH 20 0
BBX 20 20 0 0
BITMAP
387000
3CF800
78F800
78F800
71FC00
61FC00
E17C00
437E00
037E00
023E00
063F00
063F00
041F00
0FFF80
0FFF80
180F80
180FC0
180FC0
FE3FF0
FE3FF0
ENDCHAR
STARTCHAR anoteleia
ENCODING 903
SWIDTH 300 0
DWIDTH 9 0
BBX 5 5 2 10
BITMAP
F8
F8
F8
F8
F8
ENDCHAR
STARTCHAR Epsilontonos
ENCODING 904
SWIDTH 754 0
DWIDTH 23 0
BBX 23 20 -1 0
BITMAP
39FFFC
79FFFC
787E1C
787E1C
707E1C
E07E0C
C07E00
407E30
007E30
007FF0
007FF0
007E30
007E30
007E00
007E00
007E0E
007E0E
007E0E
01FFFE
01FFFE
ENDCHAR
STARTCHAR Etatonos
ENCODING 905
SWIDTH 919 0
DWIDTH 28 0
BBX 28 20 -1 0
BITMAP
39FFBFF0
79FFBFF0
787E0FC0
787E0FC0
707E0FC0
E07E0FC0
C07E0FC0
407E0FC0
007E0FC0
007FFFC0
007FFFC0
007E0FC0
007E0FC0
007E0FC0
007E0FC0
007E0FC0
007E0FC0
007E0FC0
01FFBFF0
01FFBFF0
ENDCHAR
STARTCHAR Iotatonos
ENCODING 906
SWIDTH 558 0
DWIDTH 17 0
BBX 17 20 -1 0
BITMAP
39FF80
79FF80
787E00
787E00
707E00
E07E00
C07E00
407E00
007E00
007E00
007E00
007E00
007E00
007E00
007E00
007E00
007E00
007E00
01FF80
01FF80
ENDCHAR
STARTCHAR Omicrontonos
ENCODING 908
SWIDTH 782 0
DWIDTH 23 0
BBX 24 21 -1 -1
BITMAP
383FC0
78FFF0
79F0F8
7BE0FC
73E07C
E7E07E
C7E07E
47E07E
0FC07F
0FC07F
0FC07F
0FC07F
0FE07E
07E07E
07E07E
07E07E
03E07C
01F0F8
00F9F0
007FE0
000600
ENDCHAR
STARTCHAR Upsilontonos
ENCODING 910
SWIDTH 800 0
DWIDTH 24 0
BBX 25 20 -1 0
BITMAP
39FF9F80
79FF9F80
78FE0600
78FE0E00
707F0C00
E07F0C00
C03F1800
403F9800
001FB000
001FF000
000FE000
000FE000
0007E000
0007E000
0007E000
0007E000
0007E000
0007E000
003FF800
003FF800
ENDCHAR
STARTCHAR Omegatonos
ENCODING 911
SWIDTH 826 0
DWIDTH 25 0
BBX 25 20 -1 0
BITMAP
383FE000
78FFF800
79F07C00
7BF03E00
73E03F00
E7E03F00
C7E01F00
47E01F00
07E01F00
07E01F00
07E03F00
07E03F00
03E03E00
01F07C00
0CF8F980
0C38F180
0FF8FF80
0FF8FF80
0FF8FF80
0FF8FF80
ENDCHAR
STARTCHAR iotadieresistonos
ENCODING 912
SWIDTH 330 0
DWIDTH 10 0
BBX 13 24 -1 0
BITMAP
0780
0780
0780
F770
F778
F678
0600
0200
0000
0380
1F80
1F00
1F00
1F00
1F00
1F00
1F00
1F00
1F00
1F00
1F00
1FE0
1FE0
0FC0
ENDCHAR
STARTCHAR Alpha
ENCODING 913
SWIDTH 680 0
DWIDTH 20 0
BBX 20 20 0 0
BITMAP
007000
00F800
00F800
00F800
01FC00
01FC00
017C00
037E00
037E00
023E00
063F00
063F00
041F00
0FFF80
0FFF80
180F80
180FC0
180FC0
FE3FF0
FE3FF0
ENDCHAR
STARTCHAR Beta
ENCODING 914
SWIDTH 660 0
DWIDTH 20 0
BBX 18 20 1 0
BITMAP
FFF000
FFFE00
3F3F00
3F1F80
3F1F80
3F1F80
3F1F80
3F1F00
3F3E00
3FF000
3FFF00
3F1F80
3F0FC0
3F0FC0
3F0FC0
3F0FC0
3F0FC0
3F1F80
FFFF00
FFFC00
ENDCHAR
STARTCHAR Gamma
ENCODING 915
SWIDTH 580 0
DWIDTH 17 0
BBX 16 20 1 0
BITMAP
FFFF
FFFF
3F0F
3F07
3F07
3F07
3F00
3F00
3F00
3F00
3F00
3F00
3F00
3F00
3F00
3F00
3F00
3F00
FFE0
FFE0
ENDCHAR
STARTCHAR Delta.dup7
ENCODING 916
SWIDTH 626 0
DWIDTH 19 0
BBX 17 20 1 0
BITMAP
01E000
01E000
03E000
03F000
07F000
07F800
05F800
0CF800
0CFC00
18FC00
187E00
107E00
307E00
303F00
603F00
603F80
601F80
FFFF80
FFFF80
FFFF80
ENDCHAR
STARTCHAR Epsilon
ENCODING 917
SWIDTH 591 0
DWIDTH 18 0
BBX 16 20 1 0
BITMAP
FFFE
FFFE
3F0E
3F0E
3F06
3F07
3F00
3F18
3F18
3FF8
3FF8
3F18
3F18
3F00
3F00
3F07
3F07
3F07
FFFF
FFFF
ENDCHAR
STARTCHAR Zeta
ENCODING 918
SWIDTH 568 0
DWIDTH 17 0
BBX 15 20 1 0
BITMAP
FFFE
FFFE
E0FE
E0FC
E1FC
E1F8
03F8
03F0
07F0
07E0
0FE0
1FC0
1F80
3F80
3F06
7F06
7E0E
FE0E
FFFE
FFFE
ENDCHAR
STARTCHAR Eta
ENCODING 919
SWIDTH 756 0
DWIDTH 23 0
BBX 21 20 1 0
BITMAP
FFDFF8
FFDFF8
3F07E0
3F07E0
3F07E0
3F07E0
3F07E0
3F07E0
3F07E0
3FFFE0
3FFFE0
3F07E0
3F07E0
3F07E0
3F07E0
3F07E0
3F07E0
3F07E0
FFDFF8
FFDFF8
ENDCHAR
STARTCHAR Theta
ENCODING 920
SWIDTH 720 0
DWIDTH 22 0
BBX 20 21 1 -1
BITMAP
03FC00
0FFF00
1F0F80
3E07C0
7C07E0
7C03E0
FC03E0
FD1BF0
FD9BF0
FDFBF0
FDFBF0
FD9BF0
FD1BF0
FC03E0
FC03E0
7C07E0
7E07C0
3E0F80
1F1F00
07FE00
007000
ENDCHAR
STARTCHAR Iota
ENCODING 921
SWIDTH 395 0
DWIDTH 12 0
BBX 10 20 1 0
BITMAP
FFC0
FFC0
3F00
3F00
3F00
3F00
3F00
3F00
3F00
3F00
3F00
3F00
3F00
3F00
3F00
3F00
3F00
3F00
FFC0
FFC0
ENDCHAR
STARTCHAR Kappa
ENCODING 922
SWIDTH 708 0
DWIDTH 21 0
BBX 20 20 1 0
BITMAP
FFCFE0
FFCFE0
3F0780
3F0600
3F0E00
3F1C00
3F1800
3F3800
3F7800
3FFC00
3FFE00
3FFE00
3F7F00
3F3F00
3F3F80
3F1F80
3F1FC0
3F0FC0
FF9FF0
FF9FF0
ENDCHAR
STARTCHAR Lambda
ENCODING 923
SWIDTH 656 0
DWIDTH 20 0
BBX 20 20 0 0
BITMAP
00F000
00F000
00F800
01F800
01F800
01FC00
03FC00
03FC00
067E00
067E00
067E00
0C3F00
0C3F00
0C3F80
181F80
181F80
181FC0
300FC0
FC7FF0
FC7FF0
ENDCHAR
STARTCHAR Mu
ENCODING 924
SWIDTH 893 0
DWIDTH 27 0
BBX 26 20 0 0
BITMAP
7FC03FC0
7FC07FC0
1FC07F00
1FE07F00
1FE0FF00
1FE0FF00
1BF0FF00
1BF1BF00
1BF1BF00
19F9BF00
19FB3F00
19FB3F00
18FF3F00
18FE3F00
187E3F00
187E3F00
187C3F00
183C3F00
FF3CFFC0
FF38FFC0
ENDCHAR
STARTCHAR Nu
ENCODING 925
SWIDTH 725 0
DWIDTH 22 0
BBX 20 20 1 0
BITMAP
FE0FF0
FF0FF0
3F83C0
3FC180
3FC180
3FE180
37F180
37F980
33F980
31FD80
30FF80
30FF80
307F80
303F80
303F80
301F80
300F80
300780
FF0780
FF0380
ENDCHAR
STARTCHAR Xi
ENCODING 926
SWIDTH 564 0
DWIDTH 17 0
BBX 15 20 1 0
BITMAP
FFFE
FFFE
FFFE
FFFE
C006
C006
0000
1830
1830
1FF0
1FF0
1FF0
1830
0000
C006
C006
FFFE
FFFE
FFFE
FFFE
ENDCHAR
STARTCHAR Omicron
ENCODING 927
SWIDTH 700 0
DWIDTH 21 0
BBX 19 21 1 -1
BITMAP
03F800
0FFE00
1F1F00
3E0F80
7E0FC0
7C07C0
FC07E0
FC07E0
FC07E0
FC07E0
FC07E0
FC07E0
FC07E0
FC07E0
7C07C0
7C0FC0
7E0FC0
3E0F80
1F1F00
07FC00
00E000
ENDCHAR
STARTCHAR Pi
ENCODING 928
SWIDTH 752 0
DWIDTH 23 0
BBX 21 20 1 0
BITMAP
FFFFF8
FFFFF8
3F07E0
3F07E0
3F07E0
3F07E0
3F07E0
3F07E0
3F07E0
3F07E0
3F07E0
3F07E0
3F07E0
3F07E0
3F07E0
3F07E0
3F07E0
3F07E0
FFDFF8
FFDFF8
ENDCHAR
STARTCHAR Rho
ENCODING 929
SWIDTH 622 0
DWIDTH 19 0
BBX 17 20 1 0
BITMAP
FF8000
FFFC00
3F7F00
3F1F80
3F0F80
3F0F80
3F0F80
3F0F80
3F1F80
3F1F00
3F3F00
3FFC00
3FC000
3F0000
3F0000
3F0000
3F0000
3F0000
FFE000
FFE000
ENDCHAR
STARTCHAR Sigma
ENCODING 931
SWIDTH 568 0
DWIDTH 17 0
BBX 15 20 1 0
BITMAP
FFFE
FFFE
FC1E
7C0E
3E0E
3E0E
1F00
1F80
0F80
07C0
0780
0700
0E06
1C0E
380E
700E
FFFE
FFFE
FFFE
FFFE
ENDCHAR
STARTCHAR Tau
ENCODING 932
SWIDTH 646 0
DWIDTH 19 0
BBX 18 20 1 0
BITMAP
FFFFC0
FFFFC0
E3F1C0
E3F1C0
E3F1C0
E3F1C0
03F000
03F000
03F000
03F000
03F000
03F000
03F000
03F000
03F000
03F000
03F000
03F000
1FFC00
1FFC00
ENDCHAR
STARTCHAR Upsilon
ENCODING 933
SWIDTH 621 0
DWIDTH 19 0
BBX 19 20 0 0
BITMAP
FFC7E0
FFC7E0
3F0380
3F8300
1F8300
1FC600
0FC600
0FEC00
07EC00
07F800
03F800
03F000
03F000
03F000
03F000
03F000
03F000
03F000
0FFE00
0FFE00
ENDCHAR
STARTCHAR Phi
ENCODING 934
SWIDTH 824 0
DWIDTH 25 0
BBX 22 20 1 0
BITMAP
01FF00
01FF00
007C00
01FE00
0FFFE0
3F7DF0
7E7CF8
7C7C7C
7C7C7C
FC7C7C
7C7C7C
7C7C7C
7C7C7C
3E7CF8
3FFFF0
0FFFE0
007C00
007C00
01FF00
01FF00
ENDCHAR
STARTCHAR Chi
ENCODING 935
SWIDTH 657 0
DWIDTH 20 0
BBX 20 20 0 0
BITMAP
FFCFC0
FFCFC0
3F8300
1F8700
1FC600
0FCC00
0FFC00
07F800
03F000
03F800
01F800
01FC00
03FC00
07FE00
067F00
0C3F00
1C3F80
181F80
FC7FF0
FC7FF0
ENDCHAR
STARTCHAR Psi
ENCODING 936
SWIDTH 852 0
DWIDTH 26 0
BBX 26 20 0 0
BITMAP
C07F81C0
FC7F8FC0
7C3E1F80
3E3E1F00
3E3E1F00
3E3E3E00
3E3E3E00
3E3E3E00
1E3E3E00
1F3E3E00
1F3E7C00
0FBEF800
03FFF000
007F8000
003E0000
003E0000
003E0000
003E0000
00FFC000
00FFC000
ENDCHAR
STARTCHAR Omega.dup8
ENCODING 937
SWIDTH 744 0
DWIDTH 22 0
BBX 22 20 0 0
BITMAP
01FE00
07FF80
0F87E0
1F03F0
3F01F0
3E01F8
7E01F8
7E01F8
7E01F8
7E01F8
3E01F8
3F01F0
1F03F0
1F03E0
EF87CC
E3CF1C
FFCFFC
FFCFFC
7FC7FC
7FC7FC
ENDCHAR
STARTCHAR Iotadieresis
ENCODING 938
SWIDTH 395 0
DWIDTH 12 0
BBX 10 26 1 0
BITMAP
4100
F3C0
F3C0
F3C0
E380
0000
FFC0
FFC0
3F00
3F00
3F00
3F00
3F00
3F00
3F00
3F00
3F00
3F00
3F00
3F00
3F00
3F00
3F00
3F00
FFC0
FFC0
ENDCHAR
STARTCHAR Upsilondieresis
ENCODING 939
SWIDTH 621 0
DWIDTH 19 0
BBX 19 26 0 0
BITMAP
010100
078780
07C7C0
07C780
038380
000000
FFC7E0
FFC7E0
3F0380
3F8300
1F8300
1FC600
0FC600
0FEC00
07EC00
07F800
03F800
03F000
03F000
03F000
03F000
03F000
03F000
03F000
0FFE00
0FFE00
ENDCHAR
STARTCHAR alphatonos
ENCODING 940
SWIDTH 599 0
DWIDTH 18 0
BBX 17 24 1 0
BITMAP
004000
00E000
01E000
01E000
01C000
01C000
038000
030000
000000
1F0E00
3FBE00
7EFE00
7C7E00
F87E00
F87E00
F87C00
F87C00
F87C00
F87C00
F87C00
FC7C00
7CFF80
7FBF80
3F1F00
ENDCHAR
STARTCHAR epsilontonos
ENCODING 941
SWIDTH 509 0
DWIDTH 15 0
BBX 14 24 1 0
BITMAP
0040
00E0
01E0
01E0
01C0
01C0
0380
0300
0000
1FE0
3FF8
7CF8
7878
7800
7C00
3FC0
0FC0
3FC0
7C00
F808
FC1C
FFF8
7FF0
3FE0
ENDCHAR
STARTCHAR etatonos
ENCODING 942
SWIDTH 597 0
DWIDTH 18 0
BBX 16 30 0 -6
BITMAP
0020
0070
00F0
00F0
00E0
00E0
01C0
0180
0000
3C3C
7EFE
FEFF
3FBF
3F1F
3F1F
3F1F
3F1F
3F1F
3F1F
3F1F
3F1F
3F1F
3F1F
3F1F
001F
001F
001F
001F
001F
0038
ENDCHAR
STARTCHAR iotatonos
ENCODING 943
SWIDTH 330 0
DWIDTH 10 0
BBX 8 24 2 0
BITMAP
08
1C
3C
3C
38
38
70
60
00
1C
FC
F8
F8
F8
F8
F8
F8
F8
F8
F8
F8
FF
FF
7E
ENDCHAR
STARTCHAR upsilondieresistonos
ENCODING 944
SWIDTH 557 0
DWIDTH 17 0
BBX 16 24 0 0
BITMAP
00E0
01E0
01E0
1DEE
1DDE
1DCE
0180
0080
0000
3C1C
7E3E
FF3E
3F3E
3F1F
3F1F
3E0F
3E07
3E07
3E06
3E06
3F06
3F0E
1FFC
0FF8
ENDCHAR
STARTCHAR alpha
ENCODING 945
SWIDTH 599 0
DWIDTH 18 0
BBX 17 15 1 0
BITMAP
1F0E00
3FBE00
7EFE00
7C7E00
F87E00
F87E00
F87C00
F87C00
F87C00
F87C00
F87C00
FC7C00
7CFF80
7FBF80
3F1F00
ENDCHAR
STARTCHAR beta
ENCODING 946
SWIDTH 601 0
DWIDTH 18 0
BBX 16 28 1 -6
BITMAP
01C0
0FF8
1E3C
3C3E
3C3E
7C3E
7C3E
7C3C
7C7C
7CF8
7DE0
7DF8
7CFE
7C3E
7C1F
7C1F
7C1F
7C1F
7C1F
7E7E
7FFE
7FFC
7C00
7C00
7E00
7E00
7E00
E000
ENDCHAR
STARTCHAR gamma
ENCODING 947
SWIDTH 557 0
DWIDTH 17 0
BBX 16 21 0 -6
BITMAP
3C0E
7E1F
FF1F
BF1F
1F1E
1F9E
1F9E
0F8C
0F8C
07DC
07D8
07F8
03F0
03E0
03E0
03E0
03E0
03E0
03E0
03E0
0300
ENDCHAR
STARTCHAR delta
ENCODING 948
SWIDTH 552 0
DWIDTH 17 0
BBX 15 22 1 0
BITMAP
0180
1FF0
3CFC
3C7C
7C3C
3F18
3F80
3FC0
0FE0
07F8
1FF8
7FFC
7CFC
FC7E
F87E
F83E
F83E
F83E
F83C
FC78
7E78
1FE0
ENDCHAR
STARTCHAR epsilon
ENCODING 949
SWIDTH 509 0
DWIDTH 15 0
BBX 14 15 1 0
BITMAP
1FE0
3FF8
7CF8
7878
7800
7C00
3FC0
0FC0
3FC0
7C00
F808
FC1C
FFF8
7FF0
3FE0
ENDCHAR
STARTCHAR zeta
ENCODING 950
SWIDTH 437 0
DWIDTH 13 0
BBX 13 28 0 -6
BITMAP
7FC0
7FF0
7FF8
7FF0
00F0
01E0
03C0
0780
0F00
1E00
1E00
3C00
7C00
7800
7800
F800
F800
FC00
7F80
7FE0
3FF0
0FF0
01F0
0070
0070
0070
00E0
00C0
ENDCHAR
STARTCHAR eta
ENCODING 951
SWIDTH 597 0
DWIDTH 18 0
BBX 16 21 0 -6
BITMAP
3C3C
7EFE
FEFF
3FBF
3F1F
3F1F
3F1F
3F1F
3F1F
3F1F
3F1F
3F1F
3F1F
3F1F
3F1F
001F
001F
001F
001F
001F
0038
ENDCHAR
STARTCHAR theta
ENCODING 952
SWIDTH 530 0
DWIDTH 16 0
BBX 14 22 1 0
BITMAP
0380
0FE0
3DF0
38F8
78F8
7878
F87C
F87C
F87C
F87C
FFFC
FFFC
F87C
F87C
F87C
F87C
F878
7878
7878
7CF0
3EE0
1FC0
ENDCHAR
STARTCHAR iota
ENCODING 953
SWIDTH 330 0
DWIDTH 10 0
BBX 8 15 2 0
BITMAP
1C
FC
F8
F8
F8
F8
F8
F8
F8
F8
F8
F8
FF
FF
7E
ENDCHAR
STARTCHAR kappa
ENCODING 954
SWIDTH 577 0
DWIDTH 17 0
BBX 17 15 0 0
BITMAP
3C0700
7E1F00
FE3F00
3E7F00
3E7E00
1EC000
1FC000
1FC000
1F6000
3E7000
3E7800
3E3F80
3E3F80
3E1F00
3E1E00
ENDCHAR
STARTCHAR lambda
ENCODING 955
SWIDTH 609 0
DWIDTH 18 0
BBX 19 22 0 0
BITMAP
0C0000
3F0000
7F0000
7F8000
738000
00C000
00C000
00C000
01E000
01E000
03E000
03F000
07F000
07F000
0FB800
1F9800
1F9C00
3F1C00
3F1FE0
7F0FC0
7E0FC0
FE0780
ENDCHAR
STARTCHAR mu
ENCODING 956
SWIDTH 596 0
DWIDTH 18 0
BBX 17 21 1 -6
BITMAP
1C1E00
7C7E00
7C7E00
7C7E00
7C7E00
7C7E00
7C3C00
7C3C00
7C3C00
7C3C00
7C3C00
7E7C00
7FFF80
7FFF80
7F9F00
780000
7C0000
7C0000
7C0000
7C0000
E00000
ENDCHAR
STARTCHAR nu
ENCODING 957
SWIDTH 558 0
DWIDTH 17 0
BBX 16 15 0 0
BITMAP
3C0E
7E1F
FF1F
BF1F
1F9E
1F9E
0F9E
0F8E
0F8C
07DC
07D8
07D8
03F0
03E0
03E0
ENDCHAR
STARTCHAR xi
ENCODING 958
SWIDTH 451 0
DWIDTH 14 0
BBX 12 28 1 -6
BITMAP
FF80
FFF0
FFF0
FFF0
0F00
1C00
3C00
7C00
7C00
7FE0
3FE0
1FE0
1FE0
7800
F000
F000
F000
FC00
FF00
FFC0
7FE0
1FE0
03F0
00F0
00E0
00E0
00C0
01C0
ENDCHAR
STARTCHAR omicron
ENCODING 959
SWIDTH 560 0
DWIDTH 17 0
BBX 15 15 1 0
BITMAP
0FE0
3FF8
7CFC
787C
F87E
F87E
F83E
F83E
F83E
F83E
F83E
7C3C
7C7C
3FF8
1FE0
ENDCHAR
STARTCHAR pi
ENCODING 960
SWIDTH 623 0
DWIDTH 19 0
BBX 18 15 0 0
BITMAP
0FFFC0
3FFFC0
FFFFC0
FFFFC0
E63C40
063C00
063C00
063C00
063E00
063E00
1E3E00
7E3E00
7E3FC0
7E3FC0
7C1F80
ENDCHAR
STARTCHAR rho
ENCODING 961
SWIDTH 601 0
DWIDTH 18 0
BBX 15 21 1 -6
BITMAP
07F0
1FF8
3C7C
3C7E
7C3E
7C3E
7C3E
7C3E
7C3E
7C3E
7C3E
7C3E
7C7C
7FF8
7FF0
7C00
7C00
FC00
FE00
FE00
6000
ENDCHAR
STARTCHAR uni03C2
ENCODING 962
SWIDTH 469 0
DWIDTH 14 0
BBX 12 21 1 -6
BITMAP
0FE0
1FF0
3DF0
78F0
F000
F000
F000
F000
F000
F800
FC00
7F00
7FC0
3FE0
0FF0
03F0
00F0
00F0
00E0
00E0
01C0
ENDCHAR
STARTCHAR sigma
ENCODING 963
SWIDTH 633 0
DWIDTH 19 0
BBX 17 15 1 0
BITMAP
01FF80
1FFF80
3EFF80
7CFF80
F87800
F87C00
F87C00
F83E00
F83E00
F83E00
F83C00
FC7C00
7C7800
3FF800
1FE000
ENDCHAR
STARTCHAR tau
ENCODING 964
SWIDTH 485 0
DWIDTH 15 0
BBX 14 15 0 0
BITMAP
0FFC
3FFC
FFFC
FFFC
F784
0780
0780
0780
0F80
0F80
0F80
0F80
0FF0
07F0
07F0
ENDCHAR
STARTCHAR upsilon
ENCODING 965
SWIDTH 557 0
DWIDTH 17 0
BBX 16 15 0 0
BITMAP
3C1C
7E3E
FF3E
3F3E
3F1F
3F1F
3E0F
3E07
3E07
3E06
3E06
3F06
3F0E
1FFC
0FF8
ENDCHAR
STARTCHAR phi
ENCODING 966
SWIDTH 774 0
DWIDTH 23 0
BBX 21 25 1 -6
BITMAP
007800
007800
007800
007800
07FF80
1FFFE0
3E7BF0
7C79F8
F878F8
F878F8
F878F8
F878F8
F878F8
F8F8F8
F8F8F8
FCF8F8
7CF9F0
3FFBE0
1FFFC0
01FC00
00F800
00F800
00F800
00F800
00F000
ENDCHAR
STARTCHAR chi
ENCODING 967
SWIDTH 569 0
DWIDTH 17 0
BBX 17 21 0 -6
BITMAP
3C1F80
7E1F80
FE3F00
5F3F00
077E00
037C00
01FC00
01F800
01F800
01F000
03F000
03E000
07E000
07E000
0FE000
1FB000
1F3800
3F3F80
3F3F80
7E1F80
7E0F00
ENDCHAR
STARTCHAR psi
ENCODING 968
SWIDTH 799 0
DWIDTH 24 0
BBX 23 25 0 -6
BITMAP
001E00
001E00
001E00
001E00
3C1E1C
7E1E3E
FF1E3E
3F1E3E
3F1E3E
3F1E3E
3F1E1E
3F1E1E
3E1E1C
3E1E0C
3F1E1C
1F1E18
1F9E78
0FFFF0
03FFC0
001E00
001E00
001E00
003E00
003E00
003C00
ENDCHAR
STARTCHAR omega
ENCODING 969
SWIDTH 797 0
DWIDTH 24 0
BBX 22 15 1 0
BITMAP
060180
1E01E0
3C00F0
7C18F0
7C78F8
F87878
F8787C
F8787C
F8787C
F8787C
F8787C
FC78F8
7FFFF8
3FDFF0
1FCFE0
ENDCHAR
STARTCHAR iotadieresis
ENCODING 970
SWIDTH 330 0
DWIDTH 10 0
BBX 12 22 -1 0
BITMAP
30C0
79E0
FDF0
79E0
78E0
0000
0000
0380
1F80
1F00
1F00
1F00
1F00
1F00
1F00
1F00
1F00
1F00
1F00
1FE0
1FE0
0FC0
ENDCHAR
STARTCHAR upsilondieresis
ENCODING 971
SWIDTH 557 0
DWIDTH 17 0
BBX 16 22 0 0
BITMAP
1C18
3E3C
3E3E
3E3E
1C1C
0000
0000
3C1C
7E3E
FF3E
3F3E
3F1F
3F1F
3E0F
3E07
3E07
3E06
3E06
3F06
3F0E
1FFC
0FF8
ENDCHAR
STARTCHAR omicrontonos
ENCODING 972
SWIDTH 560 0
DWIDTH 17 0
BBX 15 24 1 0
BITMAP
0040
00E0
01E0
01E0
01C0
01C0
0380
0300
0000
0FE0
3FF8
7CFC
787C
F87E
F87E
F83E
F83E
F83E
F83E
F83E
7C3C
7C7C
3FF8
1FE0
ENDCHAR
STARTCHAR upsilontonos
ENCODING 973
SWIDTH 557 0
DWIDTH 17 0
BBX 16 24 0 0
BITMAP
0020
0070
00F0
00F0
00E0
00E0
01C0
0180
0000
3C1C
7E3E
FF3E
3F3E
3F1F
3F1F
3E0F
3E07
3E07
3E06
3E06
3F06
3F0E
1FFC
0FF8
ENDCHAR
STARTCHAR omegatonos
ENCODING 974
SWIDTH 797 0
DWIDTH 24 0
BBX 22 24 1 0
BITMAP
000400
000E00
001E00
001E00
001C00
001C00
003800
003000
000000
060180
1E01E0
3C00F0
7C18F0
7C78F8
F87878
F8787C
F8787C
F8787C
F8787C
F8787C
FC78F8
7FFFF8
3FDFF0
1FCFE0
ENDCHAR
STARTCHAR uni03D7
ENCODING 983
SWIDTH 724 0
DWIDTH 22 0
BBX 20 22 0 -7
BITMAP
0780E0
0FC3E0
1FC7E0
0FCFE0
07CFC0
07D800
07F000
07F800
07FC00
07CE00
07CF00
07C7F0
07C7F0
07C3F0
C7C1E0
E00060
7001C0
7C07C0
7FFF80
3FFF00
1FFE00
03F000
ENDCHAR
STARTCHAR uni03D9
ENCODING 985
SWIDTH 556 0
DWIDTH 17 0
BBX 15 21 1 -6
BITMAP
0FE0
3FF8
7CFC
787C
F87E
F87E
F83E
F83E
F83E
F83E
F83E
FC3C
7C7C
3FF8
1FE0
03C0
03C0
07C0
07C0
07E0
0700
ENDCHAR
STARTCHAR uni03DB
ENCODING 987
SWIDTH 500 0
DWIDTH 15 0
BBX 14 24 1 -6
BITMAP
000C
001C
0018
01F8
1FF8
3FF0
7FF0
FFE0
F800
E000
E000
E000
E000
FC00
7F00
7FC0
3FE0
1FF0
03F0
00F0
00F0
00F0
00E0
01C0
ENDCHAR
STARTCHAR uni03DD
ENCODING 989
SWIDTH 484 0
DWIDTH 15 0
BBX 13 21 1 -6
BITMAP
00F8
7FF8
7CF8
7C00
7C00
7C00
7C00
7C00
7C00
7FF0
7FF0
7C00
7C00
7C00
7C00
7C00
7C00
7C00
7C00
7C00
E000
ENDCHAR
STARTCHAR uni03E1
ENCODING 993
SWIDTH 612 0
DWIDTH 18 0
BBX 16 27 1 -5
BITMAP
6000
FC00
7F00
3F80
0FE0
07F0
03F0
01F8
01FC
0FFC
FFFE
FF7E
787E
603E
003E
00FF
0FFF
3FFF
1F1E
1C1E
101E
001E
001E
001C
003C
0038
0038
ENDCHAR
STARTCHAR uni0400
ENCODING 1024
SWIDTH 591 0
DWIDTH 18 0
BBX 16 26 1 0
BITMAP
1C00
3E00
1F80
0FC0
01C0
0000
FFFE
FFFE
3F0E
3F0E
3F06
3F07
3F00
3F18
3F18
3FF8
3FF8
3F18
3F18
3F00
3F00
3F07
3F07
3F07
FFFF
FFFF
ENDCHAR
STARTCHAR uni0401
ENCODING 1025
SWIDTH 591 0
DWIDTH 18 0
BBX 16 26 1 0
BITMAP
0808
3C3C
3E3C
3E3C
1C3C
0000
FFFE
FFFE
3F0E
3F0E
3F06
3F07
3F00
3F18
3F18
3FF8
3FF8
3F18
3F18
3F00
3F00
3F07
3F07
3F07
FFFF
FFFF
ENDCHAR
STARTCHAR uni0402
ENCODING 1026
SWIDTH 742 0
DWIDTH 22 0
BBX 21 22 1 -2
BITMAP
FFFFC0
FFFFC0
E7E1C0
E7E1C0
E7E1C0
E7E1C0
07E000
07E000
07FFC0
07FFF0
07E3F0
07E1F8
07E1F8
07E1F8
07E1F8
07E1F8
07E1F8
07E1F0
1FE3F0
1FE3E0
000FC0
000F00
ENDCHAR
STARTCHAR uni0403
ENCODING 1027
SWIDTH 580 0
DWIDTH 17 0
BBX 16 26 1 0
BITMAP
003C
007C
00FC
01F0
01C0
0000
FFFF
FFFF
3F0F
3F07
3F07
3F07
3F00
3F00
3F00
3F00
3F00
3F00
3F00
3F00
3F00
3F00
3F00
3F00
FFE0
FFE0
ENDCHAR
STARTCHAR uni0404
ENCODING 1028
SWIDTH 605 0
DWIDTH 18 0
BBX 16 21 1 -1
BITMAP
03FC
0FFF
3F07
3E07
7C07
FC03
FC00
FC30
FC30
FFF0
FFF0
FC30
FC30
FC00
FC03
7C03
7E07
3E07
1F8F
07FE
0060
ENDCHAR
STARTCHAR uni0405
ENCODING 1029
SWIDTH 553 0
DWIDTH 17 0
BBX 15 21 1 -1
BITMAP
0FF0
3FFC
7C3C
7C3C
FC3C
FC1C
FE00
FF80
7FE0
7FF0
3FF8
0FFC
03FE
00FE
E07E
E07E
F07C
F07C
F8F8
7FF0
0300
ENDCHAR
STARTCHAR uni0406
ENCODING 1030
SWIDTH 395 0
DWIDTH 12 0
BBX 10 20 1 0
BITMAP
FFC0
FFC0
3F00
3F00
3F00
3F00
3F00
3F00
3F00
3F00
3F00
3F00
3F00
3F00
3F00
3F00
3F00
3F00
FFC0
FFC0
ENDCHAR
STARTCHAR uni0407
ENCODING 1031
SWIDTH 395 0
DWIDTH 12 0
BBX 10 26 1 0
BITMAP
4100
F3C0
F3C0
F3C0
E380
0000
FFC0
FFC0
3F00
3F00
3F00
3F00
3F00
3F00
3F00
3F00
3F00
3F00
3F00
3F00
3F00
3F00
3F00
3F00
FFC0
FFC0
ENDCHAR
STARTCHAR uni0408
ENCODING 1032
SWIDTH 404 0
DWIDTH 12 0
BBX 14 25 -3 -5
BITMAP
0FFC
0FFC
03F0
03F0
03F0
03F0
03F0
03F0
03F0
03F0
03F0
03F0
03F0
03F0
03F0
03F0
03F0
03F0
03F0
03E0
03E0
73E0
FBC0
FF80
7E00
ENDCHAR
STARTCHAR uni0409
ENCODING 1033
SWIDTH 945 0
DWIDTH 28 0
BBX 28 20 0 0
BITMAP
07FFF800
07FFF800
01C7E000
00C7E000
0087E000
0087E000
0187E000
0187E000
0187FF00
0187FFC0
0187E7E0
0187E3E0
0307E3F0
0307E3F0
0307E3F0
3707E3F0
7E07E3E0
FE07E7E0
FC1FFFC0
7C1FFE00
ENDCHAR
STARTCHAR uni040A
ENCODING 1034
SWIDTH 992 0
DWIDTH 30 0
BBX 28 20 1 0
BITMAP
FFDFF800
FFDFF800
3F0FC000
3F0FC000
3F0FC000
3F0FC000
3F0FC000
3F0FC000
3FFFFE00
3FFFFFC0
3F0FC7E0
3F0FC3F0
3F0FC3F0
3F0FC1F0
3F0FC1F0
3F0FC3F0
3F0FC3F0
3F0FC7E0
FFDFFFC0
FFDFFF00
ENDCHAR
STARTCHAR uni040B
ENCODING 1035
SWIDTH 790 0
DWIDTH 24 0
BBX 22 20 1 0
BITMAP
FFFFC0
FFFFC0
E7E1C0
E7E1C0
E7E1C0
E7E1C0
07E000
07E000
07FFE0
07FFF0
07E1F0
07E1F8
07E1F8
07E1F8
07E1F8
07E1F8
07E1F8
07E1F8
1FFBFC
1FFBFC
ENDCHAR
STARTCHAR uni040C
ENCODING 1036
SWIDTH 715 0
DWIDTH 21 0
BBX 20 26 1 0
BITMAP
000F00
001F00
003F00
007C00
007000
000000
FFC1C0
FFC3E0
3F07E0
3F07E0
3F07C0
3F0C00
3F0C00
3F1800
3F3800
3FF000
3FFC00
3F1F00
3F1F80
3F0F80
3F0FC0
3F0FC0
3F0FC0
3F0FC0
FFC7F0
FFC7F0
ENDCHAR
STARTCHAR uni040D
ENCODING 1037
SWIDTH 772 0
DWIDTH 23 0
BBX 21 26 1 0
BITMAP
078000
07C000
07E000
01F000
007800
000000
FFDFF8
FFDFF8
3F03E0
3F03E0
3F07E0
3F07E0
3F0FE0
3F1FE0
3F1BE0
3F33E0
3F73E0
3F63E0
3FC3E0
3FC3E0
3F87E0
3F07E0
3F07E0
3E07E0
FFDFF8
FFDFF8
ENDCHAR
STARTCHAR uni040E
ENCODING 1038
SWIDTH 661 0
DWIDTH 20 0
BBX 20 29 0 -3
BITMAP
03C3C0
03C3C0
03C3C0
01C1C0
00FF80
000000
FFC3F0
FFC3F0
3F00C0
3F81C0
1F8180
1F8380
0FC300
0FC300
07E600
07E600
07EC00
03FC00
03FC00
01F800
01F800
00F000
00F000
006000
1E6000
3FC000
3F8000
1F8000
040000
ENDCHAR
STARTCHAR uni040F
ENCODING 1039
SWIDTH 742 0
DWIDTH 22 0
BBX 20 26 1 -6
BITMAP
FFDFF0
FFDFF0
3F0FC0
3F0FC0
3F0FC0
3F0FC0
3F0FC0
3F0FC0
3F0FC0
3F0FC0
3F0FC0
3F0FC0
3F0FC0
3F0FC0
3F0FC0
3F0FC0
3F0FC0
3F0FC0
FFFFF0
FFFFF0
00F000
00F000
007000
007000
007000
007000
ENDCHAR
STARTCHAR uni0410
ENCODING 1040
SWIDTH 680 0
DWIDTH 20 0
BBX 20 20 0 0
BITMAP
007000
00F800
00F800
00F800
01FC00
01FC00
017C00
037E00
037E00
023E00
063F00
063F00
041F00
0FFF80
0FFF80
180F80
180FC0
180FC0
FE3FF0
FE3FF0
ENDCHAR
STARTCHAR uni0411
ENCODING 1041
SWIDTH 626 0
DWIDTH 19 0
BBX 17 20 1 0
BITMAP
FFFE00
FFFE00
3F0E00
3F0E00
3F0600
3F0600
3F0100
3F0000
3FF800
3FFE00
3F3F00
3F1F80
3F1F80
3F0F80
3F0F80
3F1F80
3F1F80
3F3F00
FFFE00
FFF800
ENDCHAR
STARTCHAR uni0412
ENCODING 1042
SWIDTH 660 0
DWIDTH 20 0
BBX 18 20 1 0
BITMAP
FFF000
FFFE00
3F3F00
3F1F80
3F1F80
3F1F80
3F1F80
3F1F00
3F3E00
3FF000
3FFF00
3F1F80
3F0FC0
3F0FC0
3F0FC0
3F0FC0
3F0FC0
3F1F80
FFFF00
FFFC00
ENDCHAR
STARTCHAR uni0413
ENCODING 1043
SWIDTH 580 0
DWIDTH 17 0
BBX 16 20 1 0
BITMAP
FFFF
FFFF
3F0F
3F07
3F07
3F07
3F00
3F00
3F00
3F00
3F00
3F00
3F00
3F00
3F00
3F00
3F00
3F00
FFE0
FFE0
ENDCHAR
STARTCHAR uni0414
ENCODING 1044
SWIDTH 724 0
DWIDTH 22 0
BBX 21 26 0 -6
BITMAP
07FFF0
07FFF0
018FC0
018FC0
018FC0
018FC0
018FC0
018FC0
030FC0
030FC0
030FC0
030FC0
060FC0
060FC0
0E0FC0
0C0FC0
1C0FC0
380FC0
FFFFF8
FFFFF8
F00038
E00038
E00038
E00038
E00018
E00018
ENDCHAR
STARTCHAR uni0415
ENCODING 1045
SWIDTH 591 0
DWIDTH 18 0
BBX 16 20 1 0
BITMAP
FFFE
FFFE
3F0E
3F0E
3F06
3F07
3F00
3F18
3F18
3FF8
3FF8
3F18
3F18
3F00
3F00
3F07
3F07
3F07
FFFF
FFFF
ENDCHAR
STARTCHAR uni0416
ENCODING 1046
SWIDTH 1000 0
DWIDTH 30 0
BBX 30 20 0 0
BITMAP
3C3FF0F0
7E3FF1F8
7E0FC1F8
3F0FC3F0
3F0FC3F0
030FC300
018FC600
018FC600
00CFCC00
007FF800
03FFFF00
07CFCF80
0F8FC7C0
1F8FC7E0
1F8FC7E0
1F8FC7E0
3F0FC3F0
3F0FC3F0
FF3FF3FC
FE3FF1FC
ENDCHAR
STARTCHAR uni0417
ENCODING 1047
SWIDTH 565 0
DWIDTH 17 0
BBX 16 21 1 -1
BITMAP
3FE0
7FF8
70FC
707E
707E
707E
007C
007C
00F8
0FC0
0FF8
00FC
007E
007E
E07F
F07E
F07E
F0FE
71FC
3FF0
0300
ENDCHAR
STARTCHAR uni0418
ENCODING 1048
SWIDTH 772 0
DWIDTH 23 0
BBX 21 20 1 0
BITMAP
FFDFF8
FFDFF8
3F03E0
3F03E0
3F07E0
3F07E0
3F0FE0
3F1FE0
3F1BE0
3F33E0
3F73E0
3F63E0
3FC3E0
3FC3E0
3F87E0
3F07E0
3F07E0
3E07E0
FFDFF8
FFDFF8
ENDCHAR
STARTCHAR uni0419
ENCODING 1049
SWIDTH 772 0
DWIDTH 23 0
BBX 21 26 1 0
BITMAP
070780
0F0780
0F0780
070700
03FE00
000000
FFDFF8
FFDFF8
3F03E0
3F03E0
3F07E0
3F07E0
3F0FE0
3F1FE0
3F1BE0
3F33E0
3F73E0
3F63E0
3FC3E0
3FC3E0
3F87E0
3F07E0
3F07E0
3E07E0
FFDFF8
FFDFF8
ENDCHAR
STARTCHAR uni041A
ENCODING 1050
SWIDTH 715 0
DWIDTH 21 0
BBX 20 20 1 0
BITMAP
FFC1C0
FFC3E0
3F07E0
3F07E0
3F07C0
3F0C00
3F0C00
3F1800
3F3800
3FF000
3FFC00
3F1F00
3F1F80
3F0F80
3F0FC0
3F0FC0
3F0FC0
3F0FC0
FFC7F0
FFC7F0
ENDCHAR
STARTCHAR uni041B
ENCODING 1051
SWIDTH 715 0
DWIDTH 21 0
BBX 21 20 0 0
BITMAP
07FFF8
07FFF8
01C7E0
00C7E0
0087E0
0087E0
0187E0
0187E0
0187E0
0187E0
0187E0
0187E0
0307E0
0307E0
0307E0
3707E0
7E07E0
FE07E0
FC1FF8
7C1FF8
ENDCHAR
STARTCHAR uni041C
ENCODING 1052
SWIDTH 893 0
DWIDTH 27 0
BBX 26 20 0 0
BITMAP
7FC03FC0
7FC07FC0
1FC07F00
1FE07F00
1FE0FF00
1FE0FF00
1BF0FF00
1BF1BF00
1BF1BF00
19F9BF00
19FB3F00
19FB3F00
18FF3F00
18FE3F00
187E3F00
187E3F00
187C3F00
183C3F00
FF3CFFC0
FF38FFC0
ENDCHAR
STARTCHAR uni041D
ENCODING 1053
SWIDTH 756 0
DWIDTH 23 0
BBX 21 20 1 0
BITMAP
FFDFF8
FFDFF8
3F07E0
3F07E0
3F07E0
3F07E0
3F07E0
3F07E0
3F07E0
3FFFE0
3FFFE0
3F07E0
3F07E0
3F07E0
3F07E0
3F07E0
3F07E0
3F07E0
FFDFF8
FFDFF8
ENDCHAR
STARTCHAR uni041E
ENCODING 1054
SWIDTH 700 0
DWIDTH 21 0
BBX 19 21 1 -1
BITMAP
03F800
0FFE00
1F1F00
3E0F80
7E0FC0
7C07C0
FC07E0
FC07E0
FC07E0
FC07E0
FC07E0
FC07E0
FC07E0
FC07E0
7C07C0
7C0FC0
7E0FC0
3E0F80
1F1F00
07FC00
00E000
ENDCHAR
STARTCHAR uni041F
ENCODING 1055
SWIDTH 746 0
DWIDTH 22 0
BBX 21 20 1 0
BITMAP
FFFFF8
FFFFF8
3F0FE0
3F07E0
3F07E0
3F07E0
3F07E0
3F07E0
3F07E0
3F07E0
3F07E0
3F07E0
3F07E0
3F07E0
3F07E0
3F07E0
3F07E0
3F07E0
FFDFF8
FFDFF8
ENDCHAR
STARTCHAR uni0420
ENCODING 1056
SWIDTH 622 0
DWIDTH 19 0
BBX 17 20 1 0
BITMAP
FF8000
FFFC00
3F7F00
3F1F80
3F0F80
3F0F80
3F0F80
3F0F80
3F1F80
3F1F00
3F3F00
3FFC00
3FC000
3F0000
3F0000
3F0000
3F0000
3F0000
FFE000
FFE000
ENDCHAR
STARTCHAR uni0421
ENCODING 1057
SWIDTH 618 0
DWIDTH 19 0
BBX 17 21 1 -1
BITMAP
03FE00
0FFF80
1F8780
3F0380
7E0380
7E0380
FC0000
FC0000
FC0000
FC0000
FC0000
FC0000
FC0000
FC0000
FC0380
7E0380
7E0380
3F0380
1FC780
07FF00
00E000
ENDCHAR
STARTCHAR uni0422
ENCODING 1058
SWIDTH 646 0
DWIDTH 19 0
BBX 18 20 1 0
BITMAP
FFFFC0
FFFFC0
E3F1C0
E3F1C0
E3F1C0
E3F1C0
03F000
03F000
03F000
03F000
03F000
03F000
03F000
03F000
03F000
03F000
03F000
03F000
1FFC00
1FFC00
ENDCHAR
STARTCHAR uni0423
ENCODING 1059
SWIDTH 661 0
DWIDTH 20 0
BBX 20 23 0 -3
BITMAP
FFC3F0
FFC3F0
3F00C0
3F81C0
1F8180
1F8380
0FC300
0FC300
07E600
07E600
07EC00
03FC00
03FC00
01F800
01F800
00F000
00F000
006000
1E6000
3FC000
3F8000
1F8000
040000
ENDCHAR
STARTCHAR uni0424
ENCODING 1060
SWIDTH 784 0
DWIDTH 24 0
BBX 22 21 1 -1
BITMAP
03FE00
03FE00
00F800
07FF00
1FFFE0
3EF9F0
7CF8F8
F8F8F8
F8F8F8
F8F8FC
F8F8FC
F8F8FC
F8F8F8
7CF8F8
7EF9F0
1FFFE0
07FF80
00F800
00F800
03FE00
03FE00
ENDCHAR
STARTCHAR uni0425
ENCODING 1061
SWIDTH 657 0
DWIDTH 20 0
BBX 20 20 0 0
BITMAP
FFCFC0
FFCFC0
3F8300
1F8700
1FC600
0FCC00
0FFC00
07F800
03F000
03F800
01F800
01FC00
03FC00
07FE00
067F00
0C3F00
1C3F80
181F80
FC7FF0
FC7FF0
ENDCHAR
STARTCHAR uni0426
ENCODING 1062
SWIDTH 762 0
DWIDTH 23 0
BBX 21 26 1 -6
BITMAP
FFDFF0
FFDFF0
3F0FC0
3F0FC0
3F0FC0
3F0FC0
3F0FC0
3F0FC0
3F0FC0
3F0FC0
3F0FC0
3F0FC0
3F0FC0
3F0FC0
3F0FC0
3F0FC0
3F0FC0
3F0FC0
FFFFF8
FFFFF8
000038
000038
000038
000038
000038
000038
ENDCHAR
STARTCHAR uni0427
ENCODING 1063
SWIDTH 723 0
DWIDTH 22 0
BBX 21 20 0 0
BITMAP
FFDFF8
FFDFF8
3F07E0
3F07E0
3F07E0
3F07E0
3F07E0
3F07E0
3F07E0
3F07E0
1FFFE0
0FFFE0
00C7E0
0007E0
0007E0
0007E0
0007E0
0007E0
003FF8
003FF8
ENDCHAR
STARTCHAR uni0428
ENCODING 1064
SWIDTH 1070 0
DWIDTH 32 0
BBX 30 20 1 0
BITMAP
FFFFF7FC
FFFFF7FC
3F0FC3F0
3F0FC3F0
3F0FC3F0
3F0FC3F0
3F0FC3F0
3F0FC3F0
3F0FC3F0
3F0FC3F0
3F0FC3F0
3F0FC3F0
3F0FC3F0
3F0FC3F0
3F0FC3F0
3F0FC3F0
3F0FC3F0
3F0FC3F0
FFFFFFFC
FFFFFFFC
ENDCHAR
STARTCHAR uni0429
ENCODING 1065
SWIDTH 1090 0
DWIDTH 33 0
BBX 31 26 1 -6
BITMAP
FFFFF7FC
FFFFF7FC
3F0FC3F0
3F0FC3F0
3F0FC3F0
3F0FC3F0
3F0FC3F0
3F0FC3F0
3F0FC3F0
3F0FC3F0
3F0FC3F0
3F0FC3F0
3F0FC3F0
3F0FC3F0
3F0FC3F0
3F0FC3F0
3F0FC3F0
3F0FC3F0
FFFFFFFE
FFFFFFFE
0000000E
0000000E
0000000E
0000000E
0000000E
0000000E
ENDCHAR
STARTCHAR uni042A
ENCODING 1066
SWIDTH 744 0
DWIDTH 22 0
BBX 21 20 1 0
BITMAP
FFFC00
FFFC00
E7E000
E7E000
E7E000
E7E000
07E000
07E000
07FF80
07FFE0
07E3F0
07E1F0
07E1F8
07E1F8
07E1F8
07E1F8
07E1F0
07E3F0
1FFFC0
1FFF00
ENDCHAR
STARTCHAR uni042B
ENCODING 1067
SWIDTH 984 0
DWIDTH 30 0
BBX 28 20 1 0
BITMAP
FFC03FF0
FFC03FF0
3F000FC0
3F000FC0
3F000FC0
3F000FC0
3F000FC0
3F000FC0
3FFC0FC0
3FFE0FC0
3F3F0FC0
3F1F8FC0
3F1F8FC0
3F1F8FC0
3F1F8FC0
3F1F8FC0
3F1F8FC0
3F3F0FC0
FFFE3FF0
FFF83FF0
ENDCHAR
STARTCHAR uni042C
ENCODING 1068
SWIDTH 631 0
DWIDTH 19 0
BBX 18 20 1 0
BITMAP
FFC000
FFC000
3F0000
3F0000
3F0000
3F0000
3F0000
3F0000
3FFC00
3FFF00
3F1F80
3F1F80
3F0F80
3F0FC0
3F0F80
3F0F80
3F1F80
3F3F00
FFFE00
FFF800
ENDCHAR
STARTCHAR uni042D
ENCODING 1069
SWIDTH 603 0
DWIDTH 18 0
BBX 16 21 1 -1
BITMAP
3FC0
FFF0
E0FC
E07C
E03E
C03E
003F
0C3F
0C3F
0FFF
0FFF
0C3F
0C3F
003F
C03F
C03E
E07E
E07C
F1F8
7FE0
0600
ENDCHAR
STARTCHAR uni042E
ENCODING 1070
SWIDTH 1025 0
DWIDTH 31 0
BBX 29 21 1 -1
BITMAP
FFC0FE00
FFC3FF80
3F07C3C0
3F07C3E0
3F0F83F0
3F0F81F0
3F1F81F0
3F1F81F8
3F1F81F8
3FFF81F8
3FFF81F8
3F1F81F8
3F1F81F8
3F1F81F8
3F1F81F0
3F0F81F0
3F0F83E0
3F07C3E0
FFC3E7C0
FFC1FF00
00001800
ENDCHAR
STARTCHAR uni042F
ENCODING 1071
SWIDTH 683 0
DWIDTH 20 0
BBX 20 20 0 0
BITMAP
007FF0
07FFF0
1FCFC0
1F0FC0
3F0FC0
3F0FC0
3F0FC0
3F0FC0
1F8FC0
0FEFC0
01FFC0
07EFC0
0FCFC0
0F8FC0
1F8FC0
1F0FC0
3F0FC0
3F0FC0
FE3FF0
FE3FF0
ENDCHAR
STARTCHAR uni0430
ENCODING 1072
SWIDTH 540 0
DWIDTH 16 0
BBX 15 15 1 0
BITMAP
1FE0
3FF0
79F8
F8F8
F8F8
70F8
03F8
1EF8
7CF8
F8F8
F8F8
F8F8
FDFA
FFFE
7E7C
ENDCHAR
STARTCHAR uni0431
ENCODING 1073
SWIDTH 585 0
DWIDTH 18 0
BBX 16 23 1 0
BITMAP
0003
003F
07FF
1FFE
3FFE
3FFC
7FE0
7C00
F000
E3E0
EFFC
DE7E
DC7E
FC3F
FC3F
FC3F
FC3F
FC3F
7C3F
7C3E
3C7E
3E7C
0FF0
ENDCHAR
STARTCHAR uni0432
ENCODING 1074
SWIDTH 559 0
DWIDTH 17 0
BBX 15 15 1 0
BITMAP
FFC0
FFFC
7E7C
7E7E
7E7C
7E7C
7FF8
7FF8
7E7C
7E3E
7E3E
7E3E
7E7E
FFFC
FFF0
ENDCHAR
STARTCHAR uni0433
ENCODING 1075
SWIDTH 465 0
DWIDTH 14 0
BBX 12 15 1 0
BITMAP
FFF0
FFF0
7E70
7E30
7E30
7E30
7E00
7E00
7E00
7E00
7E00
7E00
7E00
FF80
FF80
ENDCHAR
STARTCHAR uni0434
ENCODING 1076
SWIDTH 644 0
DWIDTH 19 0
BBX 19 20 0 -5
BITMAP
1FFFC0
1FFFC0
033F00
033F00
073F00
063F00
063F00
063F00
0E3F00
0C3F00
0C3F00
1C3F00
383F00
FFFFE0
FFFFE0
F001E0
E001E0
E000E0
E000E0
E000E0
ENDCHAR
STARTCHAR uni0435
ENCODING 1077
SWIDTH 526 0
DWIDTH 16 0
BBX 14 15 1 0
BITMAP
07E0
1FF0
3C78
7C7C
FC7C
FC7C
FFFC
FFFC
FC00
FC00
FC00
FE08
7FFC
3FF8
1FF0
ENDCHAR
STARTCHAR uni0436
ENCODING 1078
SWIDTH 860 0
DWIDTH 26 0
BBX 26 15 0 0
BITMAP
387F8700
7C7F8F80
7C3F1F80
7E3F1F80
3E3F1E00
033F3000
033F7000
03FFE000
0FBF7C00
1E3F3E00
3E3F1F00
3E3F1F00
3E3F1F00
FE7F9FC0
FC7F8FC0
ENDCHAR
STARTCHAR uni0437
ENCODING 1079
SWIDTH 486 0
DWIDTH 15 0
BBX 13 15 1 0
BITMAP
3FC0
FFF0
70F0
70F8
70F8
00F0
0FE0
0FE0
01F0
00F8
E0F8
F0F8
F0F8
F1F0
3FE0
ENDCHAR
STARTCHAR uni0438
ENCODING 1080
SWIDTH 660 0
DWIDTH 20 0
BBX 18 15 1 0
BITMAP
FF3FC0
FF3FC0
7E0F80
7E1F80
7E3F80
7E3F80
7E6F80
7ECF80
7F8F80
7F0F80
7F0F80
7E0F80
7E0F80
FF3FC0
FF3FC0
ENDCHAR
STARTCHAR uni0439
ENCODING 1081
SWIDTH 660 0
DWIDTH 20 0
BBX 18 22 1 0
BITMAP
1E1E00
1E1E00
1E1E00
0C0C00
0FF800
01E000
000000
FF3FC0
FF3FC0
7E0F80
7E1F80
7E3F80
7E3F80
7E6F80
7ECF80
7F8F80
7F0F80
7F0F80
7E0F80
7E0F80
FF3FC0
FF3FC0
ENDCHAR
STARTCHAR uni043A
ENCODING 1082
SWIDTH 600 0
DWIDTH 18 0
BBX 17 15 1 0
BITMAP
FF0600
FF1F00
7E1F00
7E3F00
7E3E00
7E2000
7EE000
7FE000
7EF800
7E3C00
7E3E00
7E3E00
7E3E00
FF3F80
FF1F80
ENDCHAR
STARTCHAR uni043B
ENCODING 1083
SWIDTH 613 0
DWIDTH 18 0
BBX 18 15 0 0
BITMAP
0FFFC0
0FFFC0
033F00
033F00
023F00
023F00
063F00
063F00
063F00
063F00
063F00
7C3F00
FC3F00
FC7FC0
787FC0
ENDCHAR
STARTCHAR uni043C
ENCODING 1084
SWIDTH 739 0
DWIDTH 22 0
BBX 20 15 1 0
BITMAP
FE07F0
FF07F0
7F0FE0
7F8FE0
6F9BE0
6F9BE0
6FD3E0
67F3E0
67F3E0
63E3E0
63E3E0
61E3E0
61C3E0
F9CFF0
F80FF0
ENDCHAR
STARTCHAR uni043D
ENCODING 1085
SWIDTH 650 0
DWIDTH 20 0
BBX 18 15 1 0
BITMAP
FF7FC0
FF7FC0
7E1F00
7E1F00
7E1F00
7E1F00
7FFF00
7FFF00
7E1F00
7E1F00
7E1F00
7E1F00
7E1F00
FF7FC0
FF7FC0
ENDCHAR
STARTCHAR uni043E
ENCODING 1086
SWIDTH 572 0
DWIDTH 17 0
BBX 16 15 1 0
BITMAP
0FE0
1FF8
7C7C
7C7C
FC7E
FC7E
FC7E
FC7F
FC7E
FC7E
FC7E
FC7E
7C7C
3EF8
1FF0
ENDCHAR
STARTCHAR uni043F
ENCODING 1087
SWIDTH 638 0
DWIDTH 19 0
BBX 17 15 1 0
BITMAP
FFFF80
FFFF80
7E3F00
7E3F00
7E3F00
7E3F00
7E3F00
7E3F00
7E3F00
7E3F00
7E3F00
7E3F00
7E3F00
FF7F80
FF7F80
ENDCHAR
STARTCHAR uni0440
ENCODING 1088
SWIDTH 623 0
DWIDTH 19 0
BBX 17 22 1 -7
BITMAP
0EFC00
7FFE00
FFFF00
7E3F00
7E1F80
7E1F80
7E1F80
7E1F80
7E1F80
7E1F80
7E1F80
7E3F00
7F7F00
7FFE00
7FFC00
7E0000
7E0000
7E0000
7E0000
7E0000
FF0000
FF0000
ENDCHAR
STARTCHAR uni0441
ENCODING 1089
SWIDTH 523 0
DWIDTH 16 0
BBX 14 15 1 0
BITMAP
07E0
1FF8
3E78
7C7C
FC7C
FC38
FC00
FC00
FC00
FC00
FC00
FE08
7FFC
3FF8
1FE0
ENDCHAR
STARTCHAR uni0442
ENCODING 1090
SWIDTH 570 0
DWIDTH 17 0
BBX 15 15 1 0
BITMAP
FFFE
FFFE
C7C6
C7C6
C7C6
C7C6
07C0
07C0
07C0
07C0
07C0
07C0
07C0
1FF0
1FF0
ENDCHAR
STARTCHAR uni0443
ENCODING 1091
SWIDTH 543 0
DWIDTH 16 0
BBX 16 22 0 -7
BITMAP
FF9F
FF9F
7E0C
3F0C
3F18
1F18
1F98
0FB0
0FB0
0FE0
07E0
07E0
03C0
03C0
01C0
0180
0180
3100
FB00
FE00
FE00
7800
ENDCHAR
STARTCHAR uni0444
ENCODING 1092
SWIDTH 840 0
DWIDTH 25 0
BBX 24 28 1 -7
BITMAP
003C00
01FC00
00FC00
007C00
007C00
007C00
0FFDE0
3FFFF8
7E7CFC
7C7C7E
F87C3E
F87C3E
F87C3E
F87C3F
F87C3F
F87C3E
F87C3E
FC7C7E
7C7C7C
3FFFF8
1FFFF0
007C00
007C00
007C00
007C00
007C00
01FF00
01FF00
ENDCHAR
STARTCHAR uni0445
ENCODING 1093
SWIDTH 563 0
DWIDTH 17 0
BBX 17 15 0 0
BITMAP
FF9F00
FF9F00
3F8C00
1F9800
1FD800
0FF000
07E000
07F000
03F000
07F800
0DFC00
0DFC00
18FE00
FDFF80
FDFF80
ENDCHAR
STARTCHAR uni0446
ENCODING 1094
SWIDTH 655 0
DWIDTH 20 0
BBX 19 20 1 -5
BITMAP
FF7F80
FF7F80
7E3F00
7E3F00
7E3F00
7E3F00
7E3F00
7E3F00
7E3F00
7E3F00
7E3F00
7E3F00
7E3F00
FFFFE0
FFFFC0
0001C0
0001C0
0001C0
0000C0
0000C0
ENDCHAR
STARTCHAR uni0447
ENCODING 1095
SWIDTH 596 0
DWIDTH 18 0
BBX 17 15 0 0
BITMAP
FF7F80
FF7F80
7E3F00
7E3F00
7E3F00
7E3F00
7E3F00
3FFF00
3FFF00
0FBF00
003F00
003F00
003F00
007F80
007F80
ENDCHAR
STARTCHAR uni0448
ENCODING 1096
SWIDTH 868 0
DWIDTH 26 0
BBX 24 15 1 0
BITMAP
FFFFFF
FFFFFF
7E7E7E
7E7E7E
7E7E7E
7E7E7E
7E7E7E
7E7E7E
7E7E7E
7E7E7E
7E7E7E
7E7E7E
7E7E7E
FFFFFF
FFFFFF
ENDCHAR
STARTCHAR uni0449
ENCODING 1097
SWIDTH 891 0
DWIDTH 27 0
BBX 26 20 1 -5
BITMAP
FFFFFF00
FFFFFF00
7E7E7E00
7E7E7E00
7E7E7E00
7E7E7E00
7E7E7E00
7E7E7E00
7E7E7E00
7E7E7E00
7E7E7E00
7E7E7E00
7E7E7E00
FFFFFFC0
FFFFFFC0
00000380
00000380
00000380
00000180
00000180
ENDCHAR
STARTCHAR uni044A
ENCODING 1098
SWIDTH 661 0
DWIDTH 20 0
BBX 19 15 1 0
BITMAP
FFF000
FFF000
C7C000
C7C000
C7C000
C7C000
07FF80
07CFC0
07C7C0
07C7C0
07C7E0
07C7C0
07C7C0
1FFF80
1FFE00
ENDCHAR
STARTCHAR uni044B
ENCODING 1099
SWIDTH 835 0
DWIDTH 25 0
BBX 23 15 1 0
BITMAP
FF01FE
FF01FE
7E00FC
7E00FC
7E00FC
7E00FC
7FF8FC
7E7CFC
7E7CFC
7E3EFC
7E3EFC
7E3EFC
7E7CFC
FFF9FE
FFE1FE
ENDCHAR
STARTCHAR uni044C
ENCODING 1100
SWIDTH 541 0
DWIDTH 16 0
BBX 15 15 1 0
BITMAP
FF00
FF00
7E00
7E00
7E00
7E00
7FF8
7E7C
7E3E
7E3E
7E3E
7E3E
7E7C
FFFC
FFF0
ENDCHAR
STARTCHAR uni044D
ENCODING 1101
SWIDTH 504 0
DWIDTH 15 0
BBX 13 15 1 0
BITMAP
3F80
FFE0
F1F0
71F8
60F8
00F8
00F8
1FF8
18F8
00F8
E0F8
F1F8
F1F0
F3E0
3FC0
ENDCHAR
STARTCHAR uni044E
ENCODING 1102
SWIDTH 841 0
DWIDTH 25 0
BBX 24 15 1 0
BITMAP
FF07E0
FF1FF8
7E3E7C
7E3C3E
7E7C3E
7E7C3E
7FFC3F
7FFC3F
7EFC3F
7E7C3E
7E7C3E
7E7C3E
7E3E7C
FF1E78
FF0FF0
ENDCHAR
STARTCHAR uni044F
ENCODING 1103
SWIDTH 589 0
DWIDTH 18 0
BBX 17 15 0 0
BITMAP
00FF80
1FFF80
3F3F00
3E3F00
3E3F00
3E3F00
1F3F00
0FFF00
07FF00
0F3F00
1F3F00
3F3F00
3E3F00
FE7F80
FC7F80
ENDCHAR
STARTCHAR uni0450
ENCODING 1104
SWIDTH 526 0
DWIDTH 16 0
BBX 14 24 1 0
BITMAP
0800
1E00
1E00
1F00
0F00
0780
01C0
0000
0000
07E0
1FF0
3C78
7C7C
FC7C
FC7C
FFFC
FFFC
FC00
FC00
FC00
FE08
7FFC
3FF8
1FF0
ENDCHAR
STARTCHAR uni0451
ENCODING 1105
SWIDTH 526 0
DWIDTH 16 0
BBX 14 22 1 0
BITMAP
1838
3C7C
7C7C
7C7C
3838
0000
0000
07E0
1FF0
3C78
7C7C
FC7C
FC7C
FFFC
FFFC
FC00
FC00
FC00
FE08
7FFC
3FF8
1FF0
ENDCHAR
STARTCHAR uni0452
ENCODING 1106
SWIDTH 605 0
DWIDTH 18 0
BBX 16 27 1 -5
BITMAP
0200
7E00
FE00
7E00
7E00
FFE0
7E00
7E00
7EFC
7FFE
7FFF
7E3F
7E3F
7E3F
7E1F
7E3F
7E3F
7E3F
7E3F
7E3E
FF3E
FF3E
003C
003C
0078
0078
0070
ENDCHAR
STARTCHAR uni0453
ENCODING 1107
SWIDTH 465 0
DWIDTH 14 0
BBX 12 24 1 0
BITMAP
0020
00F0
00F0
01F0
03E0
03C0
0700
0000
0000
FFF0
FFF0
7E70
7E30
7E30
7E30
7E00
7E00
7E00
7E00
7E00
7E00
7E00
FF80
FF80
ENDCHAR
STARTCHAR uni0454
ENCODING 1108
SWIDTH 523 0
DWIDTH 16 0
BBX 14 15 1 0
BITMAP
0FF0
3FF8
7E38
7C38
FC38
FC00
FFF0
FFF0
FC00
FC00
FC00
FE08
7FFC
3FF8
1FE0
ENDCHAR
STARTCHAR uni0455
ENCODING 1109
SWIDTH 463 0
DWIDTH 14 0
BBX 12 15 1 0
BITMAP
1FC0
7FE0
78E0
F0E0
F8E0
FF80
FFE0
FFF0
7FF0
1FF0
E3F0
E1F0
E0F0
F3E0
7FC0
ENDCHAR
STARTCHAR uni0456
ENCODING 1110
SWIDTH 324 0
DWIDTH 10 0
BBX 8 22 1 0
BITMAP
3C
7E
7E
7E
3C
00
00
0E
7E
FE
7E
7E
7E
7E
7E
7E
7E
7E
7E
7E
FF
FF
ENDCHAR
STARTCHAR uni0457
ENCODING 1111
SWIDTH 324 0
DWIDTH 10 0
BBX 12 22 -1 0
BITMAP
30C0
79E0
FDF0
79E0
78E0
0000
0000
0380
1F80
3F80
1F80
1F80
1F80
1F80
1F80
1F80
1F80
1F80
1F80
1F80
3FC0
3FC0
ENDCHAR
STARTCHAR uni0458
ENCODING 1112
SWIDTH 320 0
DWIDTH 10 0
BBX 12 29 -4 -7
BITMAP
01E0
03E0
03F0
03E0
01E0
0000
0000
0070
03F0
0FF0
03F0
03F0
03F0
03F0
03F0
03F0
03F0
03F0
03F0
03F0
03F0
03F0
03F0
03F0
33E0
FBE0
FFC0
7F80
3E00
ENDCHAR
STARTCHAR uni0459
ENCODING 1113
SWIDTH 805 0
DWIDTH 24 0
BBX 24 15 0 0
BITMAP
0FFFC0
0FFFC0
033F00
033F00
023F00
023F00
063FF8
063F7E
063F3E
063F1F
063F1F
7C3F1F
FC3F3E
FC7FFE
787FF8
ENDCHAR
STARTCHAR uni045A
ENCODING 1114
SWIDTH 853 0
DWIDTH 26 0
BBX 24 15 1 0
BITMAP
FF7FC0
FF7FC0
7E3F00
7E3F00
7E3F00
7E3F00
7FFFFC
7FFF7E
7E3F1F
7E3F1F
7E3F1F
7E3F1F
7E3F1F
FF7FFE
FF7FF8
ENDCHAR
STARTCHAR uni045B
ENCODING 1115
SWIDTH 624 0
DWIDTH 19 0
BBX 17 22 1 0
BITMAP
020000
7E0000
FE0000
7E0000
7E0000
FFE000
7E0000
7E0000
7EFC00
7FFE00
7FFF00
7E3F00
7E3F00
7E3F00
7E3F00
7E3F00
7E3F00
7E3F00
7E3F00
7E3F00
FF7F80
FF7F80
ENDCHAR
STARTCHAR uni045C
ENCODING 1116
SWIDTH 600 0
DWIDTH 18 0
BBX 17 24 1 0
BITMAP
000800
003C00
003C00
007C00
007800
00F000
01C000
000000
000000
FF0600
FF1F00
7E1F00
7E3F00
7E3E00
7E2000
7EE000
7FE000
7EF800
7E3C00
7E3E00
7E3E00
7E3E00
FF3F80
FF1F80
ENDCHAR
STARTCHAR uni045D
ENCODING 1117
SWIDTH 660 0
DWIDTH 20 0
BBX 18 24 1 0
BITMAP
040000
0E0000
0F0000
0F8000
078000
03C000
00C000
000000
000000
FF3FC0
FF3FC0
7E0F80
7E1F80
7E3F80
7E3F80
7E6F80
7ECF80
7F8F80
7F0F80
7F0F80
7E0F80
7E0F80
FF3FC0
FF3FC0
ENDCHAR
STARTCHAR uni045E
ENCODING 1118
SWIDTH 543 0
DWIDTH 16 0
BBX 16 29 0 -7
BITMAP
0F1E
0F1F
0F1E
0E0E
07FC
01F0
0000
FF9F
FF9F
7E0C
3F0C
3F18
1F18
1F98
0FB0
0FB0
0FE0
07E0
07E0
03C0
03C0
01C0
0180
0180
3100
FB00
FE00
FE00
7800
ENDCHAR
STARTCHAR uni045F
ENCODING 1119
SWIDTH 632 0
DWIDTH 19 0
BBX 17 20 1 -5
BITMAP
FF7F80
FF7F80
7E3F00
7E3F00
7E3F00
7E3F00
7E3F00
7E3F00
7E3F00
7E3F00
7E3F00
7E3F00
7E3F00
FFFF80
FFFF80
01C000
01C000
01C000
01C000
01C000
ENDCHAR
STARTCHAR uni0462
ENCODING 1122
SWIDTH 769 0
DWIDTH 23 0
BBX 22 21 1 0
BITMAP
0FFC00
0FF800
03F000
03F000
FFFFE0
FFFFE0
E3F1E0
E3F0E0
C3F0E0
03F000
03FF80
03FFE0
03F3F8
03F1F8
03F0FC
03F0FC
03F0F8
03F1F8
03F3F0
0FFFE0
0FFF80
ENDCHAR
STARTCHAR uni0463
ENCODING 1123
SWIDTH 645 0
DWIDTH 19 0
BBX 18 20 1 0
BITMAP
07C000
1FC000
0FC000
07C000
07C000
FFFF00
FFFF00
C7C300
C7C300
C7C300
C7C000
07FE00
07FF80
07CFC0
07C7C0
07C7C0
07C7C0
07CFC0
1FFF80
1FFE00
ENDCHAR
STARTCHAR uni0472
ENCODING 1138
SWIDTH 700 0
DWIDTH 21 0
BBX 19 21 1 -1
BITMAP
03F800
0FFE00
3E0F80
3E0F80
7C07C0
7C07C0
FC07E0
FC07E0
FC07E0
FFFFE0
FFFFE0
FC07E0
FC07E0
FC07E0
FC07E0
7C07C0
7C07C0
3E0F80
1F3F00
0FFE00
004000
ENDCHAR
STARTCHAR uni0473
ENCODING 1139
SWIDTH 572 0
DWIDTH 17 0
BBX 16 15 1 0
BITMAP
0FE0
3FF8
7C7C
7C7E
FC3E
F83E
F83E
FFFF
F83E
F83E
F83E
FC7E
7C7C
3E78
1FF0
ENDCHAR
STARTCHAR uni0474
ENCODING 1140
SWIDTH 692 0
DWIDTH 21 0
BBX 21 20 0 0
BITMAP
FFC0F8
FFC1F8
3F01F8
3F03F8
3F83F0
1F8300
1F8300
1FC600
0FC600
0FC600
07E400
07EC00
07EC00
03F800
03F800
03F800
01F800
01F000
01F000
00F000
ENDCHAR
STARTCHAR uni0475
ENCODING 1141
SWIDTH 583 0
DWIDTH 17 0
BBX 18 15 0 0
BITMAP
FF8380
FF8780
7E0FC0
3F0F80
3F1B00
1F1800
1F9000
1FB000
0FB000
0FE000
07E000
07E000
07C000
03C000
03C000
ENDCHAR
STARTCHAR uni0490
ENCODING 1168
SWIDTH 580 0
DWIDTH 17 0
BBX 16 23 1 0
BITMAP
0007
0007
0007
FFFF
FFFF
3F00
3F00
3F00
3F00
3F00
3F00
3F00
3F00
3F00
3F00
3F00
3F00
3F00
3F00
3F00
3F00
FFE0
FFE0
ENDCHAR
STARTCHAR uni0491
ENCODING 1169
SWIDTH 465 0
DWIDTH 14 0
BBX 12 19 1 0
BITMAP
0030
0030
0030
0070
FFF0
FFF0
7E00
7E00
7E00
7E00
7E00
7E00
7E00
7E00
7E00
7E00
7E00
FF00
FF00
ENDCHAR
STARTCHAR uni0492
ENCODING 1170
SWIDTH 580 0
DWIDTH 17 0
BBX 16 20 1 0
BITMAP
FFFF
FFFF
3F0F
3F07
3F07
3F07
3F00
3F00
3F00
FFE0
FFE0
3F00
3F00
3F00
3F00
3F00
3F00
3F00
FFE0
FFE0
ENDCHAR
STARTCHAR uni0493
ENCODING 1171
SWIDTH 465 0
DWIDTH 14 0
BBX 12 15 1 0
BITMAP
FFF0
FFF0
7E70
7E30
7E30
7E30
FF80
FF80
7E00
7E00
7E00
7E00
7E00
FF80
FF80
ENDCHAR
STARTCHAR uni0496
ENCODING 1174
SWIDTH 1034 0
DWIDTH 31 0
BBX 31 26 0 -6
BITMAP
3C3FF0F0
7E3FF1F8
7E0FC1F8
3F0FC3F0
3F0FC3F0
030FC300
018FC600
018FC600
00CFCC00
007FF800
03FFFF00
07CFCF80
0F8FC7C0
1F8FC7E0
1F8FC7E0
1F8FC7E0
3F0FC3F0
3F0FC3F0
FF3FF3FE
FE3FF1FE
0000001E
0000000E
0000000E
0000000E
0000000E
0000000E
ENDCHAR
STARTCHAR uni0497
ENCODING 1175
SWIDTH 909 0
DWIDTH 27 0
BBX 27 20 0 -5
BITMAP
387F8700
7C7F8F80
7C3F1F80
7E3F1F80
3E3F1E00
033F3000
033F7000
03FFE000
0FBF7C00
1E3F3E00
3E3F1F00
3E3F1F00
3E3F1F00
FE7F9FE0
FC7F8FE0
000001E0
000000E0
000000E0
000000E0
000000E0
ENDCHAR
STARTCHAR uni0498
ENCODING 1176
SWIDTH 565 0
DWIDTH 17 0
BBX 16 27 1 -7
BITMAP
3FE0
7FF8
70FC
707E
707E
707E
007C
007C
00F8
0FC0
0FF8
00FC
007E
007E
E07F
F07E
F07E
F0FE
71FC
3FF0
0380
00C0
00E0
00E0
00E0
07E0
0380
ENDCHAR
STARTCHAR uni0499
ENCODING 1177
SWIDTH 486 0
DWIDTH 15 0
BBX 13 22 1 -7
BITMAP
3FC0
FFF0
70F0
70F8
70F8
00F0
0FE0
0FE0
01F0
00F8
E0F8
F0F8
F0F8
F1F0
3FE0
0300
0180
01C0
01C0
01C0
0FC0
1F00
ENDCHAR
STARTCHAR uni049A
ENCODING 1178
SWIDTH 749 0
DWIDTH 22 0
BBX 21 26 1 -6
BITMAP
FFC1C0
FFC3E0
3F07E0
3F07E0
3F07C0
3F0C00
3F0C00
3F1800
3F3800
3FF000
3FFC00
3F1F00
3F1F80
3F0F80
3F0FC0
3F0FC0
3F0FC0
3F0FC0
FFC7F8
FFC7F8
000038
000038
000038
000038
000038
000018
ENDCHAR
STARTCHAR uni049B
ENCODING 1179
SWIDTH 650 0
DWIDTH 20 0
BBX 18 20 1 -5
BITMAP
FF0600
FF1F00
7E1F00
7E3F00
7E3E00
7E2000
7EE000
7FE000
7EF800
7E3C00
7E3E00
7E3E00
7E3E00
FF3FC0
FF1FC0
0001C0
0001C0
0001C0
0001C0
0000C0
ENDCHAR
STARTCHAR uni04A0
ENCODING 1184
SWIDTH 831 0
DWIDTH 25 0
BBX 24 20 1 0
BITMAP
FFF83C
FFF87E
E7E07E
E7E0FC
E7E0FC
E7E0C0
07E180
07E180
07E300
07FE00
07FFC0
07E3E0
07E1F0
07E1F8
07E1F8
07E1F8
07E0FC
07E0FC
1FF8FF
1FF87F
ENDCHAR
STARTCHAR uni04A1
ENCODING 1185
SWIDTH 736 0
DWIDTH 22 0
BBX 21 15 1 0
BITMAP
FFF060
FFF0F0
C7E1F0
C7E1F0
C7E3E0
C7E300
07EE00
07FC00
07EF80
07E3C0
07E3E0
07E3E0
07E3E0
0FF3F8
0FF1F8
ENDCHAR
STARTCHAR uni04A2
ENCODING 1186
SWIDTH 771 0
DWIDTH 23 0
BBX 22 26 1 -6
BITMAP
FFDFF8
FFDFF8
3F07E0
3F07E0
3F07E0
3F07E0
3F07E0
3F07E0
3F07E0
3FFFE0
3FFFE0
3F07E0
3F07E0
3F07E0
3F07E0
3F07E0
3F07E0
3F07E0
FFDFFC
FFDFFC
00003C
00001C
00001C
00001C
00001C
00001C
ENDCHAR
STARTCHAR uni04A3
ENCODING 1187
SWIDTH 687 0
DWIDTH 21 0
BBX 19 20 1 -5
BITMAP
FF7FC0
FF7FC0
7E1F00
7E1F00
7E1F00
7E1F00
7FFF00
7FFF00
7E1F00
7E1F00
7E1F00
7E1F00
7E1F00
FF7FE0
FF7FE0
0000E0
0000E0
0000E0
0000E0
0000E0
ENDCHAR
STARTCHAR uni04AA
ENCODING 1194
SWIDTH 618 0
DWIDTH 19 0
BBX 17 27 1 -7
BITMAP
03FE00
0FFF80
1F8780
3F0380
7E0380
7E0380
FC0000
FC0000
FC0000
FC0000
FC0000
FC0000
FC0000
FC0000
FC0380
7E0380
7E0380
3F0380
1FC780
07FF00
00E000
006000
007000
007000
007000
03F000
07C000
ENDCHAR
STARTCHAR uni04AB
ENCODING 1195
SWIDTH 523 0
DWIDTH 16 0
BBX 14 22 1 -7
BITMAP
07E0
1FF8
3E78
7C7C
FC7C
FC38
FC00
FC00
FC00
FC00
FC00
FE08
7FFC
3FF8
1FE0
0300
0180
01C0
00E0
01E0
0FC0
0780
ENDCHAR
STARTCHAR uni04AE
ENCODING 1198
SWIDTH 621 0
DWIDTH 19 0
BBX 19 20 0 0
BITMAP
FFC7E0
FFC7E0
3F0380
3F8300
1F8300
1FC600
0FC600
0FEC00
07EC00
07F800
03F800
03F000
03F000
03F000
03F000
03F000
03F000
03F000
0FFE00
0FFE00
ENDCHAR
STARTCHAR uni04AF
ENCODING 1199
SWIDTH 536 0
DWIDTH 16 0
BBX 16 22 0 -7
BITMAP
FFBF
FFBF
7E0C
7E0C
3F1C
3F18
3F18
1F18
1FB0
1FB0
0FB0
0FA0
0FE0
07E0
07E0
07E0
07E0
07E0
07E0
07E0
0FF0
0FF0
ENDCHAR
STARTCHAR uni04B0
ENCODING 1200
SWIDTH 621 0
DWIDTH 19 0
BBX 19 20 0 0
BITMAP
FFC7E0
FFC7E0
3F0380
3F8300
1F8300
1FC600
0FC600
0FEC00
07EC00
07F800
03F800
3FFF00
3FFF00
03F000
03F000
03F000
03F000
03F000
0FFE00
0FFE00
ENDCHAR
STARTCHAR uni04B1
ENCODING 1201
SWIDTH 536 0
DWIDTH 16 0
BBX 16 22 0 -7
BITMAP
FFBF
FFBF
7E0C
7E0C
3F1C
3F18
3F18
1F18
1FB0
1FB0
0FB0
0FA0
0FE0
7FFC
7FFC
07E0
07E0
07E0
07E0
07E0
0FF0
0FF0
ENDCHAR
STARTCHAR uni04B2
ENCODING 1202
SWIDTH 690 0
DWIDTH 21 0
BBX 20 26 0 -6
BITMAP
FFCFC0
FFCFC0
3F8300
1F8700
1FC600
0FCC00
0FFC00
07F800
03F000
03F800
01F800
01FC00
03FC00
07FE00
067F00
0C3F00
1C3F80
181F80
FC7FF0
FC7FF0
000070
000070
000070
000030
000030
000030
ENDCHAR
STARTCHAR uni04B3
ENCODING 1203
SWIDTH 604 0
DWIDTH 18 0
BBX 18 20 0 -5
BITMAP
FF9F00
FF9F00
3F8C00
1F9800
1FD800
0FF000
07E000
07F000
03F000
07F800
0DFC00
0DFC00
18FE00
FDFFC0
FDFFC0
0003C0
0001C0
0001C0
0001C0
0001C0
ENDCHAR
STARTCHAR uni04B6
ENCODING 1206
SWIDTH 736 0
DWIDTH 22 0
BBX 22 26 0 -6
BITMAP
FFDFF8
FFDFF8
3F07E0
3F07E0
3F07E0
3F07E0
3F07E0
3F07E0
3F07E0
3F07E0
1FFFE0
0FFFE0
00C7E0
0007E0
0007E0
0007E0
0007E0
0007E0
003FFC
003FFC
00003C
00001C
00001C
00001C
00001C
00001C
ENDCHAR
STARTCHAR uni04B7
ENCODING 1207
SWIDTH 633 0
DWIDTH 19 0
BBX 18 20 0 -5
BITMAP
FF7F80
FF7F80
7E3F00
7E3F00
7E3F00
7E3F00
7E3F00
3FFF00
3FFF00
0FBF00
003F00
003F00
003F00
007FC0
007FC0
0001C0
0001C0
0001C0
0000C0
0000C0
ENDCHAR
STARTCHAR uni04BA
ENCODING 1210
SWIDTH 723 0
DWIDTH 22 0
BBX 20 20 1 0
BITMAP
FFC000
FFC000
3F0000
3F0000
3F0000
3F0000
3F0000
3F0000
3FF800
3FFF80
3F1FC0
3F0FC0
3F07C0
3F07E0
3F07E0
3F07E0
3F07E0
3F07E0
FFDFF0
FFDFF0
ENDCHAR
STARTCHAR uni04BB
ENCODING 1211
SWIDTH 624 0
DWIDTH 19 0
BBX 17 22 1 0
BITMAP
020000
7E0000
FE0000
7E0000
7E0000
7E0000
7E0000
7E7C00
7EFE00
7FFE00
7F3F00
7E3F00
7E3F00
7E3F00
7E3F00
7E3F00
7E3F00
7E3F00
7E3F00
7E3F00
FF7F80
FF7F80
ENDCHAR
STARTCHAR uni04C0
ENCODING 1216
SWIDTH 395 0
DWIDTH 12 0
BBX 10 20 1 0
BITMAP
FFC0
FFC0
3F00
3F00
3F00
3F00
3F00
3F00
3F00
3F00
3F00
3F00
3F00
3F00
3F00
3F00
3F00
3F00
FFC0
FFC0
ENDCHAR
STARTCHAR uni04C1
ENCODING 1217
SWIDTH 1000 0
DWIDTH 30 0
BBX 30 26 0 0
BITMAP
00787800
00787800
00787800
00787800
001FE000
00000000
3C3FF0F0
7E3FF1F8
7E0FC1F8
3F0FC3F0
3F0FC3F0
030FC300
018FC600
018FC600
00CFCC00
007FF800
03FFFF00
07CFCF80
0F8FC7C0
1F8FC7E0
1F8FC7E0
1F8FC7E0
3F0FC3F0
3F0FC3F0
FF3FF3FC
FE3FF1FC
ENDCHAR
STARTCHAR uni04C2
ENCODING 1218
SWIDTH 860 0
DWIDTH 26 0
BBX 26 22 0 0
BITMAP
01E1E000
01E1E000
01E1E000
01C1C000
00FF8000
001E0000
00000000
387F8700
7C7F8F80
7C3F1F80
7E3F1F80
3E3F1E00
033F3000
033F7000
03FFE000
0FBF7C00
1E3F3E00
3E3F1F00
3E3F1F00
3E3F1F00
FE7F9FC0
FC7F8FC0
ENDCHAR
STARTCHAR uni04CF
ENCODING 1231
SWIDTH 334 0
DWIDTH 10 0
BBX 8 21 1 0
BITMAP
FF
7E
7E
7E
7E
7E
7E
7E
7E
7E
7E
7E
7E
7E
7E
7E
7E
7E
7E
FF
FF
ENDCHAR
STARTCHAR uni04D0
ENCODING 1232
SWIDTH 680 0
DWIDTH 20 0
BBX 20 26 0 0
BITMAP
0F0700
0F0F80
0F0700
070700
03FE00
000000
007000
00F800
00F800
00F800
01FC00
01FC00
017C00
037E00
037E00
023E00
063F00
063F00
041F00
0FFF80
0FFF80
180F80
180FC0
180FC0
FE3FF0
FE3FF0
ENDCHAR
STARTCHAR uni04D1
ENCODING 1233
SWIDTH 540 0
DWIDTH 16 0
BBX 15 22 1 0
BITMAP
3878
7C78
3C78
3838
1FF0
0780
0000
1FE0
3FF0
79F8
F8F8
F8F8
70F8
03F8
1EF8
7CF8
F8F8
F8F8
F8F8
FDFA
FFFE
7E7C
ENDCHAR
STARTCHAR uni04D4
ENCODING 1236
SWIDTH 880 0
DWIDTH 26 0
BBX 26 20 0 0
BITMAP
03FFFF80
03FFFF80
007FC380
006FC380
00CFC380
00CFC380
01CFC000
018FC600
038FCE00
030FFE00
030FFE00
07FFCE00
07FFC600
0C0FC000
0C0FC000
180FC1C0
180FC1C0
380FC1C0
FE3FFFC0
FE3FFFC0
ENDCHAR
STARTCHAR uni04D5
ENCODING 1237
SWIDTH 792 0
DWIDTH 24 0
BBX 22 15 1 0
BITMAP
1FE7E0
3FFFF0
79FC78
F9FC7C
F8FC7C
70FC7C
03FFFC
1EFFFC
7CFC00
F8FC00
F8FC00
F8FE08
FCFFFC
FFBFF8
7F1FF0
ENDCHAR
STARTCHAR uni04D6
ENCODING 1238
SWIDTH 591 0
DWIDTH 18 0
BBX 16 26 1 0
BITMAP
3C1C
3C1E
3C1E
1C1C
0FF8
0000
FFFE
FFFE
3F0E
3F0E
3F06
3F07
3F00
3F18
3F18
3FF8
3FF8
3F18
3F18
3F00
3F00
3F07
3F07
3F07
FFFF
FFFF
ENDCHAR
STARTCHAR uni04D7
ENCODING 1239
SWIDTH 526 0
DWIDTH 16 0
BBX 14 22 1 0
BITMAP
3C78
3C7C
3C78
3838
1FF0
0780
0000
07E0
1FF0
3C78
7C7C
FC7C
FC7C
FFFC
FFFC
FC00
FC00
FC00
FE08
7FFC
3FF8
1FF0
ENDCHAR
STARTCHAR uni04D8
ENCODING 1240
SWIDTH 663 0
DWIDTH 20 0
BBX 18 21 1 -1
BITMAP
0FF000
7FFC00
783E00
701F00
701F80
701F80
000F80
000FC0
000FC0
FFFFC0
FFFFC0
FC0FC0
FC0FC0
FC0FC0
FC0F80
FC1F80
7C1F00
7E1F00
3F3E00
0FF800
00C000
ENDCHAR
STARTCHAR uni04D9
ENCODING 1241
SWIDTH 526 0
DWIDTH 16 0
BBX 14 15 1 0
BITMAP
1FC0
3FE0
7FF8
E3F8
41FC
00FC
00FC
FFFC
FFFC
F8FC
F8FC
F8F8
78F8
7DF0
1FE0
ENDCHAR
STARTCHAR uni04E2
ENCODING 1250
SWIDTH 772 0
DWIDTH 23 0
BBX 21 25 1 0
BITMAP
03FF00
03FF00
03FF00
000000
000000
FFDFF8
FFDFF8
3F03E0
3F03E0
3F07E0
3F07E0
3F0FE0
3F1FE0
3F1BE0
3F33E0
3F73E0
3F63E0
3FC3E0
3FC3E0
3F87E0
3F07E0
3F07E0
3E07E0
FFDFF8
FFDFF8
ENDCHAR
STARTCHAR uni04E3
ENCODING 1251
SWIDTH 660 0
DWIDTH 20 0
BBX 18 20 1 0
BITMAP
0FFC00
0FFC00
0FFC00
000000
000000
FF3FC0
FF3FC0
7E0F80
7E1F80
7E3F80
7E3F80
7E6F80
7ECF80
7F8F80
7F0F80
7F0F80
7E0F80
7E0F80
FF3FC0
FF3FC0
ENDCHAR
STARTCHAR uni04E6
ENCODING 1254
SWIDTH 700 0
DWIDTH 21 0
BBX 19 27 1 -1
BITMAP
040400
0F1E00
1F1F00
1F1F00
0E0E00
000000
03F800
0FFE00
1F1F00
3E0F80
7E0FC0
7C07C0
FC07E0
FC07E0
FC07E0
FC07E0
FC07E0
FC07E0
FC07E0
FC07E0
7C07C0
7C0FC0
7E0FC0
3E0F80
1F1F00
07FC00
00E000
ENDCHAR
STARTCHAR uni04E7
ENCODING 1255
SWIDTH 572 0
DWIDTH 17 0
BBX 16 22 1 0
BITMAP
1838
3C7C
7C7C
7C7C
3838
0000
0000
0FE0
1FF8
7C7C
7C7C
FC7E
FC7E
FC7E
FC7F
FC7E
FC7E
FC7E
FC7E
7C7C
3EF8
1FF0
ENDCHAR
STARTCHAR uni04E8
ENCODING 1256
SWIDTH 700 0
DWIDTH 21 0
BBX 19 21 1 -1
BITMAP
03F800
0FFE00
3E0F80
3E0F80
7C07C0
7C07C0
FC07E0
FC07E0
FC07E0
FFFFE0
FFFFE0
FC07E0
FC07E0
FC07E0
FC07E0
7C07C0
7C07C0
3E0F80
1F3F00
0FFE00
004000
ENDCHAR
STARTCHAR uni04E9
ENCODING 1257
SWIDTH 572 0
DWIDTH 17 0
BBX 16 15 1 0
BITMAP
0FE0
3FF8
7C7C
7C7E
FC3E
F83E
F83E
FFFF
F83E
F83E
F83E
FC7E
7C7C
3E78
1FF0
ENDCHAR
STARTCHAR uni04EE
ENCODING 1262
SWIDTH 661 0
DWIDTH 20 0
BBX 20 28 0 -3
BITMAP
01FF80
01FF80
01FF80
000000
000000
FFC3F0
FFC3F0
3F00C0
3F81C0
1F8180
1F8380
0FC300
0FC300
07E600
07E600
07EC00
03FC00
03FC00
01F800
01F800
00F000
00F000
006000
1E6000
3FC000
3F8000
1F8000
040000
ENDCHAR
STARTCHAR uni04EF
ENCODING 1263
SWIDTH 543 0
DWIDTH 16 0
BBX 16 27 0 -7
BITMAP
0FFC
0FFC
0FFC
0000
0000
FF9F
FF9F
7E0C
3F0C
3F18
1F18
1F98
0FB0
0FB0
0FE0
07E0
07E0
03C0
03C0
01C0
0180
0180
3100
FB00
FE00
FE00
7800
ENDCHAR
STARTCHAR uni04F2
ENCODING 1266
SWIDTH 661 0
DWIDTH 20 0
BBX 20 30 0 -3
BITMAP
0019C0
0039C0
003BC0
007380
006300
00C600
000000
FFC3F0
FFC3F0
3F00C0
3F81C0
1F8180
1F8380
0FC300
0FC300
07E600
07E600
07EC00
03FC00
03FC00
01F800
01F800
00F000
00F000
006000
1E6000
3FC000
3F8000
1F8000
040000
ENDCHAR
STARTCHAR uni04F3
ENCODING 1267
SWIDTH 543 0
DWIDTH 16 0
BBX 16 31 0 -7
BITMAP
00C6
01EE
01EE
01DE
039C
0398
0330
0000
0000
FF9F
FF9F
7E0C
3F0C
3F18
1F18
1F98
0FB0
0FB0
0FE0
07E0
07E0
03C0
03C0
01C0
0180
0180
3100
FB00
FE00
FE00
7800
ENDCHAR
STARTCHAR a.sups
ENCODING 7491
SWIDTH 357 0
DWIDTH 11 0
BBX 10 10 1 12
BITMAP
3E00
E700
E700
C700
1F00
7700
E700
E700
FF40
F380
ENDCHAR
STARTCHAR b.sups
ENCODING 7495
SWIDTH 408 0
DWIDTH 12 0
BBX 12 14 0 12
BITMAP
7800
F800
3800
3800
3BC0
3FE0
38E0
38F0
38F0
38F0
38F0
38E0
3FE0
7FC0
ENDCHAR
STARTCHAR d.sups
ENCODING 7496
SWIDTH 388 0
DWIDTH 12 0
BBX 11 14 1 12
BITMAP
03C0
07C0
03C0
03C0
3FC0
7FC0
F3C0
E3C0
E3C0
E3C0
E3C0
F3C0
FFC0
7FE0
ENDCHAR
STARTCHAR e.sups
ENCODING 7497
SWIDTH 348 0
DWIDTH 10 0
BBX 9 10 1 12
BITMAP
1E00
7700
E380
E380
FF80
E000
E000
F080
7F00
3E00
ENDCHAR
STARTCHAR g.sups
ENCODING 7501
SWIDTH 365 0
DWIDTH 11 0
BBX 11 14 0 8
BITMAP
1F60
73E0
7380
7380
7380
3F00
2000
6000
7FC0
7FC0
5FE0
C0E0
E1C0
7F80
ENDCHAR
STARTCHAR k.sups
ENCODING 7503
SWIDTH 404 0
DWIDTH 12 0
BBX 12 14 0 12
BITMAP
7800
F800
3800
3800
39F0
38C0
3980
3B00
3F80
3B80
3BC0
39C0
39E0
7CF0
ENDCHAR
STARTCHAR m.sups
ENCODING 7504
SWIDTH 607 0
DWIDTH 18 0
BBX 18 10 0 12
BITMAP
1BCF00
FFFF00
39E780
38E380
38E380
38E380
38E380
38E380
38E380
7DF7C0
ENDCHAR
STARTCHAR o.sups
ENCODING 7506
SWIDTH 381 0
DWIDTH 11 0
BBX 10 10 1 12
BITMAP
1E00
7380
E380
E3C0
E3C0
E3C0
E3C0
E380
7380
3F00
ENDCHAR
STARTCHAR p.sups
ENCODING 7510
SWIDTH 404 0
DWIDTH 12 0
BBX 12 14 0 8
BITMAP
1B80
FFE0
79E0
78E0
78F0
78F0
78E0
78E0
7FE0
7F80
7800
7800
7800
FC00
ENDCHAR
STARTCHAR t.sups
ENCODING 7511
SWIDTH 239 0
DWIDTH 7 0
BBX 7 12 0 12
BITMAP
38
38
7E
FE
78
78
78
78
78
78
7E
3C
ENDCHAR
STARTCHAR u.sups
ENCODING 7512
SWIDTH 400 0
DWIDTH 12 0
BBX 12 10 0 12
BITMAP
38E0
FBE0
79E0
79E0
79E0
79E0
79E0
79E0
7FE0
3DF0
ENDCHAR
STARTCHAR v.sups
ENCODING 7515
SWIDTH 357 0
DWIDTH 11 0
BBX 11 10 0 12
BITMAP
FDE0
7880
7880
3980
3D00
1D00
1E00
1E00
0E00
0C00
ENDCHAR
STARTCHAR c.sups
ENCODING 7580
SWIDTH 334 0
DWIDTH 10 0
BBX 9 10 1 12
BITMAP
1E00
7300
E380
E300
E000
E000
E000
F080
7F00
3E00
ENDCHAR
STARTCHAR f.sups
ENCODING 7584
SWIDTH 234 0
DWIDTH 7 0
BBX 9 15 0 12
BITMAP
0200
1F80
1B80
3800
3800
7E00
FE00
7800
7800
7800
7800
7800
7800
7800
FC00
ENDCHAR
STARTCHAR z.sups
ENCODING 7611
SWIDTH 320 0
DWIDTH 10 0
BBX 9 10 0 12
BITMAP
7F80
6780
4700
0F00
1E00
1C00
3C00
7980
7180
FF80
ENDCHAR
STARTCHAR uni1E0C
ENCODING 7692
SWIDTH 703 0
DWIDTH 21 0
BBX 19 27 1 -7
BITMAP
FF8000
FFFC00
3F3F00
3F1F80
3F0FC0
3F0FC0
3F07E0
3F07E0
3F07E0
3F07E0
3F07E0
3F07E0
3F07E0
3F07E0
3F07C0
3F0FC0
3F0F80
3F1F00
FFFE00
FFF000
000000
000000
00E000
01F000
01F000
01F000
00E000
ENDCHAR
STARTCHAR uni1E0D
ENCODING 7693
SWIDTH 605 0
DWIDTH 18 0
BBX 16 29 1 -7
BITMAP
0002
007E
00FE
003E
003E
003E
003E
0FBE
3FFE
7FFE
7E3E
FC3E
FC3E
FC3E
FC3E
FC3E
FC3E
FC3E
FE3E
7FFE
7FFF
3FBF
0000
0000
01E0
03E0
03F0
03E0
01E0
ENDCHAR
STARTCHAR uni1E0E
ENCODING 7694
SWIDTH 703 0
DWIDTH 21 0
BBX 19 27 1 -7
BITMAP
FF8000
FFFC00
3F3F00
3F1F80
3F0FC0
3F0FC0
3F07E0
3F07E0
3F07E0
3F07E0
3F07E0
3F07E0
3F07E0
3F07E0
3F07C0
3F0FC0
3F0F80
3F1F00
FFFE00
FFF000
000000
000000
000000
000000
0FFE00
0FFE00
0FFE00
ENDCHAR
STARTCHAR uni1E0F
ENCODING 7695
SWIDTH 605 0
DWIDTH 18 0
BBX 16 29 1 -7
BITMAP
0002
007E
00FE
003E
003E
003E
003E
0FBE
3FFE
7FFE
7E3E
FC3E
FC3E
FC3E
FC3E
FC3E
FC3E
FC3E
FE3E
7FFE
7FFF
3FBF
0000
0000
0000
0000
0FFC
0FFC
0FFC
ENDCHAR
STARTCHAR uni1E20
ENCODING 7712
SWIDTH 672 0
DWIDTH 20 0
BBX 19 26 1 -1
BITMAP
07FE00
07FE00
07FE00
000000
000000
03FE00
0FFF80
1F8780
3F0380
7E0380
7E0380
FC0000
FC0000
FC0000
FC0000
FC7FE0
FC7FE0
FC0F80
FC0F80
7E0F80
7E0F80
3E0F80
3F0F80
1FCF80
07FF00
006000
ENDCHAR
STARTCHAR uni1E21
ENCODING 7713
SWIDTH 553 0
DWIDTH 17 0
BBX 16 27 0 -7
BITMAP
1FF8
1FF8
1FF8
0000
0000
0FE3
3EFF
7C7F
7C7C
7C7C
7C7C
7C7C
3E78
1FF0
3000
3000
7FF0
7FFE
7FFE
7FFF
3FFF
601F
E00F
F01E
787C
7FF8
0F80
ENDCHAR
STARTCHAR uni1E24
ENCODING 7716
SWIDTH 756 0
DWIDTH 23 0
BBX 21 27 1 -7
BITMAP
FFDFF8
FFDFF8
3F07E0
3F07E0
3F07E0
3F07E0
3F07E0
3F07E0
3F07E0
3FFFE0
3FFFE0
3F07E0
3F07E0
3F07E0
3F07E0
3F07E0
3F07E0
3F07E0
FFDFF8
FFDFF8
000000
000000
007000
00F800
00F800
00F800
00F000
ENDCHAR
STARTCHAR uni1E25
ENCODING 7717
SWIDTH 624 0
DWIDTH 19 0
BBX 17 29 1 -7
BITMAP
020000
7E0000
FE0000
7E0000
7E0000
7E0000
7E0000
7E7C00
7EFE00
7FFE00
7F3F00
7E3F00
7E3F00
7E3F00
7E3F00
7E3F00
7E3F00
7E3F00
7E3F00
7E3F00
FF7F80
FF7F80
000000
000000
01C000
03E000
03E000
03E000
01C000
ENDCHAR
STARTCHAR uni1E2A
ENCODING 7722
SWIDTH 756 0
DWIDTH 23 0
BBX 21 27 1 -7
BITMAP
FFDFF8
FFDFF8
3F07E0
3F07E0
3F07E0
3F07E0
3F07E0
3F07E0
3F07E0
3FFFE0
3FFFE0
3F07E0
3F07E0
3F07E0
3F07E0
3F07E0
3F07E0
3F07E0
FFDFF8
FFDFF8
000000
000000
060600
030E00
03FE00
03FC00
00F800
ENDCHAR
STARTCHAR uni1E2B
ENCODING 7723
SWIDTH 624 0
DWIDTH 19 0
BBX 17 29 1 -7
BITMAP
020000
7E0000
FE0000
7E0000
7E0000
7E0000
7E0000
7E7C00
7EFE00
7FFE00
7F3F00
7E3F00
7E3F00
7E3F00
7E3F00
7E3F00
7E3F00
7E3F00
7E3F00
7E3F00
FF7F80
FF7F80
000000
000000
0C1C00
0C1800
0FF800
07F000
03E000
ENDCHAR
STARTCHAR uni1E36
ENCODING 7734
SWIDTH 574 0
DWIDTH 17 0
BBX 16 27 1 -7
BITMAP
FFC0
FFC0
3F00
3F00
3F00
3F00
3F00
3F00
3F00
3F00
3F00
3F00
3F00
3F00
3F07
3F07
3F07
3F07
FFFF
FFFF
0000
0000
01C0
03E0
03E0
03E0
01C0
ENDCHAR
STARTCHAR uni1E37
ENCODING 7735
SWIDTH 334 0
DWIDTH 10 0
BBX 8 29 1 -7
BITMAP
02
7E
FE
7E
7E
7E
7E
7E
7E
7E
7E
7E
7E
7E
7E
7E
7E
7E
7E
7E
FF
FF
00
00
1C
3E
3E
3E
3C
ENDCHAR
STARTCHAR uni1E38
ENCODING 7736
SWIDTH 574 0
DWIDTH 17 0
BBX 16 32 1 -7
BITMAP
FFC0
FFC0
FFC0
0000
0000
FFC0
FFC0
3F00
3F00
3F00
3F00
3F00
3F00
3F00
3F00
3F00
3F00
3F00
3F00
3F07
3F07
3F07
3F07
FFFF
FFFF
0000
0000
01C0
03E0
03E0
03E0
01C0
ENDCHAR
STARTCHAR uni1E39
ENCODING 7737
SWIDTH 334 0
DWIDTH 10 0
BBX 10 33 0 -7
BITMAP
FFC0
FFC0
FFC0
0000
0100
3F00
7F00
3F00
3F00
3F00
3F00
3F00
3F00
3F00
3F00
3F00
3F00
3F00
3F00
3F00
3F00
3F00
3F00
3F00
7F80
7F80
0000
0000
0E00
1F00
1F00
1F00
1E00
ENDCHAR
STARTCHAR uni1E3A
ENCODING 7738
SWIDTH 574 0
DWIDTH 17 0
BBX 16 27 1 -7
BITMAP
FFC0
FFC0
3F00
3F00
3F00
3F00
3F00
3F00
3F00
3F00
3F00
3F00
3F00
3F00
3F07
3F07
3F07
3F07
FFFF
FFFF
0000
0000
0000
0000
1FFC
1FFC
1FFC
ENDCHAR
STARTCHAR uni1E3B
ENCODING 7739
SWIDTH 334 0
DWIDTH 10 0
BBX 10 29 0 -7
BITMAP
0100
3F00
7F00
3F00
3F00
3F00
3F00
3F00
3F00
3F00
3F00
3F00
3F00
3F00
3F00
3F00
3F00
3F00
3F00
3F00
7F80
7F80
0000
0000
0000
0000
FFC0
FFC0
FFC0
ENDCHAR
STARTCHAR uni1E3E
ENCODING 7742
SWIDTH 893 0
DWIDTH 27 0
BBX 26 26 0 0
BITMAP
0001E000
0003E000
0007E000
000F8000
001E0000
00000000
7FC03FC0
7FC07FC0
1FC07F00
1FE07F00
1FE0FF00
1FE0FF00
1BF0FF00
1BF1BF00
1BF1BF00
19F9BF00
19FB3F00
19FB3F00
18FF3F00
18FE3F00
187E3F00
187E3F00
187C3F00
183C3F00
FF3CFFC0
FF38FFC0
ENDCHAR
STARTCHAR uni1E3F
ENCODING 7743
SWIDTH 910 0
DWIDTH 27 0
BBX 27 24 0 0
BITMAP
00008000
0001C000
0003E000
0003C000
00078000
000F0000
000E0000
00000000
00000000
073E1F00
3FFF7F80
FFFFFF80
3F1F9F80
3F1F8F80
3F1F8FC0
3F1F8FC0
3F1F8FC0
3F1F8FC0
3F1F8FC0
3F1F8FC0
3F1F8FC0
3F1F8FC0
7FBFDFE0
7FBFDFE0
ENDCHAR
STARTCHAR uni1E42
ENCODING 7746
SWIDTH 893 0
DWIDTH 27 0
BBX 26 27 0 -7
BITMAP
7FC03FC0
7FC07FC0
1FC07F00
1FE07F00
1FE0FF00
1FE0FF00
1BF0FF00
1BF1BF00
1BF1BF00
19F9BF00
19FB3F00
19FB3F00
18FF3F00
18FE3F00
187E3F00
187E3F00
187C3F00
183C3F00
FF3CFFC0
FF38FFC0
00000000
00000000
003C0000
007C0000
007E0000
007E0000
003C0000
ENDCHAR
STARTCHAR uni1E43
ENCODING 7747
SWIDTH 910 0
DWIDTH 27 0
BBX 27 22 0 -7
BITMAP
073E1F00
3FFF7F80
FFFFFF80
3F1F9F80
3F1F8F80
3F1F8FC0
3F1F8FC0
3F1F8FC0
3F1F8FC0
3F1F8FC0
3F1F8FC0
3F1F8FC0
3F1F8FC0
7FBFDFE0
7FBFDFE0
00000000
00000000
000F0000
001F8000
001F8000
001F8000
000F0000
ENDCHAR
STARTCHAR uni1E44
ENCODING 7748
SWIDTH 725 0
DWIDTH 22 0
BBX 20 26 1 0
BITMAP
00F000
01F000
01F800
01F000
00F000
000000
FE0FF0
FF0FF0
3F83C0
3FC180
3FC180
3FE180
37F180
37F980
33F980
31FD80
30FF80
30FF80
307F80
303F80
303F80
301F80
300F80
300780
FF0780
FF0380
ENDCHAR
STARTCHAR uni1E45
ENCODING 7749
SWIDTH 620 0
DWIDTH 19 0
BBX 18 22 0 0
BITMAP
00E000
01F000
01F000
01F000
00E000
000000
000000
073E00
3FFF00
FFFF00
3F1F80
3F1F80
3F1F80
3F1F80
3F1F80
3F1F80
3F1F80
3F1F80
3F1F80
3F1F80
7FBFC0
7FBFC0
ENDCHAR
STARTCHAR uni1E46
ENCODING 7750
SWIDTH 725 0
DWIDTH 22 0
BBX 20 27 1 -7
BITMAP
FE0FF0
FF0FF0
3F83C0
3FC180
3FC180
3FE180
37F180
37F980
33F980
31FD80
30FF80
30FF80
307F80
303F80
303F80
301F80
300F80
300780
FF0780
FF0380
000000
000000
007000
00F800
00F800
00F800
00F000
ENDCHAR
STARTCHAR uni1E47
ENCODING 7751
SWIDTH 620 0
DWIDTH 19 0
BBX 18 22 0 -7
BITMAP
073E00
3FFF00
FFFF00
3F1F80
3F1F80
3F1F80
3F1F80
3F1F80
3F1F80
3F1F80
3F1F80
3F1F80
3F1F80
7FBFC0
7FBFC0
000000
000000
00E000
01F000
01F000
01F000
00E000
ENDCHAR
STARTCHAR uni1E48
ENCODING 7752
SWIDTH 725 0
DWIDTH 22 0
BBX 20 27 1 -7
BITMAP
FE0FF0
FF0FF0
3F83C0
3FC180
3FC180
3FE180
37F180
37F980
33F980
31FD80
30FF80
30FF80
307F80
303F80
303F80
301F80
300F80
300780
FF0780
FF0380
000000
000000
000000
000000
07FE00
07FE00
07FE00
ENDCHAR
STARTCHAR uni1E49
ENCODING 7753
SWIDTH 620 0
DWIDTH 19 0
BBX 18 22 0 -7
BITMAP
073E00
3FFF00
FFFF00
3F1F80
3F1F80
3F1F80
3F1F80
3F1F80
3F1F80
3F1F80
3F1F80
3F1F80
3F1F80
7FBFC0
7FBFC0
000000
000000
000000
000000
0FFC00
0FFC00
0FFC00
ENDCHAR
STARTCHAR uni1E5A
ENCODING 7770
SWIDTH 696 0
DWIDTH 21 0
BBX 20 27 1 -7
BITMAP
FFF000
FFFE00
3F3F80
3F1F80
3F0F80
3F0FC0
3F0F80
3F0F80
3F1F00
3FFC00
3FFE00
3F3F00
3F1F80
3F1F80
3F1F80
3F1F80
3F1FC0
3F1FC0
FFCFF0
FFC7F0
000000
000000
00F000
01F800
01F800
01F800
00F000
ENDCHAR
STARTCHAR uni1E5B
ENCODING 7771
SWIDTH 483 0
DWIDTH 14 0
BBX 15 22 0 -7
BITMAP
073C
3F7C
FFFE
3FBC
3F9C
3F00
3F00
3F00
3F00
3F00
3F00
3F00
3F00
7FC0
7FC0
0000
0000
1E00
3F00
3F00
3F00
1E00
ENDCHAR
STARTCHAR uni1E5C
ENCODING 7772
SWIDTH 696 0
DWIDTH 21 0
BBX 20 32 1 -7
BITMAP
07FC00
07FC00
07FC00
000000
000000
FFF000
FFFE00
3F3F80
3F1F80
3F0F80
3F0FC0
3F0F80
3F0F80
3F1F00
3FFC00
3FFE00
3F3F00
3F1F80
3F1F80
3F1F80
3F1F80
3F1FC0
3F1FC0
FFCFF0
FFC7F0
000000
000000
00F000
01F800
01F800
01F800
00F000
ENDCHAR
STARTCHAR uni1E5D
ENCODING 7773
SWIDTH 483 0
DWIDTH 14 0
BBX 15 27 0 -7
BITMAP
0FFC
0FFC
0FFC
0000
0000
073C
3F7C
FFFE
3FBC
3F9C
3F00
3F00
3F00
3F00
3F00
3F00
3F00
3F00
7FC0
7FC0
0000
0000
1E00
3F00
3F00
3F00
1E00
ENDCHAR
STARTCHAR uni1E5E
ENCODING 7774
SWIDTH 696 0
DWIDTH 21 0
BBX 20 27 1 -7
BITMAP
FFF000
FFFE00
3F3F80
3F1F80
3F0F80
3F0FC0
3F0F80
3F0F80
3F1F00
3FFC00
3FFE00
3F3F00
3F1F80
3F1F80
3F1F80
3F1F80
3F1FC0
3F1FC0
FFCFF0
FFC7F0
000000
000000
000000
000000
07FE00
07FE00
07FE00
ENDCHAR
STARTCHAR uni1E5F
ENCODING 7775
SWIDTH 483 0
DWIDTH 14 0
BBX 15 22 0 -7
BITMAP
073C
3F7C
FFFE
3FBC
3F9C
3F00
3F00
3F00
3F00
3F00
3F00
3F00
3F00
7FC0
7FC0
0000
0000
0000
0000
FFC0
FFC0
FFC0
ENDCHAR
STARTCHAR uni1E60
ENCODING 7776
SWIDTH 553 0
DWIDTH 17 0
BBX 15 27 1 -1
BITMAP
03C0
07E0
07E0
07E0
03C0
0000
0FF0
3FFC
7C3C
7C3C
FC3C
FC1C
FE00
FF80
7FE0
7FF0
3FF8
0FFC
03FE
00FE
E07E
E07E
F07C
F07C
F8F8
7FF0
0300
ENDCHAR
STARTCHAR uni1E61
ENCODING 7777
SWIDTH 463 0
DWIDTH 14 0
BBX 12 22 1 0
BITMAP
0700
0F80
0F80
0F80
0700
0000
0000
1FC0
7FE0
78E0
F0E0
F8E0
FF80
FFE0
FFF0
7FF0
1FF0
E3F0
E1F0
E0F0
F3E0
7FC0
ENDCHAR
STARTCHAR uni1E62
ENCODING 7778
SWIDTH 553 0
DWIDTH 17 0
BBX 15 27 1 -7
BITMAP
0FF0
3FFC
7C3C
7C3C
FC3C
FC1C
FE00
FF80
7FE0
7FF0
3FF8
0FFC
03FE
00FE
E07E
E07E
F07C
F07C
F8F8
7FF0
0300
0000
0380
07C0
07C0
07C0
0780
ENDCHAR
STARTCHAR uni1E63
ENCODING 7779
SWIDTH 463 0
DWIDTH 14 0
BBX 12 22 1 -7
BITMAP
1FC0
7FE0
78E0
F0E0
F8E0
FF80
FFE0
FFF0
7FF0
1FF0
E3F0
E1F0
E0F0
F3E0
7FC0
0000
0000
0F00
1F00
1F80
1F80
0F00
ENDCHAR
STARTCHAR uni1E6C
ENCODING 7788
SWIDTH 646 0
DWIDTH 19 0
BBX 18 27 1 -7
BITMAP
FFFFC0
FFFFC0
E3F1C0
E3F1C0
E3F1C0
E3F1C0
03F000
03F000
03F000
03F000
03F000
03F000
03F000
03F000
03F000
03F000
03F000
03F000
1FFC00
1FFC00
000000
000000
01C000
03E000
03E000
03E000
01E000
ENDCHAR
STARTCHAR uni1E6D
ENCODING 7789
SWIDTH 372 0
DWIDTH 11 0
BBX 11 26 0 -7
BITMAP
0F00
0F00
1F00
1F00
3FE0
FFE0
FFE0
3F00
3F00
3F00
3F00
3F00
3F00
3F00
3F00
3F00
3FA0
1FE0
1FC0
0000
0000
0780
0F80
0FC0
0FC0
0780
ENDCHAR
STARTCHAR uni1E6E
ENCODING 7790
SWIDTH 646 0
DWIDTH 19 0
BBX 18 27 1 -7
BITMAP
FFFFC0
FFFFC0
E3F1C0
E3F1C0
E3F1C0
E3F1C0
03F000
03F000
03F000
03F000
03F000
03F000
03F000
03F000
03F000
03F000
03F000
03F000
1FFC00
1FFC00
000000
000000
000000
000000
0FFC00
0FFC00
0FFC00
ENDCHAR
STARTCHAR uni1E6F
ENCODING 7791
SWIDTH 372 0
DWIDTH 11 0
BBX 12 26 0 -7
BITMAP
0F00
0F00
1F00
1F00
3FE0
FFE0
FFE0
3F00
3F00
3F00
3F00
3F00
3F00
3F00
3F00
3F00
3FA0
1FE0
1FC0
0000
0000
0000
0000
7FF0
7FF0
7FF0
ENDCHAR
STARTCHAR Wgrave
ENCODING 7808
SWIDTH 989 0
DWIDTH 30 0
BBX 30 26 0 0
BITMAP
001C0000
003E0000
001F0000
000F8000
0001C000
00000000
FFCFF8FC
FFCFF8FC
3F03E070
3F03E060
3F07F060
1F87F060
1F87F0C0
1F85F0C0
0F8DF8C0
0FCDF980
0FCCF980
0FD8F980
07D8FD00
07F8FF00
07F07F00
03F07E00
03F07E00
03E03E00
01E03C00
01E03C00
ENDCHAR
STARTCHAR wgrave
ENCODING 7809
SWIDTH 800 0
DWIDTH 24 0
BBX 24 24 0 0
BITMAP
004000
00E000
00F000
00F800
007800
003C00
000C00
000000
000000
FF7FBF
FF7FBF
7E1F0C
7E3F1C
3E3F18
3F3F98
3F6FB8
1F6FB0
1F6FF0
0FC7E0
0FC7E0
0FC3E0
0783C0
0783C0
0701C0
ENDCHAR
STARTCHAR Wacute
ENCODING 7810
SWIDTH 989 0
DWIDTH 30 0
BBX 30 26 0 0
BITMAP
00001C00
00003E00
00007C00
0001F800
0001C000
00000000
FFCFF8FC
FFCFF8FC
3F03E070
3F03E060
3F07F060
1F87F060
1F87F0C0
1F85F0C0
0F8DF8C0
0FCDF980
0FCCF980
0FD8F980
07D8FD00
07F8FF00
07F07F00
03F07E00
03F07E00
03E03E00
01E03C00
01E03C00
ENDCHAR
STARTCHAR wacute
ENCODING 7811
SWIDTH 800 0
DWIDTH 24 0
BBX 24 24 0 0
BITMAP
000100
000380
000780
000F80
000F00
001E00
001800
000000
000000
FF7FBF
FF7FBF
7E1F0C
7E3F1C
3E3F18
3F3F98
3F6FB8
1F6FB0
1F6FF0
0FC7E0
0FC7E0
0FC3E0
0783C0
0783C0
0701C0
ENDCHAR
STARTCHAR Wdieresis
ENCODING 7812
SWIDTH 989 0
DWIDTH 30 0
BBX 30 26 0 0
BITMAP
00080800
003E3C00
003E3E00
003E3E00
001C1C00
00000000
FFCFF8FC
FFCFF8FC
3F03E070
3F03E060
3F07F060
1F87F060
1F87F0C0
1F85F0C0
0F8DF8C0
0FCDF980
0FCCF980
0FD8F980
07D8FD00
07F8FF00
07F07F00
03F07E00
03F07E00
03E03E00
01E03C00
01E03C00
ENDCHAR
STARTCHAR wdieresis
ENCODING 7813
SWIDTH 800 0
DWIDTH 24 0
BBX 24 22 0 0
BITMAP
00C0C0
01F1E0
01F3E0
01F3E0
00E1C0
000000
000000
FF7FBF
FF7FBF
7E1F0C
7E3F1C
3E3F18
3F3F98
3F6FB8
1F6FB0
1F6FF0
0FC7E0
0FC7E0
0FC3E0
0783C0
0783C0
0701C0
ENDCHAR
STARTCHAR uni1E8E
ENCODING 7822
SWIDTH 621 0
DWIDTH 19 0
BBX 19 26 0 0
BITMAP
003800
007C00
007C00
007C00
003800
000000
FFC7E0
FFC7E0
3F0380
3F8300
1F8300
1FC600
0FC600
0FEC00
07EC00
07F800
03F800
03F000
03F000
03F000
03F000
03F000
03F000
03F000
0FFE00
0FFE00
ENDCHAR
STARTCHAR uni1E8F
ENCODING 7823
SWIDTH 543 0
DWIDTH 16 0
BBX 16 29 0 -7
BITMAP
00E0
01F0
01F0
01F0
00E0
0000
0000
FF9F
FF9F
7E0C
3F0C
3F18
1F18
1F98
0FB0
0FB0
0FE0
07E0
07E0
03C0
03C0
01C0
0180
0180
3100
FB00
FE00
FE00
7800
ENDCHAR
STARTCHAR uni1E92
ENCODING 7826
SWIDTH 568 0
DWIDTH 17 0
BBX 15 27 1 -7
BITMAP
FFFE
FFFE
E0FE
E0FC
E1FC
E1F8
03F8
03F0
07F0
07E0
0FE0
1FC0
1F80
3F80
3F06
7F06
7E0E
FE0E
FFFE
FFFE
0000
0000
03C0
07C0
07E0
07C0
03C0
ENDCHAR
STARTCHAR uni1E93
ENCODING 7827
SWIDTH 468 0
DWIDTH 14 0
BBX 14 22 0 -7
BITMAP
7FFC
7FFC
71F8
73F0
73F0
07E0
07E0
0FC0
0FC0
1F80
3F9C
3F1C
7E3C
7E3C
FFF8
0000
0000
0780
07C0
0FC0
07C0
0780
ENDCHAR
STARTCHAR uni1E97
ENCODING 7831
SWIDTH 372 0
DWIDTH 11 0
BBX 13 26 -1 0
BITMAP
3070
78F8
FCF8
78F8
7870
0000
0000
0780
0780
0F80
0F80
1FF0
7FF0
7FF0
1F80
1F80
1F80
1F80
1F80
1F80
1F80
1F80
1F80
1FD0
0FF0
0FE0
ENDCHAR
STARTCHAR uni1E9E
ENCODING 7838
SWIDTH 760 0
DWIDTH 23 0
BBX 21 21 1 -1
BITMAP
03FF00
0FFFC0
1F81C0
1F0780
3F0F80
3F0F00
3F1F00
3F1F80
3F1FC0
3F1FE0
3F0FF0
3F07F0
3F03F8
3F03F8
3F31F8
3F38F8
3F78F8
3F79F8
FF79F0
FF3FE0
000200
ENDCHAR
STARTCHAR uni1EA0
ENCODING 7840
SWIDTH 680 0
DWIDTH 20 0
BBX 20 27 0 -7
BITMAP
007000
00F800
00F800
00F800
01FC00
01FC00
017C00
037E00
037E00
023E00
063F00
063F00
041F00
0FFF80
0FFF80
180F80
180FC0
180FC0
FE3FF0
FE3FF0
000000
000000
01E000
01F000
03F000
01F000
01E000
ENDCHAR
STARTCHAR uni1EA1
ENCODING 7841
SWIDTH 540 0
DWIDTH 16 0
BBX 15 22 1 -7
BITMAP
1FE0
3FF0
79F8
F8F8
F8F8
70F8
03F8
1EF8
7CF8
F8F8
F8F8
F8F8
FDFA
FFFE
7E7C
0000
0000
0780
0FC0
0FC0
0FC0
0780
ENDCHAR
STARTCHAR uni1EA2
ENCODING 7842
SWIDTH 680 0
DWIDTH 20 0
BBX 20 28 0 0
BITMAP
008000
00F000
00F800
00F800
003800
007000
006000
000000
007000
00F800
00F800
00F800
01FC00
01FC00
017C00
037E00
037E00
023E00
063F00
063F00
041F00
0FFF80
0FFF80
180F80
180FC0
180FC0
FE3FF0
FE3FF0
ENDCHAR
STARTCHAR uni1EA3
ENCODING 7843
SWIDTH 540 0
DWIDTH 16 0
BBX 15 24 1 0
BITMAP
0300
0780
07C0
07C0
00C0
03C0
0380
0000
0000
1FE0
3FF0
79F8
F8F8
F8F8
70F8
03F8
1EF8
7CF8
F8F8
F8F8
F8F8
FDFA
FFFE
7E7C
ENDCHAR
STARTCHAR uni1EA4
ENCODING 7844
SWIDTH 680 0
DWIDTH 20 0
BBX 20 28 0 0
BITMAP
0000E0
0000F0
00F9E0
01F9C0
03FD00
07DE00
0F0700
040100
007000
00F800
00F800
00F800
01FC00
01FC00
017C00
037E00
037E00
023E00
063F00
063F00
041F00
0FFF80
0FFF80
180F80
180FC0
180FC0
FE3FF0
FE3FF0
ENDCHAR
STARTCHAR uni1EA5
ENCODING 7845
SWIDTH 540 0
DWIDTH 16 0
BBX 16 25 1 0
BITMAP
0002
0007
038F
07DF
0FEC
1FF0
3EF8
3838
2008
0000
1FE0
3FF0
79F8
F8F8
F8F8
70F8
03F8
1EF8
7CF8
F8F8
F8F8
F8F8
FDFA
FFFE
7E7C
ENDCHAR
STARTCHAR uni1EA6
ENCODING 7846
SWIDTH 680 0
DWIDTH 20 0
BBX 20 28 0 0
BITMAP
700000
780000
7CF800
3DF800
0BFC00
07DE00
0F0700
040100
007000
00F800
00F800
00F800
01FC00
01FC00
017C00
037E00
037E00
023E00
063F00
063F00
041F00
0FFF80
0FFF80
180F80
180FC0
180FC0
FE3FF0
FE3FF0
ENDCHAR
STARTCHAR uni1EA7
ENCODING 7847
SWIDTH 540 0
DWIDTH 16 0
BBX 16 25 0 0
BITMAP
4000
E000
F1C0
FBE0
37F0
0FF8
1F7C
1C1C
1004
0000
0FF0
1FF8
3CFC
7C7C
7C7C
387C
01FC
0F7C
3E7C
7C7C
7C7C
7C7C
7EFD
7FFF
3F3E
ENDCHAR
STARTCHAR uni1EA8
ENCODING 7848
SWIDTH 680 0
DWIDTH 20 0
BBX 20 30 0 0
BITMAP
000380
0003C0
0003E0
0000E0
00F8E0
01F9C0
03FC00
07DE00
0F0700
040100
007000
00F800
00F800
00F800
01FC00
01FC00
017C00
037E00
037E00
023E00
063F00
063F00
041F00
0FFF80
0FFF80
180F80
180FC0
180FC0
FE3FF0
FE3FF0
ENDCHAR
STARTCHAR uni1EA9
ENCODING 7849
SWIDTH 540 0
DWIDTH 16 0
BBX 17 27 1 0
BITMAP
000800
000F00
000F00
000F80
038380
07C700
0FEE00
1FF000
3EF800
383800
200800
000000
1FE000
3FF000
79F800
F8F800
F8F800
70F800
03F800
1EF800
7CF800
F8F800
F8F800
F8F800
FDFA00
FFFE00
7E7C00
ENDCHAR
STARTCHAR uni1EAA
ENCODING 7850
SWIDTH 680 0
DWIDTH 20 0
BBX 20 30 0 0
BITMAP
01E300
03FF00
07FE00
061C00
007000
00F800
01FC00
03FE00
0F0F00
040100
007000
00F800
00F800
00F800
01FC00
01FC00
017C00
037E00
037E00
023E00
063F00
063F00
041F00
0FFF80
0FFF80
180F80
180FC0
180FC0
FE3FF0
FE3FF0
ENDCHAR
STARTCHAR uni1EAB
ENCODING 7851
SWIDTH 540 0
DWIDTH 16 0
BBX 15 26 1 0
BITMAP
1F38
1FF8
3FF0
30E0
0380
07C0
0FE0
1EF0
3838
2008
0000
1FE0
3FF0
79F8
F8F8
F8F8
70F8
03F8
1EF8
7CF8
F8F8
F8F8
F8F8
FDFA
FFFE
7E7C
ENDCHAR
STARTCHAR uni1EAC
ENCODING 7852
SWIDTH 680 0
DWIDTH 20 0
BBX 20 33 0 -7
BITMAP
00F000
01F800
03FC00
07DE00
0F0700
040100
007000
00F800
00F800
00F800
01FC00
01FC00
017C00
037E00
037E00
023E00
063F00
063F00
041F00
0FFF80
0FFF80
180F80
180FC0
180FC0
FE3FF0
FE3FF0
000000
000000
01E000
01F000
03F000
01F000
01E000
ENDCHAR
STARTCHAR uni1EAD
ENCODING 7853
SWIDTH 540 0
DWIDTH 16 0
BBX 15 30 1 -7
BITMAP
0380
07C0
0FC0
0FE0
1CF0
3838
1010
0000
1FE0
3FF0
79F8
F8F8
F8F8
70F8
03F8
1EF8
7CF8
F8F8
F8F8
F8F8
FDFA
FFFE
7E7C
0000
0000
0780
0FC0
0FC0
0FC0
0780
ENDCHAR
STARTCHAR uni1EAE
ENCODING 7854
SWIDTH 680 0
DWIDTH 20 0
BBX 20 31 0 0
BITMAP
000C00
001E00
003E00
003C00
007000
026200
070700
03FE00
03FC00
00F800
000000
007000
00F800
00F800
00F800
01FC00
01FC00
017C00
037E00
037E00
023E00
063F00
063F00
041F00
0FFF80
0FFF80
180F80
180FC0
180FC0
FE3FF0
FE3FF0
ENDCHAR
STARTCHAR uni1EAF
ENCODING 7855
SWIDTH 540 0
DWIDTH 16 0
BBX 15 27 1 0
BITMAP
0060
00F0
01F0
01E0
03C0
0380
3118
1C70
1FF0
0FE0
0000
0000
1FE0
3FF0
79F8
F8F8
F8F8
70F8
03F8
1EF8
7CF8
F8F8
F8F8
F8F8
FDFA
FFFE
7E7C
ENDCHAR
STARTCHAR uni1EB0
ENCODING 7856
SWIDTH 680 0
DWIDTH 20 0
BBX 20 31 0 0
BITMAP
038000
03C000
03E000
01E000
00F000
023200
070700
03FE00
03FC00
00F800
000000
007000
00F800
00F800
00F800
01FC00
01FC00
017C00
037E00
037E00
023E00
063F00
063F00
041F00
0FFF80
0FFF80
180F80
180FC0
180FC0
FE3FF0
FE3FF0
ENDCHAR
STARTCHAR uni1EB1
ENCODING 7857
SWIDTH 540 0
DWIDTH 16 0
BBX 15 27 1 0
BITMAP
0C00
1E00
1E00
0F00
0700
0380
3130
3C70
1FE0
0FC0
0000
0000
1FE0
3FF0
79F8
F8F8
F8F8
70F8
03F8
1EF8
7CF8
F8F8
F8F8
F8F8
FDFA
FFFE
7E7C
ENDCHAR
STARTCHAR uni1EB2
ENCODING 7858
SWIDTH 680 0
DWIDTH 20 0
BBX 20 31 0 0
BITMAP
008000
00F000
00F800
00F800
003800
027A00
076700
03FE00
03FC00
00F800
000000
007000
00F800
00F800
00F800
01FC00
01FC00
017C00
037E00
037E00
023E00
063F00
063F00
041F00
0FFF80
0FFF80
180F80
180FC0
180FC0
FE3FF0
FE3FF0
ENDCHAR
STARTCHAR uni1EB3
ENCODING 7859
SWIDTH 540 0
DWIDTH 16 0
BBX 15 28 1 0
BITMAP
0400
0780
07C0
07C0
01C0
0380
1320
3030
3FF0
1FE0
0FC0
0000
0000
1FE0
3FF0
79F8
F8F8
F8F8
70F8
03F8
1EF8
7CF8
F8F8
F8F8
F8F8
FDFA
FFFE
7E7C
ENDCHAR
STARTCHAR uni1EB4
ENCODING 7860
SWIDTH 680 0
DWIDTH 20 0
BBX 20 31 0 0
BITMAP
000200
03F700
07FE00
07FE00
020800
020200
070700
03FE00
03FC00
00F800
000000
007000
00F800
00F800
00F800
01FC00
01FC00
017C00
037E00
037E00
023E00
063F00
063F00
041F00
0FFF80
0FFF80
180F80
180FC0
180FC0
FE3FF0
FE3FF0
ENDCHAR
STARTCHAR uni1EB5
ENCODING 7861
SWIDTH 540 0
DWIDTH 16 0
BBX 15 26 1 0
BITMAP
1F38
3FF0
3FF0
20C0
0000
3030
3C70
1FE0
0FC0
0000
0000
1FE0
3FF0
79F8
F8F8
F8F8
70F8
03F8
1EF8
7CF8
F8F8
F8F8
F8F8
FDFA
FFFE
7E7C
ENDCHAR
STARTCHAR uni1EB6
ENCODING 7862
SWIDTH 680 0
DWIDTH 20 0
BBX 20 33 0 -7
BITMAP
020200
070700
03FE00
03FC00
00F800
000000
007000
00F800
00F800
00F800
01FC00
01FC00
017C00
037E00
037E00
023E00
063F00
063F00
041F00
0FFF80
0FFF80
180F80
180FC0
180FC0
FE3FF0
FE3FF0
000000
000000
00E000
01F000
01F800
01F000
00F000
ENDCHAR
STARTCHAR uni1EB7
ENCODING 7863
SWIDTH 540 0
DWIDTH 16 0
BBX 15 29 1 -7
BITMAP
3030
3870
1FF0
1FE0
0FC0
0000
0000
1FE0
3FF0
79F8
F8F8
F8F8
70F8
03F8
1EF8
7CF8
F8F8
F8F8
F8F8
FDFA
FFFE
7E7C
0000
0000
0780
0FC0
0FC0
0FC0
0780
ENDCHAR
STARTCHAR uni1EB8
ENCODING 7864
SWIDTH 591 0
DWIDTH 18 0
BBX 16 27 1 -7
BITMAP
FFFE
FFFE
3F0E
3F0E
3F06
3F07
3F00
3F18
3F18
3FF8
3FF8
3F18
3F18
3F00
3F00
3F07
3F07
3F07
FFFF
FFFF
0000
0000
01C0
03E0
03E0
03E0
03C0
ENDCHAR
STARTCHAR uni1EB9
ENCODING 7865
SWIDTH 526 0
DWIDTH 16 0
BBX 14 22 1 -7
BITMAP
07E0
1FF0
3C78
7C7C
FC7C
FC7C
FFFC
FFFC
FC00
FC00
FC00
FE08
7FFC
3FF8
1FF0
0000
0000
0780
07C0
0FC0
07C0
0780
ENDCHAR
STARTCHAR uni1EBA
ENCODING 7866
SWIDTH 591 0
DWIDTH 18 0
BBX 16 28 1 0
BITMAP
0200
03C0
03E0
03E0
00E0
01C0
0180
0000
FFFE
FFFE
3F0E
3F0E
3F06
3F07
3F00
3F18
3F18
3FF8
3FF8
3F18
3F18
3F00
3F00
3F07
3F07
3F07
FFFF
FFFF
ENDCHAR
STARTCHAR uni1EBB
ENCODING 7867
SWIDTH 526 0
DWIDTH 16 0
BBX 14 24 1 0
BITMAP
0700
0780
07C0
07C0
00C0
03C0
0380
0000
0000
07E0
1FF0
3C78
7C7C
FC7C
FC7C
FFFC
FFFC
FC00
FC00
FC00
FE08
7FFC
3FF8
1FF0
ENDCHAR
STARTCHAR uni1EBC
ENCODING 7868
SWIDTH 591 0
DWIDTH 18 0
BBX 16 26 1 0
BITMAP
0608
0F9C
1FF8
1FF8
18F0
0000
FFFE
FFFE
3F0E
3F0E
3F06
3F07
3F00
3F18
3F18
3FF8
3FF8
3F18
3F18
3F00
3F00
3F07
3F07
3F07
FFFF
FFFF
ENDCHAR
STARTCHAR uni1EBD
ENCODING 7869
SWIDTH 526 0
DWIDTH 16 0
BBX 14 22 1 0
BITMAP
0E18
1FF0
3FF0
3FF0
21E0
0000
0000
07E0
1FF0
3C78
7C7C
FC7C
FC7C
FFFC
FFFC
FC00
FC00
FC00
FE08
7FFC
3FF8
1FF0
ENDCHAR
STARTCHAR uni1EBE
ENCODING 7870
SWIDTH 591 0
DWIDTH 18 0
BBX 18 28 1 0
BITMAP
000380
0003C0
03C780
07E700
0FF400
1F7800
3C1C00
100400
FFFE00
FFFE00
3F0E00
3F0E00
3F0600
3F0700
3F0000
3F1800
3F1800
3FF800
3FF800
3F1800
3F1800
3F0000
3F0000
3F0700
3F0700
3F0700
FFFF00
FFFF00
ENDCHAR
STARTCHAR uni1EBF
ENCODING 7871
SWIDTH 526 0
DWIDTH 16 0
BBX 16 25 1 0
BITMAP
0002
000F
038F
07DE
0FEC
1FF0
3EF0
3838
2008
0000
07E0
1FF0
3C78
7C7C
FC7C
FC7C
FFFC
FFFC
FC00
FC00
FC00
FE08
7FFC
3FF8
1FF0
ENDCHAR
STARTCHAR uni1EC0
ENCODING 7872
SWIDTH 591 0
DWIDTH 18 0
BBX 17 28 0 0
BITMAP
E00000
F00000
F1E000
7BF000
17F800
0F3C00
1E0E00
080200
7FFF00
7FFF00
1F8700
1F8700
1F8300
1F8380
1F8000
1F8C00
1F8C00
1FFC00
1FFC00
1F8C00
1F8C00
1F8000
1F8000
1F8380
1F8380
1F8380
7FFF80
7FFF80
ENDCHAR
STARTCHAR uni1EC1
ENCODING 7873
SWIDTH 526 0
DWIDTH 16 0
BBX 15 25 0 0
BITMAP
4000
E000
F180
F3C0
77E0
0FF0
1E78
381C
1008
0000
03F0
0FF8
1E3C
3E3E
7E3E
7E3E
7FFE
7FFE
7E00
7E00
7E00
7F04
3FFE
1FFC
0FF8
ENDCHAR
STARTCHAR uni1EC2
ENCODING 7874
SWIDTH 591 0
DWIDTH 18 0
BBX 17 30 1 0
BITMAP
000E00
000F00
000F80
000380
03C700
07E600
0FF000
1E7800
3C1C00
100400
FFFE00
FFFE00
3F0E00
3F0E00
3F0600
3F0700
3F0000
3F1800
3F1800
3FF800
3FF800
3F1800
3F1800
3F0000
3F0000
3F0700
3F0700
3F0700
FFFF00
FFFF00
ENDCHAR
STARTCHAR uni1EC3
ENCODING 7875
SWIDTH 526 0
DWIDTH 16 0
BBX 16 27 1 0
BITMAP
0018
001E
001F
001F
0303
0787
0FCE
1FE0
3CF0
7038
2010
0000
07E0
1FF0
3C78
7C7C
FC7C
FC7C
FFFC
FFFC
FC00
FC00
FC00
FE08
7FFC
3FF8
1FF0
ENDCHAR
STARTCHAR uni1EC4
ENCODING 7876
SWIDTH 591 0
DWIDTH 18 0
BBX 16 30 1 0
BITMAP
0F8C
1FF8
1FF8
1870
0180
03E0
07F0
1FF8
3C3C
1008
FFFE
FFFE
3F0E
3F0E
3F06
3F07
3F00
3F18
3F18
3FF8
3FF8
3F18
3F18
3F00
3F00
3F07
3F07
3F07
FFFF
FFFF
ENDCHAR
STARTCHAR uni1EC5
ENCODING 7877
SWIDTH 526 0
DWIDTH 16 0
BBX 14 26 1 0
BITMAP
1F38
3FF0
3FF0
20C0
0380
07C0
1FE0
3FF0
7878
2010
0000
07E0
1FF0
3C78
7C7C
FC7C
FC7C
FFFC
FFFC
FC00
FC00
FC00
FE08
7FFC
3FF8
1FF0
ENDCHAR
STARTCHAR uni1EC6
ENCODING 7878
SWIDTH 591 0
DWIDTH 18 0
BBX 16 33 1 -7
BITMAP
03E0
07F0
0FF0
1F78
1C1C
1004
FFFE
FFFE
3F0E
3F0E
3F06
3F07
3F00
3F18
3F18
3FF8
3FF8
3F18
3F18
3F00
3F00
3F07
3F07
3F07
FFFF
FFFF
0000
0000
01C0
03E0
03E0
03E0
03C0
ENDCHAR
STARTCHAR uni1EC7
ENCODING 7879
SWIDTH 526 0
DWIDTH 16 0
BBX 14 30 1 -7
BITMAP
0380
07C0
07C0
0FE0
1C70
3838
1010
0000
07E0
1FF0
3C78
7C7C
FC7C
FC7C
FFFC
FFFC
FC00
FC00
FC00
FE08
7FFC
3FF8
1FF0
0000
0000
0780
07C0
0FC0
07C0
0780
ENDCHAR
STARTCHAR uni1EC8
ENCODING 7880
SWIDTH 395 0
DWIDTH 12 0
BBX 10 28 1 0
BITMAP
1000
1E00
1E00
1F00
0700
0E00
0C00
0000
FFC0
FFC0
3F00
3F00
3F00
3F00
3F00
3F00
3F00
3F00
3F00
3F00
3F00
3F00
3F00
3F00
3F00
3F00
FFC0
FFC0
ENDCHAR
STARTCHAR uni1EC9
ENCODING 7881
SWIDTH 324 0
DWIDTH 10 0
BBX 8 24 1 0
BITMAP
30
3C
3C
3E
0E
1C
38
00
00
0E
7E
FE
7E
7E
7E
7E
7E
7E
7E
7E
7E
7E
FF
FF
ENDCHAR
STARTCHAR uni1ECA
ENCODING 7882
SWIDTH 395 0
DWIDTH 12 0
BBX 10 27 1 -7
BITMAP
FFC0
FFC0
3F00
3F00
3F00
3F00
3F00
3F00
3F00
3F00
3F00
3F00
3F00
3F00
3F00
3F00
3F00
3F00
FFC0
FFC0
0000
0000
1E00
3E00
3F00
3F00
1E00
ENDCHAR
STARTCHAR uni1ECB
ENCODING 7883
SWIDTH 324 0
DWIDTH 10 0
BBX 8 29 1 -7
BITMAP
3C
7E
7E
7E
3C
00
00
0E
7E
FE
7E
7E
7E
7E
7E
7E
7E
7E
7E
7E
FF
FF
00
00
3C
7C
7E
7C
3C
ENDCHAR
STARTCHAR uni1ECC
ENCODING 7884
SWIDTH 700 0
DWIDTH 21 0
BBX 19 27 1 -7
BITMAP
03F800
0FFE00
1F1F00
3E0F80
7E0FC0
7C07C0
FC07E0
FC07E0
FC07E0
FC07E0
FC07E0
FC07E0
FC07E0
FC07E0
7C07C0
7C0FC0
7E0FC0
3E0F80
1F1F00
07FC00
00E000
000000
00E000
01F000
01F000
01F000
00E000
ENDCHAR
STARTCHAR uni1ECD
ENCODING 7885
SWIDTH 572 0
DWIDTH 17 0
BBX 16 22 1 -7
BITMAP
0FE0
1FF8
7C7C
7C7C
FC7E
FC7E
FC7E
FC7F
FC7E
FC7E
FC7E
FC7E
7C7C
3EF8
1FF0
0000
0000
0380
07C0
07C0
07C0
0380
ENDCHAR
STARTCHAR uni1ECE
ENCODING 7886
SWIDTH 700 0
DWIDTH 21 0
BBX 19 29 1 -1
BITMAP
010000
00E000
00F000
00F800
003800
00F000
004000
000000
03F800
0FFE00
1F1F00
3E0F80
7E0FC0
7C07C0
FC07E0
FC07E0
FC07E0
FC07E0
FC07E0
FC07E0
FC07E0
FC07E0
7C07C0
7C0FC0
7E0FC0
3E0F80
1F1F00
07FC00
00E000
ENDCHAR
STARTCHAR uni1ECF
ENCODING 7887
SWIDTH 572 0
DWIDTH 17 0
BBX 16 24 1 0
BITMAP
0300
03C0
03C0
03E0
00E0
01C0
0380
0000
0000
0FE0
1FF8
7C7C
7C7C
FC7E
FC7E
FC7E
FC7F
FC7E
FC7E
FC7E
FC7E
7C7C
3EF8
1FF0
ENDCHAR
STARTCHAR uni1ED0
ENCODING 7888
SWIDTH 700 0
DWIDTH 21 0
BBX 19 29 1 -1
BITMAP
0001E0
0001E0
01F3C0
03FB80
07FE00
07BC00
0E0E00
080200
03F800
0FFE00
1F1F00
3E0F80
7E0FC0
7C07C0
FC07E0
FC07E0
FC07E0
FC07E0
FC07E0
FC07E0
FC07E0
FC07E0
7C07C0
7C0FC0
7E0FC0
3E0F80
1F1F00
07FC00
00E000
ENDCHAR
STARTCHAR uni1ED1
ENCODING 7889
SWIDTH 572 0
DWIDTH 17 0
BBX 16 25 1 0
BITMAP
0002
0007
038F
07DF
0FEC
1FF0
1EF8
383C
2008
0000
0FE0
1FF8
7C7C
7C7C
FC7E
FC7E
FC7E
FC7F
FC7E
FC7E
FC7E
FC7E
7C7C
3EF8
1FF0
ENDCHAR
STARTCHAR uni1ED2
ENCODING 7890
SWIDTH 700 0
DWIDTH 21 0
BBX 19 29 1 -1
BITMAP
F00000
F00000
F9F000
3BF800
0FFC00
07BC00
0E0E00
080200
03F800
0FFE00
1F1F00
3E0F80
7E0FC0
7C07C0
FC07E0
FC07E0
FC07E0
FC07E0
FC07E0
FC07E0
FC07E0
FC07E0
7C07C0
7C0FC0
7E0FC0
3E0F80
1F1F00
07FC00
00E000
ENDCHAR
STARTCHAR uni1ED3
ENCODING 7891
SWIDTH 572 0
DWIDTH 17 0
BBX 17 25 0 0
BITMAP
400000
F00000
F1C000
7BE000
37F000
0FF800
0F7C00
1C1E00
100400
000000
07F000
0FFC00
3E3E00
3E3E00
7E3F00
7E3F00
7E3F00
7E3F80
7E3F00
7E3F00
7E3F00
7E3F00
3E3E00
1F7C00
0FF800
ENDCHAR
STARTCHAR uni1ED4
ENCODING 7892
SWIDTH 700 0
DWIDTH 21 0
BBX 19 31 1 -1
BITMAP
000700
0007C0
0007C0
0001C0
01F1C0
03FB80
07FC00
07BC00
0E0E00
080200
03F800
0FFE00
1F1F00
3E0F80
7E0FC0
7C07C0
FC07E0
FC07E0
FC07E0
FC07E0
FC07E0
FC07E0
FC07E0
FC07E0
7C07C0
7C0FC0
7E0FC0
3E0F80
1F1F00
07FC00
00E000
ENDCHAR
STARTCHAR uni1ED5
ENCODING 7893
SWIDTH 572 0
DWIDTH 17 0
BBX 17 27 1 0
BITMAP
000C00
000F00
000F00
000F80
038380
07C700
0FEF00
1FF000
1EF800
383C00
200800
000000
0FE000
1FF800
7C7C00
7C7C00
FC7E00
FC7E00
FC7E00
FC7F00
FC7E00
FC7E00
FC7E00
FC7E00
7C7C00
3EF800
1FF000
ENDCHAR
STARTCHAR uni1ED6
ENCODING 7894
SWIDTH 700 0
DWIDTH 21 0
BBX 19 31 1 -1
BITMAP
03C600
07FE00
0FFC00
0C3800
00E000
01F000
03F800
07FC00
0E0E00
080200
03F800
0FFE00
1F1F00
3E0F80
7E0FC0
7C07C0
FC07E0
FC07E0
FC07E0
FC07E0
FC07E0
FC07E0
FC07E0
FC07E0
7C07C0
7C0FC0
7E0FC0
3E0F80
1F1F00
07FC00
00E000
ENDCHAR
STARTCHAR uni1ED7
ENCODING 7895
SWIDTH 572 0
DWIDTH 17 0
BBX 16 26 1 0
BITMAP
0F98
1FF8
3FF0
30E0
0380
07C0
0FE0
1EF0
383C
2008
0000
0FE0
1FF8
7C7C
7C7C
FC7E
FC7E
FC7E
FC7F
FC7E
FC7E
FC7E
FC7E
7C7C
3EF8
1FF0
ENDCHAR
STARTCHAR uni1ED8
ENCODING 7896
SWIDTH 700 0
DWIDTH 21 0
BBX 19 33 1 -7
BITMAP
01F000
03F800
07FC00
07BC00
0E0E00
080200
03F800
0FFE00
1F1F00
3E0F80
7E0FC0
7C07C0
FC07E0
FC07E0
FC07E0
FC07E0
FC07E0
FC07E0
FC07E0
FC07E0
7C07C0
7C0FC0
7E0FC0
3E0F80
1F1F00
07FC00
00E000
000000
00E000
01F000
01F000
01F000
00E000
ENDCHAR
STARTCHAR uni1ED9
ENCODING 7897
SWIDTH 572 0
DWIDTH 17 0
BBX 16 30 1 -7
BITMAP
0380
07C0
07E0
0FE0
1C70
3838
1010
0000
0FE0
1FF8
7C7C
7C7C
FC7E
FC7E
FC7E
FC7F
FC7E
FC7E
FC7E
FC7E
7C7C
3EF8
1FF0
0000
0000
0380
07C0
07C0
07C0
0380
ENDCHAR
STARTCHAR uni1EDA
ENCODING 7898
SWIDTH 700 0
DWIDTH 21 0
BBX 19 27 1 -1
BITMAP
001C00
003E00
00FCE0
01F9E0
01C0E0
0000E0
03F8E0
0FFEC0
1F1F80
3E0F80
7E0FC0
7C07C0
FC07E0
FC07E0
FC07E0
FC07E0
FC07E0
FC07E0
FC07E0
FC07E0
7C07C0
7C0FC0
7E0FC0
3E0F80
1F1F00
07FC00
00E000
ENDCHAR
STARTCHAR uni1EDB
ENCODING 7899
SWIDTH 572 0
DWIDTH 17 0
BBX 16 24 1 0
BITMAP
0020
0070
00F8
00F0
01E0
03C7
030F
0007
0007
0FE7
1FFE
7C7C
7C7C
FC7E
FC7E
FC7E
FC7F
FC7E
FC7E
FC7E
FC7E
7C7C
3EF8
1FF0
ENDCHAR
STARTCHAR uni1EDC
ENCODING 7900
SWIDTH 700 0
DWIDTH 21 0
BBX 19 27 1 -1
BITMAP
078000
07C000
07E0E0
01F1E0
0078E0
0000E0
03F8E0
0FFEC0
1F1F80
3E0F80
7E0FC0
7C07C0
FC07E0
FC07E0
FC07E0
FC07E0
FC07E0
FC07E0
FC07E0
FC07E0
7C07C0
7C0FC0
7E0FC0
3E0F80
1F1F00
07FC00
00E000
ENDCHAR
STARTCHAR uni1EDD
ENCODING 7901
SWIDTH 572 0
DWIDTH 17 0
BBX 16 24 1 0
BITMAP
0800
1E00
1E00
1F00
0F80
0387
01CF
0007
0007
0FE7
1FFE
7C7C
7C7C
FC7E
FC7E
FC7E
FC7F
FC7E
FC7E
FC7E
FC7E
7C7C
3EF8
1FF0
ENDCHAR
STARTCHAR uni1EDE
ENCODING 7902
SWIDTH 700 0
DWIDTH 21 0
BBX 19 29 1 -1
BITMAP
010000
01E000
01F000
01F000
0030E0
00F1E0
00C0E0
0000E0
03F8E0
0FFEC0
1F1F80
3E0F80
7E0FC0
7C07C0
FC07E0
FC07E0
FC07E0
FC07E0
FC07E0
FC07E0
FC07E0
FC07E0
7C07C0
7C0FC0
7E0FC0
3E0F80
1F1F00
07FC00
00E000
ENDCHAR
STARTCHAR uni1EDF
ENCODING 7903
SWIDTH 572 0
DWIDTH 17 0
BBX 16 24 1 0
BITMAP
0300
03C0
03C0
03E0
00E0
01C7
038F
0007
0007
0FE7
1FFE
7C7C
7C7C
FC7E
FC7E
FC7E
FC7F
FC7E
FC7E
FC7E
FC7E
7C7C
3EF8
1FF0
ENDCHAR
STARTCHAR uni1EE0
ENCODING 7904
SWIDTH 700 0
DWIDTH 21 0
BBX 19 27 1 -1
BITMAP
018400
07EE00
07FEE0
0FFDE0
0C78E0
0000E0
03F8E0
0FFEC0
1F1F80
3E0F80
7E0FC0
7C07C0
FC07E0
FC07E0
FC07E0
FC07E0
FC07E0
FC07E0
FC07E0
FC07E0
7C07C0
7C0FC0
7E0FC0
3E0F80
1F1F00
07FC00
00E000
ENDCHAR
STARTCHAR uni1EE1
ENCODING 7905
SWIDTH 572 0
DWIDTH 17 0
BBX 16 22 1 0
BITMAP
0E18
1FF8
3FF0
3FF7
30EF
0007
0007
0FE7
1FFE
7C7C
7C7C
FC7E
FC7E
FC7E
FC7F
FC7E
FC7E
FC7E
FC7E
7C7C
3EF8
1FF0
ENDCHAR
STARTCHAR uni1EE2
ENCODING 7906
SWIDTH 700 0
DWIDTH 21 0
BBX 19 31 1 -7
BITMAP
0000E0
0001E0
0000E0
0000E0
03F8E0
0FFEC0
1F1F80
3E0F80
7E0FC0
7C07C0
FC07E0
FC07E0
FC07E0
FC07E0
FC07E0
FC07E0
FC07E0
FC07E0
7C07C0
7C0FC0
7E0FC0
3E0F80
1F1F00
07FC00
00E000
000000
00E000
01F000
01F000
01F000
00E000
ENDCHAR
STARTCHAR uni1EE3
ENCODING 7907
SWIDTH 572 0
DWIDTH 17 0
BBX 16 26 1 -7
BITMAP
0007
000F
0007
0007
0FE7
1FFE
7C7C
7C7C
FC7E
FC7E
FC7E
FC7F
FC7E
FC7E
FC7E
FC7E
7C7C
3EF8
1FF0
0000
0000
0380
07C0
07C0
07C0
0380
ENDCHAR
STARTCHAR uni1EE4
ENCODING 7908
SWIDTH 732 0
DWIDTH 22 0
BBX 20 27 1 -7
BITMAP
FFC7F0
FFC7F0
3F00C0
3F00C0
3F00C0
3F00C0
3F00C0
3F00C0
3F00C0
3F00C0
3F00C0
3F00C0
3F00C0
3F00C0
3F01C0
3F0180
3F8380
1FEF00
0FFF00
07FC00
006000
000000
00F000
00F800
01F800
00F800
00F000
ENDCHAR
STARTCHAR uni1EE5
ENCODING 7909
SWIDTH 617 0
DWIDTH 19 0
BBX 17 22 1 -7
BITMAP
1E0700
FE7F00
FE7F00
7E3F00
7E3F00
7E3F00
7E3F00
7E3F00
7E3F00
7E3F00
7E3F00
7E3F00
7FFF00
3FFF80
3F3F80
000000
000000
01E000
03E000
03F000
03E000
01E000
ENDCHAR
STARTCHAR uni1EE6
ENCODING 7910
SWIDTH 732 0
DWIDTH 22 0
BBX 20 29 1 -1
BITMAP
004000
003800
003C00
003E00
000E00
003C00
001000
000000
FFC7F0
FFC7F0
3F00C0
3F00C0
3F00C0
3F00C0
3F00C0
3F00C0
3F00C0
3F00C0
3F00C0
3F00C0
3F00C0
3F00C0
3F01C0
3F0180
3F8380
1FEF00
0FFF00
07FC00
006000
ENDCHAR
STARTCHAR uni1EE7
ENCODING 7911
SWIDTH 617 0
DWIDTH 19 0
BBX 17 24 1 0
BITMAP
018000
01E000
01E000
01F000
007000
00E000
01C000
000000
000000
1E0700
FE7F00
FE7F00
7E3F00
7E3F00
7E3F00
7E3F00
7E3F00
7E3F00
7E3F00
7E3F00
7E3F00
7FFF00
3FFF80
3F3F80
ENDCHAR
STARTCHAR uni1EE8
ENCODING 7912
SWIDTH 732 0
DWIDTH 22 0
BBX 22 27 1 -1
BITMAP
000780
000F98
001FBC
003E3C
00781C
00001C
FFC7F8
FFC7F0
3F00C0
3F00C0
3F00C0
3F00C0
3F00C0
3F00C0
3F00C0
3F00C0
3F00C0
3F00C0
3F00C0
3F00C0
3F01C0
3F0180
3F8380
1FEF00
0FFF00
07FC00
006000
ENDCHAR
STARTCHAR uni1EE9
ENCODING 7913
SWIDTH 617 0
DWIDTH 19 0
BBX 20 24 1 0
BITMAP
002000
007800
00F800
00F000
01F000
01C070
0380F0
0000F0
000070
1E0760
FE7FE0
FE7FC0
7E3F00
7E3F00
7E3F00
7E3F00
7E3F00
7E3F00
7E3F00
7E3F00
7E3F00
7FFF00
3FFF80
3F3F80
ENDCHAR
STARTCHAR uni1EEA
ENCODING 7914
SWIDTH 732 0
DWIDTH 22 0
BBX 22 27 1 -1
BITMAP
078000
07C018
07E03C
01F03C
00781C
00001C
FFC7F8
FFC7F0
3F00C0
3F00C0
3F00C0
3F00C0
3F00C0
3F00C0
3F00C0
3F00C0
3F00C0
3F00C0
3F00C0
3F00C0
3F01C0
3F0180
3F8380
1FEF00
0FFF00
07FC00
006000
ENDCHAR
STARTCHAR uni1EEB
ENCODING 7915
SWIDTH 617 0
DWIDTH 19 0
BBX 20 24 1 0
BITMAP
040000
1E0000
1F0000
0F0000
078000
038070
01C0F0
0000F0
000070
1E0760
FE7FE0
FE7FC0
7E3F00
7E3F00
7E3F00
7E3F00
7E3F00
7E3F00
7E3F00
7E3F00
7E3F00
7FFF00
3FFF80
3F3F80
ENDCHAR
STARTCHAR uni1EEC
ENCODING 7916
SWIDTH 732 0
DWIDTH 22 0
BBX 22 29 1 -1
BITMAP
002000
003C00
003E00
003E18
000E3C
001E3C
00181C
00001C
FFC7F8
FFC7F0
3F00C0
3F00C0
3F00C0
3F00C0
3F00C0
3F00C0
3F00C0
3F00C0
3F00C0
3F00C0
3F00C0
3F00C0
3F01C0
3F0180
3F8380
1FEF00
0FFF00
07FC00
006000
ENDCHAR
STARTCHAR uni1EED
ENCODING 7917
SWIDTH 617 0
DWIDTH 19 0
BBX 20 24 1 0
BITMAP
038000
03C000
03E000
03E000
00E000
01E070
01C0F0
0000F0
000070
1E0760
FE7FE0
FE7FC0
7E3F00
7E3F00
7E3F00
7E3F00
7E3F00
7E3F00
7E3F00
7E3F00
7E3F00
7FFF00
3FFF80
3F3F80
ENDCHAR
STARTCHAR uni1EEE
ENCODING 7918
SWIDTH 732 0
DWIDTH 22 0
BBX 22 27 1 -1
BITMAP
006100
01FB98
01FFBC
03FF3C
031E1C
00001C
FFC7F8
FFC7F0
3F00C0
3F00C0
3F00C0
3F00C0
3F00C0
3F00C0
3F00C0
3F00C0
3F00C0
3F00C0
3F00C0
3F00C0
3F01C0
3F0180
3F8380
1FEF00
0FFF00
07FC00
006000
ENDCHAR
STARTCHAR uni1EEF
ENCODING 7919
SWIDTH 617 0
DWIDTH 19 0
BBX 20 22 1 0
BITMAP
070C00
0FFC00
1FFC00
1FF870
1870F0
0000F0
000070
1E0760
FE7FE0
FE7FC0
7E3F00
7E3F00
7E3F00
7E3F00
7E3F00
7E3F00
7E3F00
7E3F00
7E3F00
7FFF00
3FFF80
3F3F80
ENDCHAR
STARTCHAR uni1EF0
ENCODING 7920
SWIDTH 732 0
DWIDTH 22 0
BBX 22 32 1 -7
BITMAP
000018
00003C
00003C
00001C
00001C
FFC7F8
FFC7F0
3F00C0
3F00C0
3F00C0
3F00C0
3F00C0
3F00C0
3F00C0
3F00C0
3F00C0
3F00C0
3F00C0
3F00C0
3F01C0
3F0180
3F8380
1FEF00
0FFF00
07FC00
006000
000000
00E000
01F000
01F000
01F000
00F000
ENDCHAR
STARTCHAR uni1EF1
ENCODING 7921
SWIDTH 617 0
DWIDTH 19 0
BBX 20 26 1 -7
BITMAP
000070
0000F0
0000F0
000070
1E0760
FE7FE0
FE7FC0
7E3F00
7E3F00
7E3F00
7E3F00
7E3F00
7E3F00
7E3F00
7E3F00
7E3F00
7FFF00
3FFF80
3F3F80
000000
000000
01C000
03E000
03E000
03E000
01C000
ENDCHAR
STARTCHAR Ygrave
ENCODING 7922
SWIDTH 621 0
DWIDTH 19 0
BBX 19 26 0 0
BITMAP
070000
07C000
07E000
03F000
007000
000000
FFC7E0
FFC7E0
3F0380
3F8300
1F8300
1FC600
0FC600
0FEC00
07EC00
07F800
03F800
03F000
03F000
03F000
03F000
03F000
03F000
03F000
0FFE00
0FFE00
ENDCHAR
STARTCHAR ygrave
ENCODING 7923
SWIDTH 543 0
DWIDTH 16 0
BBX 16 31 0 -7
BITMAP
0400
0F00
0F00
0F80
07C0
01C0
00E0
0000
0000
FF9F
FF9F
7E0C
3F0C
3F18
1F18
1F98
0FB0
0FB0
0FE0
07E0
07E0
03C0
03C0
01C0
0180
0180
3100
FB00
FE00
FE00
7800
ENDCHAR
STARTCHAR uni1EF4
ENCODING 7924
SWIDTH 621 0
DWIDTH 19 0
BBX 19 27 0 -7
BITMAP
FFC7E0
FFC7E0
3F0380
3F8300
1F8300
1FC600
0FC600
0FEC00
07EC00
07F800
03F800
03F000
03F000
03F000
03F000
03F000
03F000
03F000
0FFE00
0FFE00
000000
000000
00E000
01F000
01F000
01F000
00E000
ENDCHAR
STARTCHAR uni1EF5
ENCODING 7925
SWIDTH 543 0
DWIDTH 16 0
BBX 16 22 0 -7
BITMAP
FF9F
FF9F
7E0C
3F0C
3F18
1F18
1F98
0FB0
0FB0
0FE0
07E0
07E0
03C0
03C0
01C0
0180
0180
311E
FB3E
FE3F
FE3E
781E
ENDCHAR
STARTCHAR uni1EF6
ENCODING 7926
SWIDTH 621 0
DWIDTH 19 0
BBX 19 28 0 0
BITMAP
004000
007800
007C00
007C00
000C00
003C00
003000
000000
FFC7E0
FFC7E0
3F0380
3F8300
1F8300
1FC600
0FC600
0FEC00
07EC00
07F800
03F800
03F000
03F000
03F000
03F000
03F000
03F000
03F000
0FFE00
0FFE00
ENDCHAR
STARTCHAR uni1EF7
ENCODING 7927
SWIDTH 543 0
DWIDTH 16 0
BBX 16 31 0 -7
BITMAP
01C0
01E0
01F0
01F0
0070
00F0
00E0
0000
0000
FF9F
FF9F
7E0C
3F0C
3F18
1F18
1F98
0FB0
0FB0
0FE0
07E0
07E0
03C0
03C0
01C0
0180
0180
3100
FB00
FE00
FE00
7800
ENDCHAR
STARTCHAR uni1EF8
ENCODING 7928
SWIDTH 621 0
DWIDTH 19 0
BBX 19 26 0 0
BITMAP
00C200
03F700
03FF00
07FE00
063C00
000000
FFC7E0
FFC7E0
3F0380
3F8300
1F8300
1FC600
0FC600
0FEC00
07EC00
07F800
03F800
03F000
03F000
03F000
03F000
03F000
03F000
03F000
0FFE00
0FFE00
ENDCHAR
STARTCHAR uni1EF9
ENCODING 7929
SWIDTH 543 0
DWIDTH 16 0
BBX 16 29 0 -7
BITMAP
0784
0FFC
0FFC
0DF8
1870
0000
0000
FF9F
FF9F
7E0C
3F0C
3F18
1F18
1F98
0FB0
0FB0
0FE0
07E0
07E0
03C0
03C0
01C0
0180
0180
3100
FB00
FE00
FE00
7800
ENDCHAR
STARTCHAR uni2007
ENCODING 8199
SWIDTH 560 0
DWIDTH 17 0
BBX 1 1 0 0
BITMAP
00
ENDCHAR
STARTCHAR hyphen
ENCODING 8208
SWIDTH 350 0
DWIDTH 11 0
BBX 8 3 1 6
BITMAP
FF
FF
FF
ENDCHAR
STARTCHAR figuredash
ENCODING 8210
SWIDTH 560 0
DWIDTH 17 0
BBX 15 3 1 6
BITMAP
FFFE
FFFE
FFFE
ENDCHAR
STARTCHAR endash
ENCODING 8211
SWIDTH 550 0
DWIDTH 17 0
BBX 14 3 1 6
BITMAP
FFFC
FFFC
FFFC
ENDCHAR
STARTCHAR emdash
ENCODING 8212
SWIDTH 850 0
DWIDTH 26 0
BBX 23 3 1 6
BITMAP
FFFFFE
FFFFFE
FFFFFE
ENDCHAR
STARTCHAR uni2015
ENCODING 8213
SWIDTH 850 0
DWIDTH 26 0
BBX 23 3 1 6
BITMAP
FFFFFE
FFFFFE
FFFFFE
ENDCHAR
STARTCHAR quoteleft
ENCODING 8216
SWIDTH 218 0
DWIDTH 7 0
BBX 5 9 1 13
BITMAP
18
38
60
E0
E0
F8
F8
F8
F0
ENDCHAR
STARTCHAR quoteright
ENCODING 8217
SWIDTH 218 0
DWIDTH 7 0
BBX 5 9 1 13
BITMAP
70
F8
F8
F8
F8
38
30
60
C0
ENDCHAR
STARTCHAR quotesinglbase
ENCODING 8218
SWIDTH 218 0
DWIDTH 7 0
BBX 5 9 1 -4
BITMAP
70
F8
F8
F8
F8
38
30
60
C0
ENDCHAR
STARTCHAR quotedblleft
ENCODING 8220
SWIDTH 436 0
DWIDTH 13 0
BBX 12 9 1 13
BITMAP
1820
38E0
61C0
E180
E3C0
FBE0
FBE0
FBF0
F1E0
ENDCHAR
STARTCHAR quotedblright
ENCODING 8221
SWIDTH 436 0
DWIDTH 13 0
BBX 12 9 1 13
BITMAP
71C0
FBE0
FBE0
FBF0
F9E0
38E0
30E0
61C0
C380
ENDCHAR
STARTCHAR quotedblbase
ENCODING 8222
SWIDTH 436 0
DWIDTH 13 0
BBX 12 9 1 -4
BITMAP
71C0
FBE0
FBE0
FBF0
F9E0
38E0
30E0
61C0
C380
ENDCHAR
STARTCHAR dagger
ENCODING 8224
SWIDTH 540 0
DWIDTH 16 0
BBX 14 26 1 -4
BITMAP
0300
0780
07C0
07C0
0780
7BB8
FFFC
FFFC
FFFC
7338
0780
0780
0780
07C0
07C0
07C0
0780
0780
0780
0780
0780
0380
0300
0300
0300
0300
ENDCHAR
STARTCHAR daggerdbl
ENCODING 8225
SWIDTH 540 0
DWIDTH 16 0
BBX 14 25 1 -3
BITMAP
0300
0780
07C0
07C0
0780
7BB8
FFFC
FFFC
FFFC
73B8
0780
0780
07C0
07C0
0780
0780
7B3C
FFFC
FFFC
FF7C
77B8
0780
07C0
07C0
0780
ENDCHAR
STARTCHAR bullet
ENCODING 8226
SWIDTH 340 0
DWIDTH 10 0
BBX 8 9 1 5
BITMAP
3C
7E
FF
FF
FF
FF
FF
7E
18
ENDCHAR
STARTCHAR twodotenleader
ENCODING 8229
SWIDTH 600 0
DWIDTH 18 0
BBX 14 5 2 0
BITMAP
F87C
F87C
F87C
F87C
F87C
ENDCHAR
STARTCHAR ellipsis
ENCODING 8230
SWIDTH 900 0
DWIDTH 27 0
BBX 23 5 2 0
BITMAP
F87C3E
F87C3E
F87C3E
F87C3E
F87C3E
ENDCHAR
STARTCHAR perthousand
ENCODING 8240
SWIDTH 1231 0
DWIDTH 37 0
BBX 35 21 1 -1
BITMAP
0000200000
1E00700000
3380600000
7380C00000
73C1C00000
F3C1800000
F1C3000000
F1C7000000
F3C6780F00
73CCCE1980
739DCE39C0
3399C739C0
1E31C779E0
0071C779E0
0061C779E0
00C1C779E0
01C1C739E0
0181CE39C0
0300CE1980
0700780F00
0200000000
ENDCHAR
STARTCHAR uni2032
ENCODING 8242
SWIDTH 259 0
DWIDTH 8 0
BBX 6 11 1 11
BITMAP
38
78
7C
7C
78
78
70
70
F0
E0
E0
ENDCHAR
STARTCHAR uni2033
ENCODING 8243
SWIDTH 491 0
DWIDTH 15 0
BBX 13 11 1 11
BITMAP
3860
78F0
7CF8
7CF0
78F0
78F0
70E0
71E0
F1E0
E1C0
E1C0
ENDCHAR
STARTCHAR guilsinglleft
ENCODING 8249
SWIDTH 354 0
DWIDTH 11 0
BBX 8 13 1 1
BITMAP
03
07
1E
3C
78
F0
F0
F0
78
3C
0E
07
03
ENDCHAR
STARTCHAR guilsinglright
ENCODING 8250
SWIDTH 354 0
DWIDTH 11 0
BBX 9 13 1 1
BITMAP
E000
7000
3800
1E00
1F00
0F80
0780
0F80
1F00
1C00
3800
7000
E000
ENDCHAR
STARTCHAR exclamdbl
ENCODING 8252
SWIDTH 700 0
DWIDTH 21 0
BBX 17 20 2 0
BITMAP
380E00
7C1F00
FE3F80
FE3F80
FE3F80
FE3F80
7C1F00
7C1F00
7C1F00
380E00
380E00
380E00
000000
000000
380E00
7C1F00
FE3F00
FE3F80
7E3F00
7C1F00
ENDCHAR
STARTCHAR fraction
ENCODING 8260
SWIDTH 140 0
DWIDTH 4 0
BBX 15 21 -5 -1
BITMAP
0008
000E
001C
0018
0030
0070
0060
00C0
01C0
0180
0300
0700
0600
0C00
1C00
1800
3000
7000
6000
C000
C000
ENDCHAR
STARTCHAR uni2047
ENCODING 8263
SWIDTH 864 0
DWIDTH 26 0
BBX 22 20 2 0
BITMAP
780780
FE0FE0
FF0FF0
FF87F8
3FC3FC
00C00C
01C01C
1FC1FC
7FC3FC
7F87F8
7F03F0
380380
300300
000000
380380
7C07C0
FC0FE0
FE0FE0
FC07C0
7C07C0
ENDCHAR
STARTCHAR uni2048
ENCODING 8264
SWIDTH 792 0
DWIDTH 24 0
BBX 20 20 2 0
BITMAP
7801C0
FE07E0
FF07E0
FF87F0
3FC7E0
00C7E0
01C7E0
1FC3E0
7FC3C0
7F83C0
7F01C0
380180
300000
000000
380180
7C03E0
FC07E0
FE07E0
FC07E0
7C03E0
ENDCHAR
STARTCHAR uni2049
ENCODING 8265
SWIDTH 772 0
DWIDTH 23 0
BBX 20 20 2 0
BITMAP
383C00
7C3F00
FE7F80
FE3FC0
FE1FE0
FE0060
7C00F0
7C0FE0
7C1FE0
381FE0
381F80
381C00
001C00
000000
380C00
7C3E00
FE3F00
FE3F00
7E3F00
7C3E00
ENDCHAR
STARTCHAR zero.sups
ENCODING 8304
SWIDTH 374 0
DWIDTH 11 0
BBX 9 12 1 12
BITMAP
3E00
7700
7380
E380
E380
E380
E380
E380
E380
7380
7700
3E00
ENDCHAR
STARTCHAR i.sups
ENCODING 8305
SWIDTH 208 0
DWIDTH 6 0
BBX 6 15 0 12
BITMAP
10
78
38
10
00
18
F8
38
38
38
38
38
38
38
7C
ENDCHAR
STARTCHAR four.sups
ENCODING 8308
SWIDTH 374 0
DWIDTH 11 0
BBX 9 12 1 12
BITMAP
0700
0F00
1F00
1700
2700
6700
C700
FF80
FF80
0700
0700
0700
ENDCHAR
STARTCHAR five.sups
ENCODING 8309
SWIDTH 374 0
DWIDTH 11 0
BBX 9 12 1 12
BITMAP
7F80
7F80
7F80
6000
7800
7F00
0780
0780
C380
E780
E780
7E00
ENDCHAR
STARTCHAR six.sups
ENCODING 8310
SWIDTH 374 0
DWIDTH 11 0
BBX 10 12 1 12
BITMAP
0380
1E00
3800
7000
F000
FF80
F380
E3C0
F3C0
F380
7380
3F00
ENDCHAR
STARTCHAR seven.sups
ENCODING 8311
SWIDTH 374 0
DWIDTH 11 0
BBX 9 12 1 12
BITMAP
FF80
FF80
FF80
0100
0300
0700
0600
0E00
1C00
1C00
3800
7800
ENDCHAR
STARTCHAR eight.sups
ENCODING 8312
SWIDTH 374 0
DWIDTH 11 0
BBX 9 12 1 12
BITMAP
3F00
7380
E380
F380
7F00
7E00
3F00
7F80
E380
E380
E380
7F00
ENDCHAR
STARTCHAR nine.sups
ENCODING 8313
SWIDTH 374 0
DWIDTH 11 0
BBX 10 12 1 12
BITMAP
3E00
F700
E380
E380
E3C0
F380
7F80
0780
0700
0E00
1C00
7000
ENDCHAR
STARTCHAR parenleft.sups
ENCODING 8317
SWIDTH 292 0
DWIDTH 9 0
BBX 6 16 2 9
BITMAP
1C
38
70
60
E0
E0
E0
E0
E0
E0
E0
60
70
30
1C
08
ENDCHAR
STARTCHAR parenright.sups
ENCODING 8318
SWIDTH 292 0
DWIDTH 9 0
BBX 6 16 1 9
BITMAP
C0
60
30
38
18
1C
1C
1C
1C
1C
1C
38
30
70
E0
40
ENDCHAR
STARTCHAR n.sups
ENCODING 8319
SWIDTH 413 0
DWIDTH 12 0
BBX 12 10 0 12
BITMAP
1BC0
FFE0
38E0
38E0
38E0
38E0
38E0
38E0
38E0
7DF0
ENDCHAR
STARTCHAR zero.subs
ENCODING 8320
SWIDTH 374 0
DWIDTH 11 0
BBX 9 12 1 -6
BITMAP
3E00
7700
7380
E380
E380
E380
E380
E380
E380
7380
7700
3E00
ENDCHAR
STARTCHAR one.subs
ENCODING 8321
SWIDTH 374 0
DWIDTH 11 0
BBX 8 12 2 -6
BITMAP
1C
FC
3C
3C
3C
3C
3C
3C
3C
3C
7E
FF
ENDCHAR
STARTCHAR two.subs
ENCODING 8322
SWIDTH 374 0
DWIDTH 11 0
BBX 9 12 1 -6
BITMAP
3F00
6700
E780
E780
0780
0700
0E00
1C00
3000
7F80
FF80
FF80
ENDCHAR
STARTCHAR three.subs
ENCODING 8323
SWIDTH 374 0
DWIDTH 11 0
BBX 9 12 1 -6
BITMAP
3E00
6700
6780
4780
0700
1E00
0F00
0780
C780
E780
E780
7F00
ENDCHAR
STARTCHAR four.subs
ENCODING 8324
SWIDTH 374 0
DWIDTH 11 0
BBX 9 12 1 -6
BITMAP
0700
0F00
1F00
1700
2700
6700
C700
FF80
FF80
0700
0700
0700
ENDCHAR
STARTCHAR five.subs
ENCODING 8325
SWIDTH 374 0
DWIDTH 11 0
BBX 9 12 1 -6
BITMAP
7F80
7F80
7F80
6000
7800
7F00
0780
0780
C380
E780
E780
7E00
ENDCHAR
STARTCHAR six.subs
ENCODING 8326
SWIDTH 374 0
DWIDTH 11 0
BBX 10 12 1 -6
BITMAP
0380
1E00
3800
7000
F000
FF80
F380
E3C0
F3C0
F380
7380
3F00
ENDCHAR
STARTCHAR seven.subs
ENCODING 8327
SWIDTH 374 0
DWIDTH 11 0
BBX 9 12 1 -6
BITMAP
FF80
FF80
FF80
0100
0300
0700
0600
0E00
1C00
1C00
3800
7800
ENDCHAR
STARTCHAR eight.subs
ENCODING 8328
SWIDTH 374 0
DWIDTH 11 0
BBX 9 12 1 -6
BITMAP
3F00
7380
E380
F380
7F00
7E00
3F00
7F80
E380
E380
E380
7F00
ENDCHAR
STARTCHAR nine.subs
ENCODING 8329
SWIDTH 374 0
DWIDTH 11 0
BBX 10 12 1 -6
BITMAP
3E00
F700
E380
E380
E3C0
F380
7F80
0780
0700
0E00
1C00
7000
ENDCHAR
STARTCHAR parenleft.subs
ENCODING 8333
SWIDTH 292 0
DWIDTH 9 0
BBX 6 16 2 -9
BITMAP
1C
38
70
60
E0
E0
E0
E0
E0
E0
E0
60
70
30
1C
08
ENDCHAR
STARTCHAR parenright.subs
ENCODING 8334
SWIDTH 292 0
DWIDTH 9 0
BBX 6 16 1 -9
BITMAP
C0
60
30
38
18
1C
1C
1C
1C
1C
1C
38
30
70
E0
40
ENDCHAR
STARTCHAR colonmonetary
ENCODING 8353
SWIDTH 560 0
DWIDTH 17 0
BBX 17 25 0 -3
BITMAP
00D800
00D800
00D800
03FC00
0FFE00
1F9700
3E9780
3DB700
7DB000
7DB000
79B000
79B000
F92000
F92000
792000
7B6000
7F6000
7F6E00
3F6E00
3F7E00
1FDE00
07F800
024000
02C000
06C000
ENDCHAR
STARTCHAR lira
ENCODING 8356
SWIDTH 560 0
DWIDTH 17 0
BBX 14 19 1 0
BITMAP
07F0
1FB8
3E3C
3C3C
7C3C
7C1C
3C00
7FF0
7FF0
1E00
1E00
7FF0
7FF0
1C00
3800
7FFC
FFFC
FFFC
FFFC
ENDCHAR
STARTCHAR uni20A6
ENCODING 8358
SWIDTH 560 0
DWIDTH 17 0
BBX 17 19 0 0
BITMAP
FF3F80
FFBF80
1F8C00
1F8C00
17CC00
17CC00
17CC00
FFFF80
FFFF80
13EC00
FFFF80
FFFF80
19FC00
19FC00
19FC00
18FC00
18FC00
FEFC00
FEFC00
ENDCHAR
STARTCHAR peseta
ENCODING 8359
SWIDTH 560 0
DWIDTH 17 0
BBX 17 19 0 0
BITMAP
FFE000
FFF800
3F3C00
3F3E00
3F3E00
FFFF80
FFFF80
3F3E00
3F3E00
3F3E00
3FFC00
3FF000
3F0000
3F0000
3F0000
3F0000
3F0000
FFE000
FFE000
ENDCHAR
STARTCHAR uni20A9
ENCODING 8361
SWIDTH 560 0
DWIDTH 17 0
BBX 17 19 0 0
BITMAP
FE0F80
FE0F80
7C0200
3CE600
3CE600
3CE600
3DF600
FFFF00
FFFF00
3DF400
3DFC00
1F7C00
1F7C00
1F7800
1E7800
1E7800
1E7800
1E3800
0C3800
ENDCHAR
STARTCHAR dong
ENCODING 8363
SWIDTH 560 0
DWIDTH 17 0
BBX 15 20 1 0
BITMAP
0038
01F8
0078
1FFE
1FFE
0078
1F78
3FF8
7EF8
7CF8
7CF8
FCF8
FCF8
7CF8
7EF8
7FFC
3F7C
0C00
FFFC
FFFC
ENDCHAR
STARTCHAR Euro
ENCODING 8364
SWIDTH 560 0
DWIDTH 17 0
BBX 16 19 0 0
BITMAP
01FC
07EE
0F8F
1F0F
1F0F
1E02
FFF8
FFF8
3E00
3E00
3E00
FFF8
3E00
3E00
1F07
1F0F
0F8F
07CF
03FE
ENDCHAR
STARTCHAR uni20AE
ENCODING 8366
SWIDTH 560 0
DWIDTH 17 0
BBX 16 19 0 0
BITMAP
FFFF
FFFF
E7E7
E3E3
E3E3
E3E3
03E4
03FC
03F8
07E0
1FE4
13FC
03F8
07E0
1FE0
1BE0
03E0
1FFC
1FFC
ENDCHAR
STARTCHAR uni20B1
ENCODING 8369
SWIDTH 560 0
DWIDTH 17 0
BBX 17 19 0 0
BITMAP
FFE000
FFF800
3F3C00
3F1E00
FFFF80
3F1F00
3F1F00
FFFF80
FFFF80
3F3E00
3FFC00
3FF000
3F0000
3F0000
3F0000
3F0000
3F0000
FFE000
FFE000
ENDCHAR
STARTCHAR uni20B2
ENCODING 8370
SWIDTH 560 0
DWIDTH 17 0
BBX 16 25 1 -3
BITMAP
00C0
00C0
00C0
07F8
1FFC
3E1C
7C1C
7C1C
F80C
F800
F800
F800
F9FF
F9FF
F87C
F87C
F87C
787C
7C7C
3C7C
1F7C
0FF8
00C0
00C0
00C0
ENDCHAR
STARTCHAR uni20B4
ENCODING 8372
SWIDTH 560 0
DWIDTH 17 0
BBX 15 19 1 0
BITMAP
0FF0
3DF8
7CFC
7C7C
787C
007C
00FC
FFFE
03F0
07E0
0FC0
FFFE
FFFE
7E00
7C3C
7C3C
7E3C
3F78
1FF0
ENDCHAR
STARTCHAR uni20B5
ENCODING 8373
SWIDTH 560 0
DWIDTH 17 0
BBX 14 25 2 -3
BITMAP
0180
0180
0180
07F0
1FF8
3DB8
79BC
79B8
F980
F980
F980
F980
F980
F980
F980
F980
F980
F998
79BC
7DBC
3FB8
0FF0
0180
0180
0180
ENDCHAR
STARTCHAR uni20B8
ENCODING 8376
SWIDTH 560 0
DWIDTH 17 0
BBX 16 19 0 0
BITMAP
FFFF
FFFF
0000
FFFF
FFFF
F3E7
E3E7
E3E3
E3E3
03E0
03E0
03E0
03E0
03E0
03E0
03E0
03E0
1FFC
1FFC
ENDCHAR
STARTCHAR uni20B9
ENCODING 8377
SWIDTH 560 0
DWIDTH 17 0
BBX 12 19 2 0
BITMAP
FFF0
FFF0
1F80
07C0
FFF0
FFF0
07C0
07C0
0F80
1F00
FE00
3F80
0F80
0FC0
0FC0
07C0
07C0
07F0
03F0
ENDCHAR
STARTCHAR uni20BA
ENCODING 8378
SWIDTH 560 0
DWIDTH 17 0
BBX 16 19 1 0
BITMAP
FFC0
FFC0
3F00
3F00
3F60
3FE0
3F80
3F00
7F20
FFE0
BFC4
3F0F
3F0F
FF0E
FF0E
BF0E
3F1C
3F78
3FF0
ENDCHAR
STARTCHAR uni20BD
ENCODING 8381
SWIDTH 560 0
DWIDTH 17 0
BBX 17 19 0 0
BITMAP
7FF000
7FFC00
1FBF00
1F1F00
1F0F80
1F0F80
1F0F80
1F1F00
1F1F00
1F3E00
FFFC00
1F0000
1F0000
FFF800
FFF800
1F0000
1F0000
7FE000
7FE000
ENDCHAR
STARTCHAR uni20BF
ENCODING 8383
SWIDTH 560 0
DWIDTH 17 0
BBX 15 25 1 -3
BITMAP
0CC0
0CC0
0CC0
FFE0
FFF8
7EFC
7E7C
7E7C
3E7C
3E7C
3E78
3FE0
3FF0
3E7C
3E7E
3E3E
3E3E
7E3E
7E7E
7E7C
FFF8
FFE0
0CC0
0CC0
0CC0
ENDCHAR
STARTCHAR uni2113
ENCODING 8467
SWIDTH 577 0
DWIDTH 17 0
BBX 15 22 2 0
BITMAP
07C0
1FE0
3EF0
3C78
7C78
7C78
FC78
F878
F870
F8F0
F8F0
F8E0
F9C0
F9C0
FF80
FF00
7E00
7E00
7E04
7F8E
DFFC
87F0
ENDCHAR
STARTCHAR uni2116
ENCODING 8470
SWIDTH 1044 0
DWIDTH 31 0
BBX 30 21 0 -1
BITMAP
00003000
3F807800
3FC0F800
0FC0F800
07E0F000
07E18080
07F183F0
07F98738
05F98E3C
04FD8E1C
04FD8E1C
047F8E1C
047F8E3C
043F8738
043F83F0
041F8080
340F8000
7C0F8FFC
FC078FFC
78078FFC
70000000
ENDCHAR
STARTCHAR uni2117
ENCODING 8471
SWIDTH 740 0
DWIDTH 22 0
BBX 20 21 1 -1
BITMAP
03FC00
0FFF00
1C0380
3801C0
77F8E0
67FE60
E1CF30
C1C730
C1C730
C1CF30
C1DE30
C1F830
C1C030
C1C030
61C070
67F060
3000C0
1C01C0
0F0700
07FE00
00E000
ENDCHAR
STARTCHAR uni2120
ENCODING 8480
SWIDTH 727 0
DWIDTH 22 0
BBX 20 10 1 10
BITMAP
3CF1F0
66F1E0
E679E0
F87BE0
7C7FE0
3E5FE0
0E5DE0
CE5DE0
CFEDF0
380000
ENDCHAR
STARTCHAR trademark
ENCODING 8482
SWIDTH 803 0
DWIDTH 24 0
BBX 21 9 2 11
BITMAP
FF78F8
BD78F0
BD3CF0
3C3DF0
3C3FF0
3C2FF0
3C2EF0
3C2EF0
7EF5F8
ENDCHAR
STARTCHAR Omega
ENCODING 8486
SWIDTH 744 0
DWIDTH 22 0
BBX 22 20 0 0
BITMAP
01FE00
07FF80
0F87E0
1F03F0
3F01F0
3E01F8
7E01F8
7E01F8
7E01F8
7E01F8
3E01F8
3F01F0
1F03F0
1F03E0
EF87CC
E3CF1C
FFCFFC
FFCFFC
7FC7FC
7FC7FC
ENDCHAR
STARTCHAR estimated
ENCODING 8494
SWIDTH 800 0
DWIDTH 24 0
BBX 22 20 1 0
BITMAP
00FC00
030300
0C00C0
180060
300030
300030
700038
700038
700038
F0003C
FFFFFC
F00000
700000
700000
700000
300000
100020
080040
060180
01FE00
ENDCHAR
STARTCHAR onethird
ENCODING 8531
SWIDTH 880 0
DWIDTH 26 0
BBX 24 21 1 -1
BITMAP
000020
1C0070
FC0060
3C00C0
3C01C0
3C0180
3C0300
3C0700
3C067C
3C0CCE
3C1DCF
3E188F
FF300E
00703C
00601E
00C00F
01C18F
0181CF
0301CF
0700FC
020000
ENDCHAR
STARTCHAR twothirds
ENCODING 8532
SWIDTH 880 0
DWIDTH 26 0
BBX 25 21 1 -1
BITMAP
00002000
3F003000
67807000
E7806000
E780C000
0781C000
07018000
0E030000
1C077E00
3006EF00
7F8CE700
FF9C4700
FF980F00
00303C00
00700F00
00600700
00C1C780
01C1C780
0180CF00
03007E00
03000000
ENDCHAR
STARTCHAR oneeighth
ENCODING 8539
SWIDTH 880 0
DWIDTH 26 0
BBX 24 21 1 -1
BITMAP
000020
1C0070
FC0060
3C00C0
3C01C0
3C0180
3C0300
3C0700
3C067C
3C0DCE
3C1DC6
3E19CE
FF31FC
0070FC
00607E
00C1DE
01C1CF
03818F
0301CE
0700FC
020000
ENDCHAR
STARTCHAR threeeighths
ENCODING 8540
SWIDTH 880 0
DWIDTH 26 0
BBX 24 21 1 -1
BITMAP
000020
3F0070
778060
7380E0
2381C0
078180
1E0380
078700
03867E
63CCC7
E3DDC7
6799E7
3F31FE
0070FC
00607E
00C0DF
01C1C7
0181C7
0301C7
0700FE
020000
ENDCHAR
STARTCHAR fiveeighths
ENCODING 8541
SWIDTH 880 0
DWIDTH 26 0
BBX 24 21 1 -1
BITMAP
000020
3F8070
3F8060
3F80E0
2001C0
6C0180
7F8380
078700
03C67E
63CCC7
E3DDC7
6799E7
3F31FE
0070FC
00607E
00C0DF
01C1C7
0181C7
0301C7
0700FE
020000
ENDCHAR
STARTCHAR seveneighths
ENCODING 8542
SWIDTH 880 0
DWIDTH 26 0
BBX 21 21 3 -1
BITMAP
000100
FF8380
FF8300
FF0600
030E00
060C00
061800
0E3800
1C33F0
1C6738
38E738
78C738
7187F0
0387F0
0301F8
060778
0E0638
0C0E38
180738
3807F0
100000
ENDCHAR
STARTCHAR uni2190
ENCODING 8592
SWIDTH 660 0
DWIDTH 20 0
BBX 20 19 0 -1
BITMAP
006000
00E000
01C000
038000
070000
1E0000
3C0000
780000
FFFFF0
FFFFF0
F7FFF0
780000
3C0000
0E0000
070000
038000
01C000
00E000
006000
ENDCHAR
STARTCHAR arrowup
ENCODING 8593
SWIDTH 660 0
DWIDTH 20 0
BBX 20 19 0 -1
BITMAP
00F000
01F800
03F800
07FC00
077E00
0E6700
1C6380
3861C0
7060E0
E0E070
40E020
00E000
00F000
00F000
00F000
00F000
00F000
00F000
00F000
ENDCHAR
STARTCHAR uni2192
ENCODING 8594
SWIDTH 660 0
DWIDTH 20 0
BBX 20 19 0 -1
BITMAP
006000
007000
003800
001C00
000E00
000700
0003C0
0001E0
FFFFF0
FFFFF0
FFFFF0
0003E0
000380
000700
000E00
001C00
003800
007000
006000
ENDCHAR
STARTCHAR arrowdown
ENCODING 8595
SWIDTH 660 0
DWIDTH 20 0
BBX 20 19 0 -1
BITMAP
00F000
00F000
00F000
00F000
00F000
00F000
00F000
00E000
40E020
E0E070
7060E0
3861C0
1C6380
0E6F00
077E00
03FC00
03F800
01F000
00F000
ENDCHAR
STARTCHAR uni2196
ENCODING 8598
SWIDTH 660 0
DWIDTH 20 0
BBX 16 16 2 0
BITMAP
7FF0
FFFE
FFF8
F800
EE00
6F00
6780
63C0
61E0
60F8
607C
607E
603F
601E
000C
0004
ENDCHAR
STARTCHAR uni2197
ENCODING 8599
SWIDTH 660 0
DWIDTH 20 0
BBX 16 16 2 0
BITMAP
0FFE
7FFF
1FFE
003E
007E
00E6
01E6
03C6
0F86
1F06
3E06
7C06
F806
F006
6000
2000
ENDCHAR
STARTCHAR uni2198
ENCODING 8600
SWIDTH 660 0
DWIDTH 20 0
BBX 16 16 2 1
BITMAP
2000
7006
F806
FC06
7C06
3E06
1F06
0786
03C6
01E6
00E6
007E
003E
7FFE
7FFF
07FC
ENDCHAR
STARTCHAR uni2199
ENCODING 8601
SWIDTH 660 0
DWIDTH 20 0
BBX 16 16 2 1
BITMAP
0004
600E
601F
603E
607C
6078
60F0
61E0
63C0
6780
6F00
FE00
F800
FFFE
FFFE
7FE0
ENDCHAR
STARTCHAR partialdiff
ENCODING 8706
SWIDTH 576 0
DWIDTH 17 0
BBX 15 19 1 0
BITMAP
0FE0
1FF8
10FC
007E
003E
003E
003E
0FFE
3F3E
7E3E
7C3E
FC3E
F83E
F87C
F87C
F878
78F0
7DE0
3FC0
ENDCHAR
STARTCHAR Delta
ENCODING 8710
SWIDTH 626 0
DWIDTH 19 0
BBX 17 20 1 0
BITMAP
01E000
01E000
03E000
03F000
07F000
07F800
05F800
0CF800
0CFC00
18FC00
187E00
107E00
307E00
303F00
603F00
603F80
601F80
FFFF80
FFFF80
FFFF80
ENDCHAR
STARTCHAR product
ENCODING 8719
SWIDTH 752 0
DWIDTH 23 0
BBX 21 24 1 -4
BITMAP
FFFFF8
FFFFF8
3F07E0
3F07E0
3F07E0
3F07E0
3F07E0
3F07E0
3F07E0
3F07E0
3F07E0
3F07E0
3F07E0
3F07E0
3F07E0
3F07E0
3F07E0
3F07E0
3F07E0
3F07E0
3F07E0
3F07E0
FFDFF8
FFDFF8
ENDCHAR
STARTCHAR summation
ENCODING 8721
SWIDTH 581 0
DWIDTH 17 0
BBX 16 24 1 -4
BITMAP
FFFE
FFFE
FC0E
7E0E
7F06
3F07
3F80
1F80
1FC0
0FC0
0FE0
07C0
0380
0700
0E00
1E00
1C07
3807
7007
F007
FFFF
FFFF
FFFF
FFFF
ENDCHAR
STARTCHAR minus
ENCODING 8722
SWIDTH 550 0
DWIDTH 17 0
BBX 15 3 1 8
BITMAP
FFFE
FFFE
FFFE
ENDCHAR
STARTCHAR uni2215
ENCODING 8725
SWIDTH 140 0
DWIDTH 4 0
BBX 15 21 -5 -1
BITMAP
0008
000E
001C
0018
0030
0070
0060
00C0
01C0
0180
0300
0700
0600
0C00
1C00
1800
3000
7000
6000
C000
C000
ENDCHAR
STARTCHAR uni2219
ENCODING 8729
SWIDTH 300 0
DWIDTH 9 0
BBX 5 5 2 7
BITMAP
F8
F8
F8
F8
F8
ENDCHAR
STARTCHAR radical
ENCODING 8730
SWIDTH 580 0
DWIDTH 17 0
BBX 17 26 1 -3
BITMAP
000780
000780
000700
000700
000F00
000F00
000E00
000E00
000E00
001E00
001C00
001C00
FE1C00
FE1C00
FE3800
0E3800
0F3800
0F3800
073000
07F000
07F000
03F000
03E000
03E000
01E000
01E000
ENDCHAR
STARTCHAR infinity
ENCODING 8734
SWIDTH 790 0
DWIDTH 24 0
BBX 22 13 1 3
BITMAP
0F01E0
3FC3F0
7FE7F8
7FFF78
F7FC1C
C1F80C
C0FC0C
C0FE1C
C0FFFC
FFBFF8
7F9FF8
3F0FF0
0C0180
ENDCHAR
STARTCHAR integral
ENCODING 8747
SWIDTH 383 0
DWIDTH 11 0
BBX 17 30 -3 -7
BITMAP
001E00
007F80
00EF80
00E780
01E100
01E000
03E000
03E000
03E000
03E000
03E000
03E000
03E000
03E000
03E000
03E000
03E000
01E000
01E000
01F000
01F000
01F000
01E000
01E000
01E000
01E000
71C000
FB8000
7F0000
3E0000
ENDCHAR
STARTCHAR approxequal
ENCODING 8776
SWIDTH 550 0
DWIDTH 17 0
BBX 14 14 1 3
BITMAP
0800
3E0C
7F0C
FFDC
E3FC
E1F8
2070
0800
3E0C
7F0C
FFDC
E3FC
E1F8
2070
ENDCHAR
STARTCHAR notequal
ENCODING 8800
SWIDTH 550 0
DWIDTH 17 0
BBX 15 18 1 1
BITMAP
0010
0018
0030
0070
0060
FFFE
FFFE
FFFE
0180
0300
0300
FFFE
FFFE
FFFE
1C00
1800
3000
3000
ENDCHAR
STARTCHAR lessequal
ENCODING 8804
SWIDTH 550 0
DWIDTH 17 0
BBX 15 17 1 0
BITMAP
0018
007C
03FC
0FE0
3F80
FE00
F800
FE00
3F80
0FF0
03FC
007C
0018
0000
FFFE
FFFE
FFFE
ENDCHAR
STARTCHAR greaterequal
ENCODING 8805
SWIDTH 550 0
DWIDTH 17 0
BBX 15 17 1 0
BITMAP
7000
7C00
FF00
1FC0
07F0
00FC
003C
00FC
07F0
1FC0
FF00
7C00
7000
0000
FFFE
FFFE
FFFE
ENDCHAR
STARTCHAR uni25A0
ENCODING 9632
SWIDTH 720 0
DWIDTH 22 0
BBX 18 18 2 0
BITMAP
FFFFC0
FFFFC0
FFFFC0
FFFFC0
FFFFC0
FFFFC0
FFFFC0
FFFFC0
FFFFC0
FFFFC0
FFFFC0
FFFFC0
FFFFC0
FFFFC0
FFFFC0
FFFFC0
FFFFC0
FFFFC0
ENDCHAR
STARTCHAR triagup
ENCODING 9650
SWIDTH 620 0
DWIDTH 19 0
BBX 18 16 0 0
BITMAP
00C000
00E000
01E000
01F000
03F800
07F800
07FC00
0FFC00
0FFE00
1FFF00
3FFF00
3FFF80
7FFF80
7FFFC0
FFFFC0
7FFFC0
ENDCHAR
STARTCHAR uni25B3
ENCODING 9651
SWIDTH 620 0
DWIDTH 19 0
BBX 18 16 0 0
BITMAP
00C000
00E000
01E000
01F000
03F800
07B800
073C00
0F1C00
0E0E00
1E0F00
3C0700
380780
780380
7FFFC0
FFFFC0
7FFFC0
ENDCHAR
STARTCHAR uni25B6
ENCODING 9654
SWIDTH 620 0
DWIDTH 19 0
BBX 16 18 2 -1
BITMAP
C000
F000
FC00
FF00
FF80
FFE0
FFF8
FFFE
FFFF
FFFF
FFFC
FFF8
FFE0
FF80
FE00
FC00
F000
C000
ENDCHAR
STARTCHAR uni25B7
ENCODING 9655
SWIDTH 620 0
DWIDTH 19 0
BBX 16 18 2 -1
BITMAP
C000
F000
FC00
FF00
FF80
E7E0
E1F8
E07E
E03F
E03F
E0FC
E1F8
E7E0
FF80
FE00
FC00
F000
C000
ENDCHAR
STARTCHAR triagdn
ENCODING 9660
SWIDTH 620 0
DWIDTH 19 0
BBX 18 16 0 0
BITMAP
7FFFC0
FFFFC0
7FFFC0
7FFF80
3FFF80
1FFF00
1FFE00
0FFE00
0FFC00
07FC00
07F800
03F800
01F000
01E000
00E000
00C000
ENDCHAR
STARTCHAR uni25BD
ENCODING 9661
SWIDTH 620 0
DWIDTH 19 0
BBX 18 16 0 0
BITMAP
7FFFC0
FFFFC0
7FFFC0
780380
3C0780
1C0F00
1E0E00
0E1E00
0F1C00
073C00
07B800
03F800
01F000
01E000
00E000
00C000
ENDCHAR
STARTCHAR uni25C0
ENCODING 9664
SWIDTH 620 0
DWIDTH 19 0
BBX 16 18 1 -1
BITMAP
0006
000F
003F
00FF
03FF
07FF
1FFF
7FFF
FFFF
FFFF
7FFF
1FFF
07FF
03FF
00FF
003F
000F
0006
ENDCHAR
STARTCHAR uni25C1
ENCODING 9665
SWIDTH 620 0
DWIDTH 19 0
BBX 16 18 1 -1
BITMAP
0006
000F
003F
00FF
03F7
07E7
1F87
7E07
F807
F807
7E07
1F87
07E7
03F7
00FF
003F
000F
0006
ENDCHAR
STARTCHAR uni25C6
ENCODING 9670
SWIDTH 748 0
DWIDTH 22 0
BBX 21 22 1 -2
BITMAP
002000
006000
00F000
01F800
03FC00
07FE00
0FFF00
1FFF80
3FFFC0
7FFFE0
FFFFF0
FFFFF8
7FFFE0
3FFFC0
1FFF80
0FFF00
07FE00
03FC00
01F800
00F000
006000
002000
ENDCHAR
STARTCHAR uni25C9
ENCODING 9673
SWIDTH 500 0
DWIDTH 15 0
BBX 13 13 1 3
BITMAP
1FC0
30E0
6030
CF98
DFD8
9FC8
9FC8
9FC8
DFD8
4F90
6030
38E0
0F80
ENDCHAR
STARTCHAR lozenge
ENCODING 9674
SWIDTH 620 0
DWIDTH 19 0
BBX 18 24 0 -2
BITMAP
00C000
00E000
01F000
03F000
07F800
07BC00
0F1C00
1E1E00
1E0F00
3C0780
780780
7803C0
F003C0
7803C0
3C0780
3C0F00
1E0E00
0F1E00
073C00
07B800
03F800
01F000
01E000
00E000
ENDCHAR
STARTCHAR uni2610
ENCODING 9744
SWIDTH 800 0
DWIDTH 24 0
BBX 20 20 2 -1
BITMAP
FFFFF0
FFFFF0
FFFFF0
E00070
E00070
E00070
E00070
E00070
E00070
E00070
E00070
E00070
E00070
E00070
E00070
E00070
E00070
FFFFF0
FFFFF0
FFFFF0
ENDCHAR
STARTCHAR uni2611
ENCODING 9745
SWIDTH 800 0
DWIDTH 24 0
BBX 20 29 2 -1
BITMAP
000040
000070
000070
0000F0
0000E0
0001E0
0001C0
0003C0
000380
FFFFF0
FFFFF0
FFFFF0
E00F70
E60E70
FF0E70
EF1E70
EF9C70
E79C70
E3DC70
E3F870
E1F870
E1F870
E0F070
E0F070
E07070
E00070
FFFFF0
FFFFF0
FFFFF0
ENDCHAR
STARTCHAR musicalnote
ENCODING 9834
SWIDTH 570 0
DWIDTH 17 0
BBX 16 22 1 0
BITMAP
0180
01C0
01C0
01E0
01F0
01F8
01FC
01FE
01BE
019F
018F
0187
0186
0186
0186
0180
7F80
FF80
FF80
FF80
FF00
7E00
ENDCHAR
STARTCHAR uni2713
ENCODING 10003
SWIDTH 660 0
DWIDTH 20 0
BBX 17 25 2 0
BITMAP
000200
000300
000780
000700
000E00
000E00
001E00
001C00
003C00
003800
007800
007000
007000
20F000
70E000
F8E000
78E000
7DC000
3DC000
1FC000
1F8000
0F8000
0F8000
078000
070000
ENDCHAR
STARTCHAR uni2752
ENCODING 10066
SWIDTH 1000 0
DWIDTH 30 0
BBX 28 26 1 -3
BITMAP
07FFFFF0
1FFFFFF0
3FFFFFF0
7FFFFFF0
FFFFFFF0
F00003F0
F00003F0
F00003F0
F00003F0
F00003F0
F00003F0
F00003F0
F00003F0
F00003F0
F00003F0
F00003F0
F00003F0
F00003F0
F00003F0
F00003F0
F00003F0
F00003E0
F00003C0
FFFFFFC0
FFFFFF80
FFFFFF00
ENDCHAR
STARTCHAR uni2E3A
ENCODING 11834
SWIDTH 1620 0
DWIDTH 49 0
BBX 46 3 1 6
BITMAP
FFFFFFFFFFFC
FFFFFFFFFFFC
FFFFFFFFFFFC
ENDCHAR
STARTCHAR uni2E3B
ENCODING 11835
SWIDTH 2390 0
DWIDTH 72 0
BBX 70 3 1 6
BITMAP
FFFFFFFFFFFFFFFFFC
FFFFFFFFFFFFFFFFFC
FFFFFFFFFFFFFFFFFC
ENDCHAR
STARTCHAR f_f
ENCODING 64256
SWIDTH 685 0
DWIDTH 21 0
BBX 23 22 1 0
BITMAP
01E0F8
07FBFC
0FFFBE
1E7FBE
3E0F8C
3E1F00
7E1F00
7FFFE0
FFFFE0
FFFFE0
7E1F80
7E1F80
7E1F80
7E1F80
7E1F80
7E1F80
7E1F80
7E1F80
7E1F80
7E1F80
FFFFE0
FFFFE0
ENDCHAR
STARTCHAR f_i
ENCODING 64257
SWIDTH 634 0
DWIDTH 19 0
BBX 18 22 1 0
BITMAP
00FC00
07FE00
0FBE00
1F1E00
3E0C00
3E0000
7E0000
7FFF00
FFFF00
FFFF00
7E3F00
7E3F00
7E3F00
7E1F00
7E1F00
7E1F00
7E1F00
7E1F00
7E3F00
7E3F00
FF7FC0
FF7FC0
ENDCHAR
STARTCHAR f_l
ENCODING 64258
SWIDTH 648 0
DWIDTH 19 0
BBX 18 22 1 0
BITMAP
01E100
07FF80
0FFF80
1E7F80
3E1F80
3E1F80
7E1F80
7FDF80
FFDF80
FFDF80
7E1F80
7E1F80
7E1F80
7E1F80
7E1F80
7E1F80
7E1F80
7E1F80
7E1F80
7E1F80
FFBFC0
FFBFC0
ENDCHAR
STARTCHAR f_f_i
ENCODING 64259
SWIDTH 954 0
DWIDTH 29 0
BBX 27 22 1 0
BITMAP
01E07E00
07F9FF00
0FFBCF80
1E7FCF80
3E0F8300
3E1F8000
7E1F8000
7FFFFFC0
FFFFFFC0
FFFFFFC0
7E1F8FC0
7E1F8FC0
7E1F8FC0
7E1F8FC0
7E1F8FC0
7E1F8FC0
7E1F8FC0
7E1F8FC0
7E1F8FC0
7E1F8FC0
FFFFDFE0
FFFFDFE0
ENDCHAR
STARTCHAR f_f_l
ENCODING 64260
SWIDTH 968 0
DWIDTH 29 0
BBX 27 22 1 0
BITMAP
01E0F840
07FBFFC0
0FFFBFC0
1E7FBFC0
3E0F8FC0
3E1F0FC0
7E1F0FC0
7FFFEFC0
FFFFEFC0
FFFFEFC0
7E1F8FC0
7E1F8FC0
7E1F8FC0
7E1F8FC0
7E1F8FC0
7E1F8FC0
7E1F8FC0
7E1F8FC0
7E1F8FC0
7E1F8FC0
FFFFDFE0
FFFFDFE0
ENDCHAR
STARTCHAR u1F12F
ENCODING 127279
SWIDTH 740 0
DWIDTH 22 0
BBX 20 21 1 -1
BITMAP
03FC00
0FFF00
1C0380
3801C0
73F0E0
637C60
E31E30
C21E30
C00F30
C00F30
C00F30
C00F30
C00E30
C21E30
633C70
63F860
3000C0
1C01C0
0F0700
07FE00
00E000
ENDCHAR
STARTCHAR u1F16A
ENCODING 127338
SWIDTH 803 0
DWIDTH 24 0
BBX 22 10 0 10
BITMAP
78F878
78F1CC
3CF38C
3DF780
3FF780
2FF780
2EF780
2EF38C
F6F9CC
000030
ENDCHAR
STARTCHAR u1F16B
ENCODING 127339
SWIDTH 803 0
DWIDTH 24 0
BBX 24 9 0 11
BITMAP
78FBF0
78F3FC
3CF3CE
3DF3CE
3FF3CF
2FF3CF
2EF3CE
2EF3CE
F6FBFC
ENDCHAR
STARTCHAR .notdef
ENCODING -1
SWIDTH 640 0
DWIDTH 19 0
BBX 15 20 2 0
BITMAP
FFFE
FFFE
FFFE
F83E
FC7E
FC7E
EEEE
E7EE
E7CE
E3CE
E38E
E7CE
E7CE
EEEE
EE7E
FC7E
F83E
F83E
FFFE
FFFE
ENDCHAR
STARTCHAR uni00470303
ENCODING -1
SWIDTH 672 0
DWIDTH 20 0
BBX 19 27 1 -1
BITMAP
018200
03E600
07FE00
07FE00
0C3C00
000000
03FE00
0FFF80
1F8780
3F0380
7E0380
7E0380
FC0000
FC0000
FC0000
FC0000
FC7FE0
FC7FE0
FC0F80
FC0F80
7E0F80
7E0F80
3E0F80
3F0F80
1FCF80
07FF00
006000
ENDCHAR
STARTCHAR uni00670303
ENCODING -1
SWIDTH 553 0
DWIDTH 17 0
BBX 16 29 0 -7
BITMAP
0F08
1FF8
1FF8
3BF0
10E0
0000
0000
0FE3
3EFF
7C7F
7C7C
7C7C
7C7C
7C7C
3E78
1FF0
3000
3000
7FF0
7FFE
7FFE
7FFF
3FFF
601F
E00F
F01E
787C
7FF8
0F80
ENDCHAR
STARTCHAR idieresis.narrow
ENCODING -1
SWIDTH 324 0
DWIDTH 10 0
BBX 9 22 1 0
BITMAP
6700
F700
FF80
FF00
E700
0000
0000
0E00
7E00
FE00
7E00
7E00
7E00
7E00
7E00
7E00
7E00
7E00
7E00
7E00
FF00
FF00
ENDCHAR
STARTCHAR i.trk
ENCODING -1
SWIDTH 324 0
DWIDTH 10 0
BBX 8 22 1 0
BITMAP
3C
7E
7E
7E
3C
00
00
0E
7E
FE
7E
7E
7E
7E
7E
7E
7E
7E
7E
7E
FF
FF
ENDCHAR
STARTCHAR f_t
ENCODING -1
SWIDTH 697 0
DWIDTH 21 0
BBX 20 22 1 0
BITMAP
01F000
07F800
1FF800
1E7F80
3E3780
3E0780
7E0F80
7FFFE0
FFFFE0
FFFFE0
7E1F80
7E1F80
7E1F80
7E1F80
7E1F80
7E1F80
7E1F80
7E1F80
7E1F80
7E1FD0
FF9FF0
FF8FE0
ENDCHAR
STARTCHAR zero.slash
ENCODING -1
SWIDTH 560 0
DWIDTH 17 0
BBX 17 19 0 0
BITMAP
07E100
0F7B80
1E3F00
3E3E00
3E3E00
7C3E00
7C3F00
7C7F00
7CDF00
7D9F00
7D9F00
7F1F00
7E3F00
7C3E00
3E3E00
3E3E00
7E3C00
CF7800
47F000
ENDCHAR
STARTCHAR zero.lf
ENCODING -1
SWIDTH 540 0
DWIDTH 16 0
BBX 14 19 1 0
BITMAP
0FC0
3FF0
7CF8
7C78
FC7C
F87C
F87C
F87C
F87C
F87C
F87C
F87C
F87C
F87C
F87C
7C78
7CF8
3CF0
1FE0
ENDCHAR
STARTCHAR one.lf
ENCODING -1
SWIDTH 372 0
DWIDTH 11 0
BBX 11 19 0 0
BITMAP
0380
7F80
7F80
9F80
1F80
1F80
1F80
1F80
1F80
1F80
1F80
1F80
1F80
1F80
1F80
1F80
1F80
FFE0
FFE0
ENDCHAR
STARTCHAR two.lf
ENCODING -1
SWIDTH 540 0
DWIDTH 16 0
BBX 14 19 1 0
BITMAP
1FE0
3BF8
79F8
F8FC
F0FC
F0FC
00FC
00F8
01F8
03F0
03E0
0780
0F00
1C00
3000
7FFC
FFFC
FFFC
FFFC
ENDCHAR
STARTCHAR three.lf
ENCODING -1
SWIDTH 540 0
DWIDTH 16 0
BBX 14 19 1 0
BITMAP
1FE0
3BF0
78F8
78FC
78FC
20FC
00F8
01F8
0FE0
0FE0
01F8
00FC
00FC
E0FC
F0FC
F0FC
F0FC
73F8
3FE0
ENDCHAR
STARTCHAR four.lf
ENCODING -1
SWIDTH 540 0
DWIDTH 16 0
BBX 15 19 1 0
BITMAP
00F0
01F0
03F0
03F0
07F0
0FF0
0DF0
19F0
39F0
31F0
61F0
E1F0
FFFE
FFFE
FFFE
FFFE
01F0
01F0
01F0
ENDCHAR
STARTCHAR five.lf
ENCODING -1
SWIDTH 540 0
DWIDTH 16 0
BBX 14 19 1 0
BITMAP
3FFC
3FFC
3FFC
3FFC
3000
3000
3000
3000
3FF0
7FF8
01FC
00FC
00FC
E0FC
F0FC
F0FC
F0FC
73F8
3FE0
ENDCHAR
STARTCHAR six.lf
ENCODING -1
SWIDTH 540 0
DWIDTH 16 0
BBX 16 19 0 0
BITMAP
003C
01FC
03F0
0FC0
1F80
3F00
3E00
7EF0
7FFC
7EFE
7C3E
FC3F
7C3F
7C3F
7C3F
7C3E
3E3E
1E7C
0FF0
ENDCHAR
STARTCHAR seven.lf
ENCODING -1
SWIDTH 540 0
DWIDTH 16 0
BBX 14 19 1 0
BITMAP
FFFC
FFFC
FFFC
FFFC
0018
0038
0078
0070
00F0
01E0
01E0
03C0
07C0
0780
0F80
0F80
1F00
3F00
3E00
ENDCHAR
STARTCHAR eight.lf
ENCODING -1
SWIDTH 540 0
DWIDTH 16 0
BBX 14 19 1 0
BITMAP
0FE0
3FF8
7878
787C
F87C
FC78
FE78
7FE0
7FE0
3FF0
0FF8
3FFC
79FC
F87C
F87C
F87C
F87C
7CF8
3FE0
ENDCHAR
STARTCHAR nine.lf
ENCODING -1
SWIDTH 540 0
DWIDTH 16 0
BBX 16 20 0 -1
BITMAP
0FF0
1FF8
3E7C
7C3E
7C3E
FC3E
FC3F
FC3F
7C3F
7E3F
3FFE
0FFE
007E
007C
00F8
01F0
07E0
1F80
3E00
2000
ENDCHAR
STARTCHAR zero.lfslash
ENCODING -1
SWIDTH 540 0
DWIDTH 16 0
BBX 16 19 0 0
BITMAP
07E1
1FFB
3E7E
3E3E
7E3E
7C3E
7C3E
7C7E
7CFE
7DBE
7F3E
7F3E
7E3E
7C3E
7E3E
3E3C
7E7C
DE78
4FF0
ENDCHAR
STARTCHAR zero.tosf
ENCODING -1
SWIDTH 560 0
DWIDTH 17 0
BBX 15 16 1 0
BITMAP
07C0
1FF0
3C78
7C7C
7C7C
FC7C
FC7E
FC7E
FC7E
FC7E
FC7E
FC7C
7C7C
7C78
3EF8
1FE0
ENDCHAR
STARTCHAR one.tosf
ENCODING -1
SWIDTH 560 0
DWIDTH 17 0
BBX 13 16 2 0
BITMAP
0180
3F80
FF80
FF80
1F80
1F80
1F80
1F80
1F80
1F80
1F80
1F80
1F80
1F80
FFF8
FFF8
ENDCHAR
STARTCHAR two.tosf
ENCODING -1
SWIDTH 560 0
DWIDTH 17 0
BBX 14 16 2 0
BITMAP
0FC0
3FF0
79F8
F9F8
F9F8
F1F8
21F0
01E0
03C0
0780
1E00
3800
7FFC
FFFC
FFFC
FFFC
ENDCHAR
STARTCHAR three.tosf
ENCODING -1
SWIDTH 560 0
DWIDTH 17 0
BBX 15 19 1 -3
BITMAP
0FE0
3FF8
3CFC
787C
787C
307C
00FC
00F8
07F0
07E0
01F8
00FC
007E
707E
F07E
F87E
78FC
79F8
3FF0
ENDCHAR
STARTCHAR four.tosf
ENCODING -1
SWIDTH 560 0
DWIDTH 17 0
BBX 15 19 1 -3
BITMAP
00F0
01F0
01F0
03F0
07F0
0FF0
0DF0
19F0
39F0
31F0
61F0
E1F0
FFFE
FFFE
FFFE
FFFE
01F0
01F0
01F0
ENDCHAR
STARTCHAR five.tosf
ENCODING -1
SWIDTH 560 0
DWIDTH 17 0
BBX 15 19 1 -3
BITMAP
3FFC
3FFC
3FFC
3FFC
3000
3000
3000
3000
3FF0
3FF8
01FC
00FC
007E
F07E
F07E
F0FC
F0FC
71F8
3FE0
ENDCHAR
STARTCHAR six.tosf
ENCODING -1
SWIDTH 560 0
DWIDTH 17 0
BBX 15 19 1 0
BITMAP
0078
01F8
07E0
1F80
3F00
3E00
7C00
FCE0
FFF8
FFFC
F87C
F87E
F87E
F87E
F87E
FC7C
7C7C
3CF8
1FE0
ENDCHAR
STARTCHAR seven.tosf
ENCODING -1
SWIDTH 560 0
DWIDTH 17 0
BBX 14 19 2 -3
BITMAP
FFFC
FFFC
FFFC
FFF8
0038
0078
0070
00F0
00E0
01E0
03C0
03C0
0780
0F80
0F80
1F00
3F00
3E00
7E00
ENDCHAR
STARTCHAR eight.tosf
ENCODING -1
SWIDTH 560 0
DWIDTH 17 0
BBX 15 19 1 0
BITMAP
0FF0
3EF8
787C
783C
783C
7C7C
7E78
7FF0
3FE0
3FF0
0FF8
3FFC
78FC
787E
F87E
F83C
787C
7C78
3FF0
ENDCHAR
STARTCHAR nine.tosf
ENCODING -1
SWIDTH 560 0
DWIDTH 17 0
BBX 15 20 1 -4
BITMAP
0FE0
3EF8
7C7C
7C7C
FC7E
FC7E
FC7E
FC7E
FC7E
7E7E
3FFE
1F7E
007C
00FC
00F8
01F0
07E0
1F80
3E00
2000
ENDCHAR
STARTCHAR zero.osf
ENCODING -1
SWIDTH 540 0
DWIDTH 16 0
BBX 14 16 1 0
BITMAP
0FC0
3FF0
7CF8
7C78
F87C
F87C
F87C
F87C
F87C
F87C
F87C
F87C
7C7C
7CF8
3CF0
1FE0
ENDCHAR
STARTCHAR one.osf
ENCODING -1
SWIDTH 394 0
DWIDTH 12 0
BBX 10 16 1 0
BITMAP
0300
3F00
FF00
FF00
3F00
3F00
3F00
3F00
3F00
3F00
3F00
3F00
3F00
3F00
FFC0
FFC0
ENDCHAR
STARTCHAR two.osf
ENCODING -1
SWIDTH 520 0
DWIDTH 16 0
BBX 14 16 1 0
BITMAP
0FC0
3FF0
79F8
F9F8
F9F8
F1F8
21F0
03E0
03C0
0780
1E00
3800
7FFC
FFFC
FFFC
FFFC
ENDCHAR
STARTCHAR three.osf
ENCODING -1
SWIDTH 540 0
DWIDTH 16 0
BBX 14 19 1 -3
BITMAP
1FE0
3BF0
78F8
78FC
78FC
20FC
00F8
01F8
0FE0
0FE0
01F8
00FC
00FC
E0FC
F0FC
F0FC
F0FC
73F8
3FE0
ENDCHAR
STARTCHAR four.osf
ENCODING -1
SWIDTH 540 0
DWIDTH 16 0
BBX 15 19 1 -3
BITMAP
00F0
01F0
03F0
03F0
07F0
0FF0
0DF0
19F0
39F0
31F0
61F0
E1F0
FFFE
FFFE
FFFE
FFFE
01F0
01F0
01F0
ENDCHAR
STARTCHAR five.osf
ENCODING -1
SWIDTH 540 0
DWIDTH 16 0
BBX 14 19 1 -3
BITMAP
3FFC
3FFC
3FFC
3FFC
3000
3000
3000
3000
3FF0
7FF8
01FC
00FC
00FC
E0FC
F0FC
F0FC
F0FC
73F8
3FE0
ENDCHAR
STARTCHAR six.osf
ENCODING -1
SWIDTH 540 0
DWIDTH 16 0
BBX 16 19 0 0
BITMAP
003C
01FC
03F0
0FC0
1F80
3F00
3E00
7EF0
7FFC
7EFE
7C3E
FC3F
7C3F
7C3F
7C3F
7C3E
3E3E
1E7C
0FF0
ENDCHAR
STARTCHAR seven.osf
ENCODING -1
SWIDTH 540 0
DWIDTH 16 0
BBX 14 19 1 -3
BITMAP
FFFC
FFFC
FFFC
FFFC
0018
0038
0078
0070
00F0
01E0
01E0
03C0
07C0
0780
0F80
0F80
1F00
3F00
3E00
ENDCHAR
STARTCHAR eight.osf
ENCODING -1
SWIDTH 540 0
DWIDTH 16 0
BBX 14 19 1 0
BITMAP
0FE0
3FF8
7878
787C
F87C
FC78
FE78
7FE0
7FE0
3FF0
0FF8
3FFC
79FC
F87C
F87C
F87C
F87C
7CF8
3FE0
ENDCHAR
STARTCHAR nine.osf
ENCODING -1
SWIDTH 540 0
DWIDTH 16 0
BBX 16 20 0 -4
BITMAP
0FF0
1FF8
3E7C
7C3E
7C3E
FC3E
FC3F
FC3F
7C3F
7E3F
3FFE
0FFE
007E
007C
00F8
01F0
07E0
1F80
3E00
2000
ENDCHAR
STARTCHAR zero.cap
ENCODING -1
SWIDTH 540 0
DWIDTH 16 0
BBX 14 20 1 0
BITMAP
0FC0
1FE0
3CF0
7878
7878
F87C
F87C
F87C
F87C
F87C
F87C
F87C
F87C
F87C
F87C
787C
7878
3CF8
3CF0
0FE0
ENDCHAR
STARTCHAR one.cap
ENCODING -1
SWIDTH 372 0
DWIDTH 11 0
BBX 11 20 0 0
BITMAP
0380
3F80
FF80
FF80
1F80
1F80
1F80
1F80
1F80
1F80
1F80
1F80
1F80
1F80
1F80
1F80
1F80
1F80
FFE0
FFE0
ENDCHAR
STARTCHAR two.cap
ENCODING -1
SWIDTH 540 0
DWIDTH 16 0
BBX 14 20 1 0
BITMAP
0FE0
3FF0
79F8
F8FC
F0FC
F0FC
00FC
00F8
01F8
01F0
03E0
07C0
0780
0E00
1C00
3000
7FFC
FFFC
FFFC
FFFC
ENDCHAR
STARTCHAR three.cap
ENCODING -1
SWIDTH 540 0
DWIDTH 16 0
BBX 14 20 1 0
BITMAP
0FC0
3FF0
79F8
78FC
78FC
70FC
00F8
00F8
01F0
0FC0
0FF0
01F8
00FC
00FC
E0FC
F0FC
F0FC
F0FC
73F8
3FE0
ENDCHAR
STARTCHAR four.cap
ENCODING -1
SWIDTH 540 0
DWIDTH 16 0
BBX 15 20 1 0
BITMAP
00F0
01F0
01F0
03F0
07F0
07F0
0DF0
19F0
19F0
31F0
61F0
61F0
FFFE
FFFE
FFFE
FFFE
01F0
01F0
01F0
01F0
ENDCHAR
STARTCHAR five.cap
ENCODING -1
SWIDTH 540 0
DWIDTH 16 0
BBX 14 20 1 0
BITMAP
3FFC
3FFC
3FFC
3FFC
3FFC
3000
3000
3000
3FC0
7FF0
23F8
00FC
00FC
00FC
E0FC
F0FC
F0FC
F0F8
73F8
3FE0
ENDCHAR
STARTCHAR six.cap
ENCODING -1
SWIDTH 540 0
DWIDTH 16 0
BBX 16 20 0 0
BITMAP
001C
00FC
03F0
07C0
0F80
1F00
3E00
3E00
7FF8
7FFC
7E7E
FC3E
FC3F
7C3F
7C3F
7C3F
7E3E
3E3E
1F7C
0FF8
ENDCHAR
STARTCHAR seven.cap
ENCODING -1
SWIDTH 540 0
DWIDTH 16 0
BBX 14 20 1 0
BITMAP
FFFC
FFFC
FFFC
FFFC
FFF8
0038
0078
0070
00F0
00E0
01E0
03E0
03C0
07C0
0780
0F80
1F80
1F00
3F00
3E00
ENDCHAR
STARTCHAR eight.cap
ENCODING -1
SWIDTH 540 0
DWIDTH 16 0
BBX 14 20 1 0
BITMAP
0FE0
3FF0
7878
787C
F87C
F87C
FC78
FE70
7FE0
3FE0
1FF0
1FF8
3BFC
78FC
F87C
F87C
F87C
F87C
7CF8
3FE0
ENDCHAR
ENDFONT
